<?xml version="1.0" standalone="no"?>
<!DOCTYPE svg PUBLIC "-//W3C//DTD SVG 20010904//EN"
 "http://www.w3.org/TR/2001/REC-SVG-20010904/DTD/svg10.dtd">
<svg version="1.0" xmlns="http://www.w3.org/2000/svg"
 width="292.000000pt" height="172.000000pt" viewBox="0 0 292.000000 172.000000"
 preserveAspectRatio="xMidYMid meet">
<metadata>
Created by potrace 1.10, written by Peter Selinger 2001-2011
</metadata>
<g transform="translate(0.000000,172.000000) scale(0.100000,-0.100000)"
fill="#f0fff0" stroke="none">
<path d="M1394 1652 c5 -8 1 -19 -10 -28 -17 -14 -17 -15 -1 -10 21 6 23 -7 3
-23 -25 -21 -56 -221 -35 -221 5 0 9 -12 8 -27 0 -16 2 -41 5 -58 7 -31 4 -37
-65 -160 -31 -55 -78 -177 -98 -250 -4 -16 -4 -42 0 -57 5 -20 2 -34 -11 -51
-14 -18 -22 -61 -35 -183 -8 -87 -18 -166 -21 -174 -3 -8 -8 -37 -10 -65 -2
-27 -6 -75 -9 -105 -5 -50 -4 -53 8 -30 8 14 19 24 25 23 15 -4 15 10 0 25 -9
9 -9 12 0 12 14 0 16 36 2 45 -13 8 -13 45 -1 45 5 0 12 -8 14 -17 3 -11 5 -7
6 10 0 16 -3 26 -9 22 -6 -4 -8 12 -5 41 6 60 15 70 16 18 0 -31 2 -35 9 -19
13 31 12 108 -2 99 -7 -4 -8 -3 -4 5 4 6 12 9 17 6 5 -4 9 -2 9 4 0 5 -6 12
-12 15 -10 5 -10 7 0 12 10 5 9 10 -5 26 -13 15 -14 19 -3 16 8 -2 19 -7 23
-13 5 -5 5 1 1 15 -4 14 -10 27 -13 30 -4 3 -4 21 0 40 3 19 7 29 8 23 0 -7 6
-13 11 -13 7 0 8 6 2 17 -10 17 2 50 22 65 6 4 5 12 -2 21 -10 12 -9 16 5 22
10 5 21 8 25 7 4 -1 5 5 1 14 -5 13 -7 13 -14 2 -6 -9 -9 -9 -9 -1 0 6 -8 14
-17 16 -10 3 0 5 22 4 33 -2 40 -6 40 -22 0 -11 8 -21 18 -23 11 -2 17 3 17
16 0 14 -13 25 -45 39 -29 11 -45 24 -45 36 0 9 5 17 10 17 6 0 10 9 10 20 0
13 5 18 15 14 15 -6 21 7 8 20 -9 9 -11 46 -2 41 4 -3 5 5 2 16 -4 14 0 25 11
31 9 5 16 18 16 28 0 11 4 20 9 20 5 0 15 16 22 35 14 39 29 34 49 -16 7 -16
15 -28 17 -26 2 3 -5 27 -16 55 -18 44 -18 52 -5 63 18 15 32 3 16 -13 -19
-19 -14 -30 9 -18 11 7 18 17 16 25 -3 7 0 18 6 24 8 8 8 11 -1 11 -7 0 -12 5
-12 10 0 6 7 10 17 10 15 0 10 15 -5 15 -20 1 -32 22 -47 88 -15 61 -16 81 -5
130 6 31 15 55 18 53 4 -2 22 4 41 14 l35 17 -30 16 c-16 9 -27 17 -24 17 29
7 39 7 34 -1 -3 -5 6 -9 20 -9 23 0 25 -3 21 -32 l-5 -33 10 31 c9 30 40 55
40 34 0 -6 10 -10 23 -11 21 0 21 -1 2 -9 -16 -7 -17 -9 -3 -9 9 -1 23 5 30
13 11 11 20 11 42 2 15 -6 27 -14 26 -19 -1 -4 3 -30 9 -58 8 -34 8 -56 1 -63
-5 -7 -7 -25 -4 -41 4 -24 3 -26 -10 -16 -12 10 -17 8 -26 -11 -10 -21 -10
-21 3 -5 25 30 29 1 6 -35 -12 -18 -19 -25 -15 -15 3 9 1 17 -3 17 -14 0 -18
-23 -10 -50 4 -14 7 -19 8 -11 1 8 3 12 6 9 8 -7 -16 -58 -27 -58 -4 0 -8 -7
-8 -15 0 -7 -8 -18 -17 -24 -10 -5 -15 -13 -11 -16 12 -13 40 4 46 27 5 21 6
21 13 2 11 -28 11 -56 -1 -49 -5 3 -6 13 -3 23 6 16 6 16 -10 0 -18 -18 -23
-33 -8 -24 5 3 12 -6 15 -20 6 -21 10 -23 21 -14 8 6 11 19 8 28 -4 15 -3 15
6 2 16 -22 14 -77 -4 -84 -8 -3 -15 -10 -15 -17 0 -6 7 -8 16 -5 13 5 15 -6
11 -84 -3 -56 -1 -90 5 -90 14 0 -1 -59 -22 -90 -16 -23 -30 -113 -34 -213 -1
-21 -6 -41 -12 -45 -16 -11 -35 -95 -24 -106 7 -7 10 -4 10 5 0 19 33 59 49
59 6 0 15 8 18 18 8 22 42 52 59 52 18 0 41 -43 25 -48 -6 -2 -11 -10 -11 -18
0 -9 5 -12 12 -8 8 5 9 -4 5 -32 -4 -21 -7 -50 -7 -64 0 -20 -2 -22 -10 -10
-8 13 -10 12 -10 -2 0 -10 5 -18 11 -18 16 0 -28 -60 -75 -102 -23 -21 -35
-38 -27 -38 11 0 12 -3 4 -11 -8 -8 -17 -8 -32 0 -28 15 -26 23 7 42 27 15 40
53 21 64 -9 6 -13 -7 -10 -31 1 -7 -10 -15 -23 -18 -14 -3 -27 -14 -29 -24 -3
-10 -5 -6 -6 11 0 15 2 27 7 27 4 0 8 11 8 25 2 21 -1 24 -12 14 -15 -12 -19
-95 -6 -116 4 -6 19 -15 35 -18 15 -4 25 -11 22 -15 -3 -5 -2 -16 2 -26 6 -15
18 -16 142 -10 75 5 147 9 161 11 14 2 40 4 58 4 27 1 32 5 32 26 0 29 -27 47
-52 34 -22 -12 -25 -44 -3 -35 8 3 15 1 15 -4 0 -15 -27 -12 -44 5 -14 15 -46
11 -46 -5 0 -5 -9 -8 -20 -7 -26 2 -25 12 2 31 22 15 21 16 -24 16 -26 0 -50
5 -53 10 -3 6 -11 10 -16 10 -6 0 1 -14 15 -31 25 -30 33 -49 20 -49 -4 0 -13
8 -21 17 -14 17 -14 17 -9 1 3 -10 1 -18 -4 -18 -6 0 -10 5 -10 12 0 9 -3 9
-12 0 -18 -18 -25 -15 -25 13 0 14 4 25 10 25 6 0 7 3 3 7 -15 16 -36 9 -60
-18 -15 -16 -22 -29 -16 -29 5 0 17 11 26 25 21 31 28 26 19 -14 -6 -28 -9
-29 -43 -24 -20 3 -38 7 -40 9 -11 8 25 48 53 60 41 17 46 26 74 126 25 88 32
175 15 186 -7 4 -14 16 -16 27 -3 16 -11 19 -37 17 -25 -2 -44 -14 -72 -45
-26 -28 -39 -36 -39 -25 0 9 5 18 11 20 6 2 13 26 14 53 3 56 23 184 31 196 2
5 12 6 22 3 14 -5 15 -4 2 5 -8 5 -11 13 -7 17 11 12 18 -1 22 -42 5 -45 -14
-144 -27 -144 -5 0 -6 -4 -3 -10 3 -5 1 -10 -6 -10 -7 0 -9 -3 -6 -6 4 -4 13
-1 21 5 11 9 16 9 22 -1 21 -33 32 181 13 242 -6 19 -12 96 -14 172 -2 119 -5
141 -23 173 -23 37 -29 81 -13 87 5 2 10 19 12 38 2 19 7 40 11 46 5 7 8 16 7
20 -1 5 1 29 5 54 12 80 14 110 5 104 -5 -3 -9 -1 -9 5 0 5 5 13 10 16 13 8
13 25 -1 25 -5 0 -7 -4 -4 -10 3 -5 1 -10 -4 -10 -14 0 -14 17 -1 25 18 11 11
30 -12 32 -13 0 -50 8 -83 17 -33 9 -77 16 -98 16 -21 0 -50 8 -64 18 -17 10
-24 12 -19 4z m26 -71 c0 -13 -26 -32 -33 -24 -8 7 11 33 24 33 5 0 9 -4 9 -9z"/>
<path d="M1360 1640 c0 -5 -7 -6 -17 -3 -10 4 -14 2 -10 -4 8 -12 -39 -47 -52
-38 -5 3 -11 -1 -14 -7 -3 -10 -7 -10 -20 1 -10 8 -17 9 -17 3 0 -6 8 -16 18
-21 15 -9 16 -10 0 -11 -20 0 -32 -31 -23 -62 27 -102 41 -124 43 -68 0 17 -4
30 -9 30 -5 0 -9 5 -9 11 0 6 7 9 15 5 8 -3 15 -1 15 4 0 6 -10 10 -22 10 -17
0 -19 3 -9 9 11 7 11 9 0 14 -8 3 -3 6 11 6 20 1 22 3 10 11 -10 6 -11 10 -2
10 6 0 11 5 10 11 -2 6 2 13 7 15 9 4 9 -25 2 -140 -1 -16 4 -31 11 -33 6 -3
12 2 12 11 0 9 -6 16 -12 16 -9 0 -10 2 -2 8 6 4 13 34 16 66 3 33 10 62 16
64 6 2 8 10 5 18 -4 10 0 12 11 8 9 -3 16 -1 16 5 0 6 -5 11 -11 11 -6 0 -3 7
5 16 15 15 21 34 11 34 -3 0 -5 -4 -5 -10z"/>
<path d="M1690 1581 c0 -7 10 -16 23 -21 12 -5 16 -9 10 -9 -18 -1 -16 -21 2
-21 8 0 15 -4 15 -9 0 -5 3 -16 6 -25 4 -10 1 -16 -9 -16 -9 0 -18 10 -20 23
l-4 22 -2 -22 c-1 -26 34 -51 43 -30 4 6 4 2 2 -10 -2 -13 1 -23 6 -23 6 0 8
12 4 30 -3 19 -2 29 4 25 6 -3 10 -15 10 -25 0 -10 6 -21 13 -23 9 -4 9 -8 -2
-15 -9 -6 -11 -19 -7 -35 3 -14 2 -29 -4 -32 -6 -3 -7 1 -4 12 5 17 5 17 -6 0
-6 -9 -9 -21 -6 -26 8 -12 -13 -19 -51 -16 -40 2 -41 -4 -8 -35 l26 -24 24 29
c49 59 69 99 66 130 -2 16 -8 33 -14 37 -8 5 -6 9 6 14 9 3 14 10 11 15 -3 5
-9 7 -14 4 -14 -9 -50 18 -50 36 0 13 -12 22 -62 47 -5 2 -8 -1 -8 -7z"/>
<path d="M1605 1559 c8 -28 35 -59 35 -42 0 7 -5 15 -10 18 -6 4 -9 14 -8 22
2 9 -3 18 -11 21 -10 3 -11 -2 -6 -19z"/>
<path d="M1547 1553 c-14 -24 -17 -77 -6 -110 11 -35 15 -54 18 -97 1 -15 4
-16 16 -6 8 7 15 20 14 29 0 12 -2 11 -8 -4 -6 -15 -9 -9 -13 25 -3 25 -9 54
-14 64 -5 13 -4 17 3 13 6 -4 13 -4 16 0 2 5 2 2 1 -4 -4 -16 32 -17 41 -2 4
6 13 8 21 5 8 -3 14 -1 14 4 0 6 -5 10 -11 10 -7 0 -18 8 -25 18 -12 16 -14
16 -44 -2 -32 -18 -32 -18 -26 3 3 11 9 30 12 41 5 20 0 27 -9 13z"/>
<path d="M1446 1541 c-3 -4 -19 -11 -36 -14 -16 -4 -30 -11 -30 -17 0 -6 5 -8
10 -5 6 3 10 -1 10 -9 0 -10 9 -16 25 -16 21 0 24 -3 16 -17 -5 -10 -20 -30
-33 -44 -17 -18 -22 -32 -18 -50 l6 -24 8 25 c5 14 26 51 48 83 22 33 37 62
33 65 -3 4 -10 0 -15 -8 -10 -16 -14 -8 -11 23 2 18 -4 23 -13 8z"/>
<path d="M1566 1531 c-4 -7 -5 -15 -2 -18 9 -9 19 4 14 18 -4 11 -6 11 -12 0z"/>
<path d="M1376 1467 c-8 -33 -1 -48 18 -41 19 7 28 44 11 44 -7 0 -15 6 -17
12 -3 7 -8 0 -12 -15z m11 -29 c-3 -8 -6 -5 -6 6 -1 11 2 17 5 13 3 -3 4 -12
1 -19z"/>
<path d="M911 1430 c-11 -19 -23 -46 -26 -60 -6 -26 -56 -65 -68 -53 -10 9
-57 -26 -57 -42 0 -8 -6 -15 -12 -15 -9 0 -8 -4 2 -10 8 -5 11 -10 6 -10 -6 0
-5 -5 2 -12 16 -16 15 -38 -1 -38 -7 0 -24 -11 -39 -25 -15 -14 -30 -25 -33
-25 -12 0 -4 29 15 50 11 13 20 28 20 34 0 6 5 4 10 -4 15 -22 12 -6 -4 24
-11 22 -16 25 -27 14 -12 -12 -59 -20 -59 -11 0 2 10 8 23 13 l22 9 -22 0
c-21 1 -51 37 -40 47 3 3 21 -3 41 -14 19 -11 34 -21 31 -23 -2 -3 7 -4 20 -4
26 2 47 14 27 16 -7 1 -16 2 -20 3 -17 2 -82 41 -82 48 0 5 -10 8 -21 8 -19 0
-21 -4 -16 -37 4 -20 18 -60 32 -88 14 -29 25 -59 25 -68 0 -10 5 -17 11 -17
6 0 9 -6 6 -12 -2 -7 4 -33 13 -58 21 -53 14 -165 -12 -215 -8 -16 -23 -61
-32 -100 -9 -38 -22 -91 -28 -116 -8 -34 -8 -58 0 -92 7 -25 12 -61 12 -80 0
-19 8 -58 17 -87 15 -47 18 -50 30 -34 11 15 11 19 -2 27 -8 4 -15 15 -15 22
0 19 8 19 27 0 8 -8 18 -13 23 -10 4 3 13 -2 20 -10 14 -17 30 -20 30 -5 0 6
-6 10 -14 10 -22 0 -39 27 -42 70 -2 21 -11 61 -20 87 -9 26 -16 58 -16 70 0
13 -7 28 -14 34 -8 6 -14 17 -14 23 0 6 4 4 10 -4 5 -8 12 -11 16 -7 4 3 2 13
-5 21 -9 11 -8 24 3 57 9 24 13 53 10 65 -3 12 -1 25 5 28 7 5 8 0 4 -11 -4
-13 -3 -15 5 -8 6 6 12 25 14 43 2 31 18 58 18 31 0 -7 10 -9 24 -7 18 4 23 1
19 -10 -5 -11 -1 -13 17 -7 17 5 21 4 15 -5 -5 -8 -4 -11 3 -7 5 4 20 3 33 -1
12 -5 41 -5 63 0 23 4 59 10 81 14 22 3 45 11 50 18 6 7 22 20 37 30 23 15 25
21 18 47 -5 16 -18 42 -30 59 -22 30 -28 60 -34 144 -3 54 -25 80 -63 73 -12
-2 -24 1 -26 7 -7 19 -42 -9 -41 -33 0 -11 -4 -21 -9 -21 -5 0 -7 -13 -3 -30
3 -17 1 -30 -4 -30 -6 0 -13 0 -17 -1 -5 -1 -7 14 -6 32 1 20 -1 24 -4 12 -2
-13 -9 -23 -14 -23 -6 0 -8 4 -5 8 2 4 -4 13 -15 20 -27 17 -26 -11 2 -39 15
-15 18 -23 9 -29 -8 -5 -7 -9 5 -13 13 -6 14 -11 4 -28 -11 -22 -3 -21 30 5 7
6 28 10 45 9 l31 -2 -33 15 c-26 11 -31 18 -23 28 6 7 9 21 5 30 -5 13 -2 15
12 9 17 -6 17 -5 5 10 -12 15 -11 17 3 17 9 0 16 7 16 15 0 8 -5 15 -11 15 -5
0 -7 -4 -4 -10 3 -5 1 -10 -5 -10 -16 0 -6 24 11 28 8 1 20 -10 26 -25 l12
-28 -6 28 c-4 21 -1 27 12 27 12 0 15 -5 10 -20 -8 -25 3 -26 22 -2 13 16 14
15 8 -6 -4 -13 -2 -29 5 -37 13 -16 -6 -55 -29 -55 -11 0 -11 -3 -1 -15 16
-20 27 -19 33 3 3 9 5 -4 6 -30 0 -25 3 -52 6 -60 3 -7 -4 -19 -16 -26 -17
-11 -23 -11 -37 0 -13 11 -14 11 -8 -1 5 -8 3 -17 -5 -23 -11 -8 -10 -9 4 -4
10 3 17 0 17 -8 0 -9 12 -3 31 15 18 17 29 35 26 43 -4 10 -1 13 9 9 7 -3 14
-9 14 -13 0 -5 3 -16 7 -26 4 -12 3 -15 -6 -10 -6 4 -11 4 -10 -1 4 -25 -4
-41 -31 -56 -30 -18 -132 -49 -138 -42 -10 10 12 25 36 26 27 0 27 0 4 11 -19
9 -26 8 -43 -11 -12 -12 -28 -20 -36 -17 -8 3 -20 6 -26 6 -7 0 -3 7 7 15 11
8 15 15 10 15 -6 0 -16 -6 -23 -12 -10 -9 -15 -10 -18 -2 -2 6 -15 9 -28 6
-14 -2 -25 0 -26 4 0 5 -3 21 -5 36 -4 22 -1 25 16 21 15 -4 20 -1 20 13 0 29
-16 48 -31 38 -12 -6 -12 -5 0 9 13 16 14 16 27 0 13 -17 14 -17 7 1 -5 15 -3
17 8 11 8 -4 11 -5 7 0 -4 4 -2 15 4 24 10 12 7 11 -8 -2 -20 -16 -22 -16 -42
1 -22 20 -27 72 -10 106 8 15 12 16 19 5 7 -11 9 -9 9 6 1 18 2 18 10 -2 12
-28 20 -30 15 -3 -2 11 0 20 5 20 6 0 6 9 0 24 -5 13 -6 27 -2 31 3 3 0 10 -8
15 -11 7 -11 10 -2 10 7 0 15 -7 18 -15 4 -8 11 -15 16 -15 6 0 3 12 -7 26 -9
14 -15 27 -13 28 2 1 15 7 30 13 25 11 26 11 26 -23 0 -20 3 -38 7 -42 4 -4 5
5 3 21 -3 15 -2 27 2 27 4 0 10 10 14 23 5 18 8 20 16 7 7 -11 10 -11 10 -2 0
7 3 11 8 9 4 -3 8 15 9 40 2 51 18 77 33 53 10 -16 3 -33 -11 -25 -5 4 -9 1
-9 -4 0 -6 9 -11 20 -11 23 0 27 -18 6 -26 -19 -7 -28 -32 -14 -40 6 -4 8 -3
5 3 -4 6 0 16 7 22 11 9 16 9 21 0 4 -6 2 -15 -5 -19 -17 -10 -4 -47 22 -61
19 -10 20 -9 13 7 -4 11 -9 30 -10 44 -4 32 -33 131 -44 149 -7 11 -14 7 -30
-19z m-204 -211 c-13 -21 -27 -25 -27 -9 0 6 -7 10 -16 10 -28 0 -6 15 24 16
27 1 29 -1 19 -17z m153 -129 c0 -5 -4 -10 -9 -10 -6 0 -13 5 -16 10 -3 6 1
10 9 10 9 0 16 -4 16 -10z m-222 -511 c-3 -8 -7 -3 -11 10 -4 17 -3 21 5 13 5
-5 8 -16 6 -23z m9 -51 c-3 -8 -6 -5 -6 6 -1 11 2 17 5 13 3 -3 4 -12 1 -19z
m20 -40 c-6 -4 -16 -3 -22 3 -6 6 -5 13 5 19 9 6 17 5 22 -3 4 -6 2 -15 -5
-19z m-7 -28 c0 -5 -4 -10 -10 -10 -5 0 -10 5 -10 10 0 6 5 10 10 10 6 0 10
-4 10 -10z"/>
<path d="M1483 1444 c-3 -8 -1 -20 5 -26 7 -7 10 -2 9 16 -2 30 -5 32 -14 10z"/>
<path d="M1600 1430 c-8 -5 -11 -12 -7 -16 4 -4 15 0 24 9 18 18 8 23 -17 7z"/>
<path d="M1317 1411 c6 -24 -13 -36 -32 -21 -19 16 -19 -1 0 -26 15 -19 15
-19 30 0 16 22 20 66 6 66 -5 0 -7 -8 -4 -19z"/>
<path d="M1751 1416 c-11 -13 -11 -20 -3 -28 8 -8 13 -7 18 5 10 27 0 41 -15
23z"/>
<path d="M565 1390 c-3 -6 1 -7 9 -4 18 7 21 14 7 14 -6 0 -13 -4 -16 -10z"/>
<path d="M1445 1384 c-8 -8 -12 -27 -10 -44 2 -17 -1 -30 -6 -30 -5 0 -9 -4
-9 -10 0 -5 6 -7 14 -4 8 3 17 1 21 -5 10 -17 55 -13 55 4 0 8 -4 15 -10 15
-5 0 -10 -4 -10 -9 0 -14 -38 -1 -44 16 -3 7 -2 11 3 8 6 -3 14 3 20 12 10 17
10 17 11 1 0 -20 8 -22 28 -9 8 4 12 19 10 31 -4 30 -51 45 -73 24z m52 -21
c3 -7 -4 -9 -16 -6 -12 3 -18 9 -15 15 7 11 26 6 31 -9z"/>
<path d="M1243 1360 c-1 -11 2 -22 6 -24 4 -3 7 4 6 14 -2 27 -10 33 -12 10z"/>
<path d="M805 1360 c-3 -5 -1 -10 4 -10 6 0 11 5 11 10 0 6 -2 10 -4 10 -3 0
-8 -4 -11 -10z"/>
<path d="M1551 1286 c-19 -20 -31 -24 -65 -21 -22 2 -34 1 -26 -2 8 -3 18 -11
22 -16 4 -7 12 -6 24 4 15 12 16 12 10 -8 -4 -13 -2 -31 4 -40 8 -15 9 -13 4
10 -4 17 -2 27 6 27 6 0 9 4 6 9 -7 11 18 33 27 24 4 -3 9 2 13 11 10 27 -1
28 -25 2z"/>
<path d="M1990 1293 c-8 -10 -13 -26 -12 -38 3 -16 1 -17 -8 -8 -10 9 -16 9
-26 -2 -8 -7 -14 -19 -14 -26 0 -6 -8 -26 -19 -43 -29 -49 -70 -204 -70 -266
0 -19 -6 -39 -13 -45 -8 -6 -14 -38 -15 -89 -1 -45 -9 -97 -19 -120 -20 -51
-21 -114 -3 -158 23 -58 53 -76 57 -35 3 36 -18 79 -37 72 -13 -4 -13 -3 2 9
18 14 23 36 8 36 -5 0 -12 -6 -15 -12 -3 -7 -3 -3 0 10 3 14 1 22 -8 22 -8 0
-7 4 4 11 10 5 20 26 24 47 4 20 16 52 26 71 18 31 18 33 1 27 -14 -6 -13 -2
6 17 22 25 24 59 5 120 -3 9 0 17 6 17 6 0 9 4 6 9 -4 5 0 12 6 14 8 4 7 6 -4
6 -11 1 -15 7 -11 22 4 15 8 17 14 8 13 -22 21 13 10 43 -11 28 -6 39 13 32 7
-3 18 7 24 21 9 19 9 24 -1 22 -6 -1 -15 -9 -19 -17 -4 -9 -7 -2 -7 18 -1 17
4 32 10 32 6 0 8 8 4 19 -3 11 -1 22 5 26 6 4 10 3 9 -2 -5 -26 2 -63 11 -58
5 3 9 18 8 33 -4 66 1 80 27 74 30 -5 33 -22 5 -29 -23 -6 -27 -23 -5 -23 13
0 14 -4 5 -21 -13 -23 -6 -54 10 -44 5 3 10 17 10 30 0 13 9 49 21 80 22 60
22 98 -1 102 -8 1 -22 -5 -30 -14z m33 -34 c4 -15 2 -19 -8 -15 -10 3 -12 0
-8 -11 4 -11 2 -14 -5 -9 -16 10 -15 43 1 49 6 3 13 6 13 6 1 1 4 -8 7 -20z
m-176 -471 c-3 -8 -6 -5 -6 6 -1 11 2 17 5 13 3 -3 4 -12 1 -19z m-13 -283 c3
-8 1 -15 -4 -15 -6 0 -10 7 -10 15 0 8 2 15 4 15 2 0 6 -7 10 -15z"/>
<path d="M2645 1300 c-3 -6 1 -7 9 -4 18 7 21 14 7 14 -6 0 -13 -4 -16 -10z"/>
<path d="M2715 1294 c-16 -8 -39 -24 -51 -35 -11 -10 -26 -19 -32 -19 -7 0
-12 -9 -12 -20 0 -18 -7 -20 -59 -20 -33 0 -72 -5 -88 -11 -19 -7 -29 -7 -31
0 -2 6 -11 20 -21 32 l-17 21 1 -27 c0 -17 8 -31 23 -39 12 -7 19 -15 16 -19
-4 -4 -2 -7 4 -7 7 0 12 5 12 10 0 6 15 10 34 10 19 0 38 5 41 10 10 16 28 12
22 -4 -4 -10 -1 -13 8 -9 8 3 12 10 8 16 -3 5 -1 7 5 3 6 -3 22 -2 36 4 21 7
26 6 26 -5 0 -8 6 -15 14 -15 8 0 16 -6 19 -12 4 -10 7 -10 18 0 11 10 10 12
-4 12 -10 0 -17 8 -17 19 0 11 -3 26 -6 34 -4 11 2 14 25 11 17 -2 33 2 37 8
4 7 3 8 -4 4 -7 -4 -12 -2 -12 4 0 6 -5 8 -12 4 -6 -4 -8 -3 -5 2 3 6 23 10
44 11 21 1 30 -1 21 -4 -18 -4 -26 -23 -10 -23 11 0 11 -54 0 -68 -16 -18 -5
-24 25 -13 33 13 55 50 36 62 -7 4 -13 26 -13 48 -1 37 -4 41 -26 41 -14 0
-38 -7 -55 -16z m62 -96 c-3 -8 -6 -5 -6 6 -1 11 2 17 5 13 3 -3 4 -12 1 -19z"/>
<path d="M2608 1283 c7 -3 16 -2 19 1 4 3 -2 6 -13 5 -11 0 -14 -3 -6 -6z"/>
<path d="M812 1250 c5 -17 14 -33 20 -36 5 -4 4 4 -3 17 -7 13 -12 25 -11 27
6 7 1 22 -7 22 -6 0 -6 -12 1 -30z"/>
<path d="M864 1264 c3 -9 6 -18 6 -20 0 -2 4 -4 8 -4 4 0 8 9 8 20 0 11 -7 20
-14 20 -9 0 -12 -6 -8 -16z"/>
<path d="M2272 1243 c-30 -6 -37 -26 -22 -63 10 -24 10 -33 0 -45 -13 -15 -5
-39 11 -30 5 4 9 -1 9 -9 0 -10 -6 -13 -17 -9 -14 5 -15 3 -7 -6 9 -10 16 -10
33 1 21 13 28 28 13 28 -4 0 -6 16 -4 35 3 25 0 35 -9 35 -11 0 -11 3 1 10 13
9 13 11 0 21 -12 8 -9 9 10 3 14 -3 30 -10 35 -14 6 -4 21 -6 33 -5 17 1 26
-5 33 -23 11 -29 6 -35 -38 -50 -24 -8 -33 -7 -37 3 -7 18 5 27 20 14 9 -7 18
-7 31 0 17 10 17 10 -2 11 -11 0 -27 5 -35 10 -11 7 -5 9 20 5 34 -5 34 -5 6
5 -16 5 -32 14 -36 21 -6 8 -9 8 -14 0 -4 -6 -3 -11 3 -11 5 0 8 -8 6 -17 -2
-10 -4 -18 -5 -18 -1 0 -3 -8 -5 -17 -5 -26 12 -32 46 -17 29 11 32 10 54 -17
23 -28 24 -28 41 -11 18 16 17 17 -4 17 -25 0 -40 26 -24 42 7 7 3 18 -13 36
-15 16 -20 29 -14 33 22 13 -78 40 -119 32z m84 -27 c19 -14 18 -15 -3 -13
-12 0 -20 4 -17 8 2 4 -2 10 -8 12 -7 3 -8 6 -2 6 5 1 19 -5 30 -13z"/>
<path d="M1111 1224 c0 -11 3 -14 6 -6 3 7 2 16 -1 19 -3 4 -6 -2 -5 -13z"/>
<path d="M582 1210 c0 -14 2 -19 5 -12 2 6 2 18 0 25 -3 6 -5 1 -5 -13z"/>
<path d="M861 1214 c0 -11 3 -14 6 -6 3 7 2 16 -1 19 -3 4 -6 -2 -5 -13z"/>
<path d="M1538 1223 c7 -3 16 -2 19 1 4 3 -2 6 -13 5 -11 0 -14 -3 -6 -6z"/>
<path d="M800 1209 c0 -9 7 -22 15 -29 19 -16 19 0 0 26 -12 16 -14 16 -15 3z"/>
<path d="M2720 1200 c-8 -5 -11 -12 -7 -16 4 -4 15 0 24 9 18 18 8 23 -17 7z"/>
<path d="M946 1161 c-16 -6 -17 -9 -5 -16 21 -14 49 -16 49 -5 0 6 -7 10 -16
10 -8 0 -12 5 -9 10 7 11 7 11 -19 1z"/>
<path d="M1435 1159 c-4 -6 -13 -8 -21 -5 -8 3 -14 -1 -14 -9 0 -23 16 -26 35
-5 14 15 20 17 26 8 4 -7 11 -9 16 -5 4 5 1 12 -7 17 -20 13 -27 12 -35 -1z"/>
<path d="M1520 1159 c0 -5 7 -9 15 -9 24 0 24 -75 -1 -124 -18 -37 -18 -46 1
-46 8 0 15 -4 15 -9 0 -14 37 -20 49 -8 16 16 13 26 -7 21 -9 -3 -28 -1 -42 5
-14 5 -19 10 -12 10 6 1 13 13 13 29 l1 27 8 -30 c6 -25 8 -26 9 -7 0 12 8 25
16 28 19 8 19 24 -1 38 -8 6 -16 26 -16 43 -1 25 -6 32 -24 36 -13 2 -24 0
-24 -4z m60 -83 c0 -3 -4 -8 -10 -11 -5 -3 -10 -1 -10 4 0 6 5 11 10 11 6 0
10 -2 10 -4z"/>
<path d="M2601 1149 c-1 -34 -28 -59 -41 -39 -5 8 -12 11 -17 7 -4 -5 -3 -11
3 -15 6 -4 13 -15 17 -24 5 -16 4 -16 -15 -5 -11 6 -32 22 -46 35 -30 27 -43
21 -17 -8 18 -20 18 -21 0 -38 -10 -9 -15 -12 -11 -6 3 7 -1 15 -10 18 -11 4
-15 2 -11 -8 3 -8 1 -16 -5 -18 -13 -5 -2 -28 13 -28 6 0 7 5 4 10 -7 11 18
14 28 4 9 -9 -11 -44 -26 -44 -8 0 -7 4 3 11 12 8 10 9 -8 4 -19 -5 -25 -2
-29 15 -4 15 -8 18 -13 9 -5 -7 -2 -18 5 -26 8 -7 11 -21 8 -29 -5 -13 -8 -13
-15 -2 -7 9 -8 4 -5 -17 5 -26 2 -30 -19 -31 -15 -1 -24 4 -24 12 0 8 4 14 8
14 5 0 14 12 20 26 9 18 9 23 1 18 -15 -9 -1 38 15 51 10 8 9 14 -6 29 -10 11
-18 15 -18 10 0 -6 5 -15 12 -22 9 -9 9 -12 0 -12 -6 0 -15 8 -21 17 -9 17
-11 16 -30 -1 -12 -11 -21 -14 -21 -8 0 7 -7 9 -17 5 -12 -5 -14 -3 -8 7 5 8
3 11 -6 8 -8 -3 -22 -20 -32 -39 -13 -24 -14 -28 -3 -15 9 11 16 23 16 28 0 4
5 8 10 8 7 0 7 -6 0 -20 -13 -24 -2 -27 14 -4 10 13 12 12 11 -8 -1 -13 -7
-34 -14 -47 -10 -17 -10 -21 -1 -16 9 5 10 2 6 -13 -4 -11 -2 -23 4 -27 5 -3
10 -15 10 -26 0 -21 26 -27 32 -7 3 8 11 9 24 3 25 -11 64 -13 58 -3 -3 4 -16
8 -30 8 -14 0 -23 4 -19 10 3 5 11 7 18 5 34 -10 71 -15 60 -7 -18 12 -29 72
-13 72 8 0 10 -8 7 -21 -3 -12 0 -22 9 -26 8 -3 14 -14 14 -24 0 -10 6 -19 13
-19 8 0 7 -4 -3 -10 -13 -9 -13 -11 0 -20 20 -13 57 -13 65 0 4 6 -5 10 -19
10 -16 0 -26 6 -26 15 0 11 12 15 45 15 42 0 58 11 35 25 -6 3 -8 16 -4 29 3
14 -1 27 -10 35 -13 11 -20 11 -41 -3 -26 -17 -33 -36 -14 -36 6 0 9 -7 6 -14
-5 -11 1 -14 24 -11 16 2 29 -1 29 -6 0 -13 -74 -11 -88 3 -18 18 -14 45 9 67
12 11 18 24 14 30 -5 9 31 31 50 31 9 0 -7 -29 -18 -33 -7 -2 -2 -3 9 -1 14 3
35 -9 58 -31 21 -19 42 -35 48 -35 5 0 8 -7 4 -15 -5 -14 10 -19 52 -18 9 1 6
-6 -7 -18 -11 -10 -30 -20 -43 -20 -19 -1 -20 -2 -4 -6 15 -4 16 -7 5 -14 -9
-6 -10 -9 -2 -9 6 0 14 4 17 9 3 5 15 7 26 4 18 -5 22 1 19 23 -1 12 26 24 43
18 19 -6 34 11 18 21 -13 8 -13 72 0 80 6 4 4 16 -6 31 -12 17 -20 21 -29 14
-8 -6 -15 -6 -23 2 -7 7 -12 8 -12 2 0 -5 5 -15 12 -22 6 -6 8 -15 4 -19 -4
-5 -13 -1 -19 7 -7 8 -25 21 -41 28 -24 11 -31 11 -37 0 -14 -21 -10 -35 4
-16 8 10 18 13 26 9 19 -12 -13 -33 -46 -29 -38 4 -42 32 -5 47 23 10 28 18
28 45 -1 23 -5 32 -13 29 -7 -3 -17 6 -22 18 l-10 24 0 -26z m27 -59 c-18 -28
-38 -33 -38 -11 0 19 12 29 38 30 10 1 10 -3 0 -19z m-93 -30 c-3 -5 -14 -10
-23 -10 -15 0 -15 2 -2 10 20 13 33 13 25 0z m-155 -9 c0 -6 -8 -16 -18 -23
-10 -7 -24 -22 -30 -33 -10 -19 -11 -19 -9 5 2 32 57 81 57 51z m5 -43 c-4
-13 -14 -29 -23 -35 -12 -10 -13 -17 -4 -38 9 -20 9 -25 -2 -25 -8 0 -17 12
-21 27 -5 21 -2 32 15 45 12 10 19 18 15 18 -4 0 -2 7 5 15 18 21 22 19 15 -7z
m312 15 c-4 -3 0 -14 9 -24 8 -9 16 -26 17 -38 1 -11 7 -21 14 -21 11 0 11 5
3 20 -8 16 -8 20 3 20 9 0 14 -10 13 -27 -1 -23 -5 -27 -31 -28 -28 0 -30 3
-36 45 -3 25 -7 37 -7 28 -1 -9 -6 -19 -11 -22 -13 -8 0 37 13 46 14 10 22 10
13 1z m-134 -60 c-5 -12 -3 -14 7 -8 9 5 11 4 6 -3 -12 -19 -36 -14 -36 8 0
11 7 20 15 20 9 0 12 -6 8 -17z"/>
<path d="M2805 1160 c3 -5 11 -10 16 -10 6 0 7 5 4 10 -3 6 -11 10 -16 10 -6
0 -7 -4 -4 -10z"/>
<path d="M2570 1152 c0 -6 -10 -8 -22 -5 -22 4 -22 4 -5 -11 11 -8 25 -12 33
-9 16 6 18 19 4 28 -5 3 -10 2 -10 -3z"/>
<path d="M1231 1134 c0 -11 3 -14 6 -6 3 7 2 16 -1 19 -3 4 -6 -2 -5 -13z"/>
<path d="M1501 1134 c0 -11 3 -14 6 -6 3 7 2 16 -1 19 -3 4 -6 -2 -5 -13z"/>
<path d="M2765 1141 c-18 -7 -17 -8 7 -14 14 -4 33 -10 42 -13 9 -3 16 -1 16
5 0 6 -7 11 -15 11 -8 0 -15 5 -15 10 0 11 -7 12 -35 1z"/>
<path d="M1340 1119 c-6 -11 -10 -25 -8 -30 2 -5 8 4 15 21 13 34 9 40 -7 9z"/>
<path d="M2510 1130 c0 -5 5 -10 11 -10 5 0 7 5 4 10 -3 6 -8 10 -11 10 -2 0
-4 -4 -4 -10z"/>
<path d="M720 1120 c0 -9 14 -14 33 -11 4 0 7 -3 7 -9 0 -5 -6 -10 -14 -10 -8
0 -18 -5 -22 -12 -5 -8 0 -9 15 -5 18 4 20 3 10 -9 -7 -8 -7 -14 -1 -14 11 0
35 60 27 69 -11 10 -55 12 -55 1z"/>
<path d="M787 1109 c-4 -16 -3 -18 9 -8 7 6 11 15 8 20 -8 13 -11 11 -17 -12z"/>
<path d="M915 1120 c3 -5 8 -10 11 -10 2 0 4 5 4 10 0 6 -5 10 -11 10 -5 0 -7
-4 -4 -10z"/>
<path d="M2675 1110 c0 -8 4 -21 9 -28 4 -7 2 -12 -6 -12 -9 0 -9 -3 2 -10 8
-5 18 -10 22 -10 8 0 4 27 -5 36 -7 7 12 28 33 36 8 3 -1 5 -21 5 -26 -1 -35
-5 -34 -17z"/>
<path d="M1357 1100 c-3 -12 0 -20 8 -20 8 0 11 8 8 20 -3 11 -7 20 -8 20 -1
0 -5 -9 -8 -20z"/>
<path d="M1418 1098 c-10 -12 -18 -26 -18 -30 0 -4 -7 -5 -15 -2 -8 4 -15 1
-15 -5 0 -6 6 -11 14 -11 13 0 13 -4 1 -27 -8 -15 -12 -37 -9 -49 6 -22 -18
-40 -37 -28 -5 3 -9 0 -9 -5 0 -15 23 -14 45 3 12 8 16 20 12 35 -5 21 7 29
18 11 4 -6 11 -8 16 -4 6 3 3 12 -8 21 -13 10 -15 16 -5 19 6 3 12 16 12 28 0
12 5 27 11 33 6 6 10 16 8 22 -2 6 -12 1 -21 -11z"/>
<path d="M1751 1100 c0 -8 4 -24 9 -35 5 -13 9 -14 9 -5 0 8 -4 24 -9 35 -5
13 -9 14 -9 5z"/>
<path d="M2715 1100 c-7 -12 30 -35 52 -32 15 2 23 -3 28 -18 4 -12 9 -19 12
-16 3 3 -2 17 -12 32 -15 24 -16 26 -1 21 10 -4 16 -1 16 8 0 11 -12 14 -46
13 -25 -2 -47 -5 -49 -8z"/>
<path d="M950 1073 c0 -14 -71 -48 -99 -48 -20 0 -27 -6 -29 -25 -3 -23 -3
-24 10 -6 14 18 15 18 33 0 17 -17 18 -17 12 -1 -5 12 -1 17 13 17 11 0 20 4
20 8 0 5 16 14 35 22 20 8 34 18 32 24 -4 13 -27 20 -27 9z"/>
<path d="M1964 1067 c-6 -6 -8 -34 -6 -64 4 -53 -3 -64 -26 -41 -7 7 -12 8
-12 2 0 -16 41 -37 52 -26 10 10 18 142 9 142 -3 -1 -11 -6 -17 -13z"/>
<path d="M792 1033 c-18 -32 -16 -51 4 -31 9 8 14 24 12 34 -4 18 -5 17 -16
-3z"/>
<path d="M1932 1020 c0 -14 2 -19 5 -12 2 6 2 18 0 25 -3 6 -5 1 -5 -13z"/>
<path d="M1585 1020 c-3 -5 -1 -10 4 -10 6 0 11 5 11 10 0 6 -2 10 -4 10 -3 0
-8 -4 -11 -10z"/>
<path d="M980 1000 c0 -5 5 -10 11 -10 5 0 7 5 4 10 -3 6 -8 10 -11 10 -2 0
-4 -4 -4 -10z"/>
<path d="M1305 990 c-30 -8 -30 -8 8 -9 23 -1 36 3 32 9 -3 6 -7 9 -8 9 -1 -1
-15 -5 -32 -9z"/>
<path d="M1918 983 c7 -3 16 -2 19 1 4 3 -2 6 -13 5 -11 0 -14 -3 -6 -6z"/>
<path d="M759 944 c-9 -19 -12 -34 -7 -34 5 0 11 6 14 14 3 8 12 12 20 9 8 -3
14 0 14 6 0 6 -4 11 -9 11 -5 0 -11 6 -13 14 -2 7 -10 -2 -19 -20z"/>
<path d="M791 977 c-1 -5 9 -21 21 -35 13 -17 19 -20 15 -9 -4 10 -7 23 -7 28
0 6 -4 8 -9 5 -5 -4 -12 0 -14 6 -3 7 -6 9 -6 5z"/>
<path d="M1427 971 c-17 -6 -17 -8 -3 -20 13 -11 17 -11 22 3 8 21 4 25 -19
17z"/>
<path d="M2216 955 c-25 -21 -39 -25 -98 -25 -39 0 -68 -4 -68 -10 0 -5 5 -10
11 -10 8 0 8 -4 1 -13 -7 -8 -7 -18 -2 -27 8 -12 10 -11 11 5 0 20 0 20 10 0
8 -16 9 -14 5 11 -4 27 -2 30 17 28 12 -1 25 -3 30 -3 4 -1 7 -13 8 -28 l1
-28 7 25 c4 14 14 25 23 25 8 0 22 5 29 12 16 13 49 -5 49 -26 0 -6 4 -11 9
-11 13 0 20 62 9 83 -12 23 -18 22 -52 -8z m44 -10 c11 -13 8 -15 -15 -15 -23
0 -26 2 -15 15 7 8 14 15 15 15 1 0 8 -7 15 -15z"/>
<path d="M895 960 c3 -5 8 -10 11 -10 2 0 4 5 4 10 0 6 -5 10 -11 10 -5 0 -7
-4 -4 -10z"/>
<path d="M847 946 c-4 -10 -5 -21 -2 -24 9 -9 17 6 13 25 -3 17 -4 17 -11 -1z"/>
<path d="M1603 931 c0 -11 5 -17 9 -15 4 3 6 -20 4 -50 -3 -31 -1 -56 5 -56 9
0 10 6 11 68 0 41 -9 72 -22 72 -5 0 -8 -9 -7 -19z"/>
<path d="M1470 930 c0 -5 5 -10 10 -10 6 0 10 5 10 10 0 6 -4 10 -10 10 -5 0
-10 -4 -10 -10z"/>
<path d="M1515 930 c-3 -4 7 -11 21 -14 35 -9 39 -4 8 11 -13 6 -26 8 -29 3z"/>
<path d="M1262 905 c0 -16 2 -22 5 -12 2 9 2 23 0 30 -3 6 -5 -1 -5 -18z"/>
<path d="M1398 923 c6 -2 12 -23 13 -46 1 -34 2 -37 8 -17 10 36 1 70 -18 69
-10 0 -11 -2 -3 -6z"/>
<path d="M2622 918 c-12 -12 -17 -38 -6 -38 13 0 32 28 25 38 -5 9 -10 9 -19
0z"/>
<path d="M1955 909 c-19 -9 -19 -9 2 -5 12 2 27 -2 34 -10 13 -16 29 -10 29
12 0 16 -34 18 -65 3z"/>
<path d="M2031 889 c-1 -21 5 -42 14 -49 8 -7 15 -21 15 -32 0 -15 -6 -19 -27
-18 -37 3 -93 -10 -93 -21 0 -5 -7 -9 -15 -9 -8 0 -15 -8 -16 -17 0 -14 -2
-13 -9 5 -14 32 -15 28 -12 -28 4 -47 22 -73 22 -30 0 14 5 18 18 13 15 -6 15
-4 4 9 -11 14 -10 20 7 37 25 25 31 26 31 6 0 -22 41 -18 71 8 34 29 42 53 24
71 -8 8 -19 32 -24 53 l-9 38 -1 -36z m-1 -117 c0 -4 -9 -8 -20 -9 -11 -1 -20
2 -20 8 0 5 9 9 20 9 11 0 20 -4 20 -8z"/>
<path d="M1887 903 c-4 -3 -2 -12 4 -20 6 -7 8 -13 4 -13 -4 0 -2 -7 5 -15 7
-8 9 -15 4 -15 -10 0 28 -29 39 -30 5 0 6 4 3 8 -3 5 10 15 29 22 36 14 46 30
20 30 -8 0 -15 -4 -15 -8 0 -10 -50 -35 -57 -29 -2 3 8 14 23 26 15 12 25 24
22 26 -3 3 -18 -5 -33 -17 l-28 -22 5 22 c6 21 -13 48 -25 35z"/>
<path d="M2110 873 c0 -21 3 -24 9 -14 5 8 7 20 4 28 -8 21 -13 15 -13 -14z"/>
<path d="M2181 881 l-24 -18 26 -7 c29 -7 87 -63 87 -84 0 -10 -5 -10 -21 -2
-11 7 -23 9 -27 6 -3 -3 0 -6 6 -6 26 0 10 -28 -20 -34 -41 -8 -45 -3 -17 25
20 20 20 22 4 31 -9 6 -32 8 -51 5 -29 -5 -34 -2 -43 21 l-10 27 2 -30 c1 -16
6 -33 12 -37 6 -5 5 -11 -5 -17 -8 -6 -12 -13 -9 -16 9 -8 40 6 34 15 -3 5 -1
11 5 15 5 3 10 1 10 -5 0 -6 9 -20 19 -32 20 -20 41 -21 84 -3 14 6 17 2 16
-26 -1 -19 -3 -26 -6 -16 -2 9 -9 17 -14 17 -6 0 -8 -4 -4 -9 3 -6 -3 -15 -12
-21 -17 -11 -17 -11 0 -6 14 5 17 2 12 -13 -3 -11 -1 -22 5 -26 5 -3 10 2 10
11 0 13 3 15 11 7 7 -7 10 -35 7 -72 -2 -34 -1 -61 4 -61 4 0 7 51 7 113 0 61
0 117 2 122 7 22 -13 85 -26 85 -21 0 -65 22 -65 32 0 5 6 8 13 7 23 -3 37 1
37 11 0 16 -33 11 -59 -9z m-14 -111 c-1 -12 -5 -16 -10 -11 -5 5 -6 14 -3 20
11 16 15 13 13 -9z"/>
<path d="M1052 855 c-13 -19 -22 -40 -19 -47 3 -8 9 -2 16 15 6 15 15 27 21
27 14 0 13 -23 -2 -38 -10 -10 -10 -15 2 -22 21 -13 31 -2 26 28 -2 15 -5 37
-5 50 -1 31 -12 28 -39 -13z"/>
<path d="M2734 855 c-4 -14 -4 -28 -1 -31 3 -3 -3 -14 -14 -25 -12 -12 -19
-33 -19 -58 0 -22 -5 -43 -11 -46 -7 -5 -4 -15 7 -32 9 -14 12 -28 7 -32 -5
-3 -9 -33 -9 -67 1 -51 3 -58 14 -45 10 13 10 11 1 -14 -6 -16 -13 -48 -15
-70 -3 -22 -9 -57 -14 -77 -4 -22 -4 -38 1 -38 5 0 9 7 9 15 0 8 4 15 9 15 6
0 8 17 5 38 -3 27 -2 32 5 17 8 -19 9 -19 12 4 4 23 5 24 19 6 9 -11 10 -16 3
-11 -15 9 -17 -12 -3 -34 7 -11 10 -11 10 -2 0 7 5 10 10 7 17 -10 12 -48 -5
-41 -20 7 -19 1 2 -20 13 -13 14 -19 5 -22 -7 -2 -10 -8 -6 -13 9 -15 -13 -10
-26 6 -11 13 -10 14 4 9 20 -8 21 3 1 23 -10 9 -13 24 -10 37 4 13 -3 7 -17
-14 -37 -57 -77 -81 -63 -37 3 12 11 40 16 62 5 22 12 47 15 56 3 10 -2 19
-12 23 -13 5 -14 3 -7 -6 14 -18 -2 -70 -27 -93 -11 -10 -20 -13 -20 -7 0 7 6
12 13 12 9 0 9 2 -1 9 -7 4 -15 22 -17 39 l-4 32 21 -20 c12 -11 24 -18 27
-15 2 3 -3 11 -12 18 -10 6 -19 22 -22 35 -4 22 -1 23 31 19 19 -3 37 -1 40 4
3 5 -7 9 -23 10 l-28 0 25 11 25 11 -25 7 c-14 3 -27 3 -30 -1 -3 -4 -17 -11
-33 -14 -26 -7 -27 -9 -21 -59 4 -28 11 -54 17 -57 6 -4 7 -24 3 -47 -3 -23
-2 -43 3 -46 5 -3 7 -16 4 -29 -4 -22 -4 -22 14 -2 21 23 74 29 86 9 4 -8 16
-14 26 -14 14 0 21 -10 25 -35 5 -22 11 -33 18 -29 6 4 8 3 5 -3 -3 -5 -20 -8
-37 -5 -36 5 -39 -5 -5 -18 39 -15 30 -30 -17 -30 -32 0 -39 3 -28 10 8 5 10
10 4 10 -6 0 -19 -9 -29 -20 -10 -12 -25 -18 -34 -15 -8 3 -18 0 -23 -7 -6
-10 -8 -10 -8 -1 0 8 -10 11 -29 7 l-28 -6 4 64 c2 34 8 81 13 103 17 76 19
104 9 111 -6 3 -9 17 -6 30 3 16 0 24 -10 24 -11 0 -13 -10 -8 -47 4 -27 9
-56 12 -66 3 -12 0 -18 -9 -16 -32 4 -59 -2 -53 -12 4 -6 -2 -5 -13 2 -19 12
-20 39 0 39 5 0 6 6 1 13 -4 6 -8 17 -9 22 0 6 -2 15 -2 22 -1 6 -10 10 -19 8
-10 -2 -22 -4 -26 -4 -4 -1 -3 -10 3 -21 7 -14 8 -42 2 -87 -5 -37 -7 -75 -5
-84 3 -9 0 -20 -6 -23 -6 -4 -11 -18 -11 -31 0 -13 -7 -28 -16 -33 -11 -6 -13
-12 -6 -16 6 -3 13 -2 17 4 10 17 121 12 135 -5 16 -19 117 -18 124 0 3 8 35
13 96 14 125 3 129 5 85 51 -32 32 -35 42 -34 86 1 35 -7 64 -27 104 -20 41
-29 78 -35 148 -4 51 -12 98 -16 105 -10 15 -11 177 0 170 7 -4 11 18 9 50 -1
10 5 20 13 23 8 4 12 10 9 15 -10 17 -24 9 -30 -16z m6 -405 c0 -5 -5 -10 -11
-10 -5 0 -7 5 -4 10 3 6 8 10 11 10 2 0 4 -4 4 -10z m50 -172 c0 -18 -2 -20
-9 -8 -6 8 -7 18 -5 22 9 14 14 9 14 -14z m-252 -53 c0 -30 -4 -55 -9 -55 -6
0 -8 10 -4 23 5 18 4 19 -5 7 -8 -12 -9 -9 -4 11 3 15 1 30 -5 33 -7 4 -11 -1
-11 -13 0 -10 -3 -27 -7 -37 -5 -12 -3 -15 6 -9 10 5 11 2 6 -14 -4 -14 -3
-21 5 -19 7 2 15 -4 17 -12 3 -9 1 -11 -4 -5 -11 14 -33 17 -33 5 0 -5 -5 -10
-11 -10 -5 0 -8 4 -5 8 2 4 -6 16 -18 27 -20 17 -21 24 -13 55 18 66 18 67 28
41 l9 -24 23 25 c12 14 25 24 28 22 4 -2 7 -28 7 -59z m259 3 c-3 -8 -6 -5 -6
6 -1 11 2 17 5 13 3 -3 4 -12 1 -19z m-20 -20 c-3 -8 -6 -5 -6 6 -1 11 2 17 5
13 3 -3 4 -12 1 -19z m38 -70 c3 -7 -1 -4 -9 6 -9 11 -16 29 -15 40 1 17 2 16
9 -6 4 -14 11 -32 15 -40z m-371 7 c-4 -8 -9 -15 -13 -15 -4 0 -8 7 -8 15 0 8
6 15 13 15 8 0 11 -6 8 -15z"/>
<path d="M1137 851 c-4 -17 -3 -21 5 -13 5 5 8 16 6 23 -3 8 -7 3 -11 -10z"/>
<path d="M2245 860 c-3 -5 1 -10 9 -10 9 0 16 5 16 10 0 6 -4 10 -9 10 -6 0
-13 -4 -16 -10z"/>
<path d="M2356 831 c4 -18 0 -46 -9 -68 -12 -30 -14 -77 -12 -228 3 -232 1
-216 22 -208 30 12 53 37 52 58 0 11 -3 14 -6 8 -2 -7 -11 -13 -18 -13 -7 0
-16 -8 -18 -17 -3 -10 -5 16 -6 57 0 64 2 72 13 58 7 -10 16 -15 19 -11 4 3 7
-3 7 -15 0 -13 6 -22 15 -22 8 0 15 -4 15 -8 0 -14 25 -10 39 5 11 12 10 14
-2 11 -15 -3 -67 45 -67 62 0 5 -12 13 -26 16 -19 5 -22 9 -12 15 11 7 11 9
-1 9 -9 0 -12 9 -9 30 3 17 1 30 -4 30 -5 0 -7 8 -4 18 4 10 7 39 8 65 2 32 6
43 13 37 7 -6 16 -5 23 2 17 17 15 33 -3 18 -12 -10 -16 -9 -21 4 -3 9 -1 23
6 30 14 18 9 78 -7 84 -9 2 -11 -5 -7 -27z"/>
<path d="M716 836 c3 -8 2 -22 -4 -31 -10 -19 6 -105 20 -105 11 0 6 33 -6 41
-4 4 -5 21 -1 38 5 23 12 31 28 31 22 1 22 1 -2 20 -27 24 -43 26 -35 6z"/>
<path d="M2165 841 c-3 -5 -1 -12 5 -16 5 -3 10 1 10 9 0 18 -6 21 -15 7z"/>
<path d="M2564 835 c-3 -8 -4 -20 -1 -27 3 -7 6 -3 6 9 1 12 7 24 14 26 9 4 9
6 -1 6 -7 1 -15 -6 -18 -14z"/>
<path d="M2016 826 c3 -9 11 -16 16 -16 13 0 5 23 -10 28 -7 2 -10 -2 -6 -12z"/>
<path d="M2120 825 c7 -9 15 -13 17 -11 7 7 -7 26 -19 26 -6 0 -6 -6 2 -15z"/>
<path d="M1470 810 c0 -5 7 -10 15 -10 8 0 15 5 15 10 0 6 -7 10 -15 10 -8 0
-15 -4 -15 -10z"/>
<path d="M1590 805 c10 -12 10 -15 -4 -15 -9 0 -16 5 -16 10 0 22 -20 8 -47
-32 -33 -50 -57 -107 -67 -160 -11 -63 9 -50 24 15 l15 62 3 -54 c2 -30 -2
-59 -7 -64 -15 -15 -14 -34 3 -34 16 0 30 84 19 112 -4 11 -2 16 4 12 11 -7
11 22 0 40 -4 6 -1 25 6 43 12 27 15 29 27 16 7 -9 17 -16 23 -16 5 0 2 9 -8
20 -24 27 -11 38 17 14 12 -10 18 -14 15 -7 -4 6 -2 13 4 15 12 4 1 38 -13 38
-6 0 -5 -6 2 -15z"/>
<path d="M1978 813 c7 -3 16 -2 19 1 4 3 -2 6 -13 5 -11 0 -14 -3 -6 -6z"/>
<path d="M2449 799 c12 -12 25 -18 28 -15 4 3 -2 13 -13 21 -29 22 -41 18 -15
-6z"/>
<path d="M2670 810 c-13 -8 -12 -10 3 -10 9 0 17 5 17 10 0 12 -1 12 -20 0z"/>
<path d="M794 796 c11 -9 28 -16 38 -16 10 0 18 -5 18 -11 0 -6 6 -9 13 -6 15
6 17 -44 2 -56 -6 -6 -3 -7 7 -4 9 3 23 -2 32 -12 19 -21 24 -117 8 -133 -14
-14 -16 -28 -4 -28 4 0 13 14 20 30 17 38 48 56 68 39 17 -14 18 -10 1 30
l-13 30 -18 -29 c-25 -43 -40 -38 -32 10 6 36 3 44 -24 70 -24 23 -29 35 -24
55 3 14 2 25 -2 24 -21 -4 -28 2 -14 11 13 8 12 10 -2 10 -10 0 -18 -5 -18
-11 0 -6 -9 -8 -22 -3 -51 16 -53 16 -34 0z"/>
<path d="M1398 790 c-7 -24 -3 -38 8 -28 3 4 4 17 2 30 l-3 23 -7 -25z"/>
<path d="M1895 800 c-3 -5 1 -10 9 -10 9 0 16 5 16 10 0 6 -4 10 -9 10 -6 0
-13 -4 -16 -10z"/>
<path d="M937 780 c-4 -14 -11 -18 -24 -14 -15 5 -15 4 -3 -5 8 -6 24 -10 35
-10 11 0 15 3 9 5 -7 3 -10 14 -7 24 3 11 3 20 0 20 -2 0 -7 -9 -10 -20z"/>
<path d="M1938 793 c7 -3 16 -2 19 1 4 3 -2 6 -13 5 -11 0 -14 -3 -6 -6z"/>
<path d="M1011 777 c-1 -10 -12 -22 -25 -27 -29 -11 -43 -47 -26 -64 10 -8 11
-6 5 11 -5 19 -3 22 11 16 11 -4 15 -3 11 4 -9 14 38 44 56 37 8 -3 18 -1 22
5 4 7 -4 11 -19 11 -13 0 -27 6 -29 13 -3 7 -6 5 -6 -6z"/>
<path d="M730 771 c0 -6 13 -11 29 -11 16 0 32 -6 34 -12 3 -8 6 -6 6 5 1 9
-5 17 -11 17 -7 0 -23 3 -35 6 -14 4 -23 2 -23 -5z"/>
<path d="M1258 773 c7 -3 16 -2 19 1 4 3 -2 6 -13 5 -11 0 -14 -3 -6 -6z"/>
<path d="M1325 767 c-12 -12 -7 -87 6 -87 5 0 9 18 9 39 0 22 5 41 12 43 8 3
7 6 -3 10 -7 3 -19 1 -24 -5z"/>
<path d="M1430 760 c-9 -6 -10 -10 -3 -10 6 0 15 5 18 10 8 12 4 12 -15 0z"/>
<path d="M140 756 c0 -2 7 -7 16 -10 8 -3 12 -2 9 4 -6 10 -25 14 -25 6z"/>
<path d="M685 718 c3 -24 11 -65 17 -93 10 -43 12 -46 19 -26 5 12 5 30 0 39
-5 9 -12 41 -16 70 -4 28 -11 52 -17 52 -6 0 -7 -17 -3 -42z"/>
<path d="M818 748 c17 -17 15 -31 -2 -25 -10 4 -13 1 -10 -8 4 -9 -3 -15 -19
-17 -18 -2 -23 -7 -18 -21 6 -16 11 -14 46 16 35 30 38 36 26 51 -7 9 -18 16
-24 16 -7 0 -7 -4 1 -12z"/>
<path d="M1082 733 c-6 -15 -11 -21 -11 -12 -1 9 -10 19 -22 22 -17 5 -18 3
-8 -9 13 -16 14 -16 -23 -32 -32 -13 -39 -37 -9 -27 14 4 23 -1 31 -16 10 -17
14 -19 21 -8 5 8 9 10 10 4 0 -5 7 15 14 45 15 60 13 77 -3 33z m-12 -43 c0
-5 -9 -10 -20 -10 -11 0 -20 5 -20 10 0 6 9 10 20 10 11 0 20 -4 20 -10z"/>
<path d="M2042 726 c-16 -19 -34 -32 -38 -28 -4 4 -4 1 0 -5 4 -8 2 -13 -5
-13 -7 0 -9 -3 -6 -6 4 -4 13 -2 20 4 8 7 18 8 22 4 5 -4 5 -2 2 4 -4 7 0 15
9 18 24 9 36 7 29 -4 -4 -6 -11 -7 -17 -4 -7 4 -8 2 -4 -4 4 -7 -8 -21 -28
-34 -20 -13 -36 -27 -36 -31 0 -11 43 3 52 17 3 6 16 22 27 35 25 28 27 41 6
41 -18 0 -20 17 -2 23 6 2 9 7 6 11 -4 4 -20 -9 -37 -28z"/>
<path d="M1285 709 c4 -21 3 -29 -3 -21 -15 21 -34 -11 -27 -45 5 -21 4 -24
-4 -13 -8 12 -11 8 -12 -20 -1 -19 -3 -42 -4 -50 -1 -8 -3 -28 -4 -43 0 -16
-4 -26 -8 -24 -5 3 -9 -6 -9 -19 -4 -51 13 -20 35 66 14 55 20 102 16 118 -5
20 -3 24 5 16 20 -20 24 -119 6 -158 -9 -19 -16 -41 -16 -49 0 -8 -7 -17 -15
-21 -8 -3 -15 -13 -15 -22 0 -13 3 -14 14 -5 8 7 27 14 42 17 35 6 44 14 17
14 -16 0 -19 5 -16 23 3 13 14 29 25 36 17 10 23 10 38 -4 23 -21 54 -17 39 5
-8 11 -12 12 -15 3 -9 -20 -63 43 -68 79 -3 18 -4 57 -3 87 1 38 -2 56 -12 59
-10 3 -12 -3 -6 -29z"/>
<path d="M1455 730 c3 -5 8 -10 11 -10 2 0 4 5 4 10 0 6 -5 10 -11 10 -5 0 -7
-4 -4 -10z"/>
<path d="M2107 733 c-4 -3 -7 -11 -7 -17 0 -6 5 -5 12 2 6 6 9 14 7 17 -3 3
-9 2 -12 -2z"/>
<path d="M243 720 c-18 -4 -40 -13 -48 -20 -9 -7 -18 -10 -21 -7 -7 7 -54 -46
-54 -61 0 -5 9 -12 21 -15 16 -4 18 -3 9 8 -7 8 -7 15 -1 19 5 3 12 0 14 -6 4
-8 6 -7 6 4 1 9 -5 19 -11 21 -8 3 -6 6 5 6 10 1 29 9 44 18 14 10 33 18 42
20 9 1 34 6 56 12 l40 9 -35 0 c-19 0 -50 -4 -67 -8z"/>
<path d="M355 721 c-7 -12 22 -41 41 -41 17 0 68 -106 59 -121 -10 -16 -43
-10 -48 9 -4 16 -5 16 -6 -1 -1 -23 41 -40 52 -21 4 8 15 14 22 14 17 0 20 16
4 26 -9 5 -48 84 -49 99 0 3 -9 14 -20 25 -21 21 -45 26 -55 11z"/>
<path d="M1960 710 c13 -11 25 -18 28 -15 8 8 -19 35 -36 35 -11 0 -9 -5 8
-20z"/>
<path d="M1578 708 c10 -13 10 -17 0 -20 -8 -3 -9 -6 -1 -11 18 -12 23 21 5
35 -15 11 -16 11 -4 -4z"/>
<path d="M305 701 c-3 -5 -1 -12 4 -15 5 -3 11 1 15 9 6 16 -9 21 -19 6z"/>
<path d="M1640 695 c0 -8 5 -15 10 -15 6 0 10 7 10 15 0 8 -4 15 -10 15 -5 0
-10 -7 -10 -15z"/>
<path d="M2190 700 c0 -5 5 -10 10 -10 6 0 10 5 10 10 0 6 -4 10 -10 10 -5 0
-10 -4 -10 -10z"/>
<path d="M1870 700 c-11 -45 -6 -85 11 -75 5 3 6 -1 3 -9 -3 -9 -11 -13 -18
-9 -8 5 -8 3 1 -8 6 -8 21 -37 32 -64 34 -85 23 11 -15 130 -7 22 -14 38 -14
35z"/>
<path d="M2120 665 c18 -19 37 -32 41 -30 4 3 10 -1 12 -7 4 -10 6 -10 6 0 1
6 10 12 21 12 11 0 20 5 20 11 0 6 -11 8 -27 5 -21 -5 -35 0 -57 19 -43 37
-55 30 -16 -10z"/>
<path d="M2407 694 c-6 -6 16 -34 27 -34 3 0 6 9 6 20 0 19 -20 27 -33 14z"/>
<path d="M2506 691 c-3 -5 4 -11 16 -14 29 -8 32 -4 8 11 -10 6 -21 8 -24 3z"/>
<path d="M270 668 c0 -19 2 -20 10 -8 13 19 13 30 0 30 -5 0 -10 -10 -10 -22z"/>
<path d="M455 670 c10 -11 26 -22 37 -26 15 -4 17 -9 8 -19 -7 -8 -9 -19 -5
-25 5 -7 12 -5 21 7 22 29 16 41 -28 63 -52 25 -56 25 -33 0z"/>
<path d="M830 671 c-7 -11 -16 -18 -20 -16 -3 2 -12 0 -20 -5 -11 -7 -11 -11
2 -24 14 -14 16 -13 21 4 9 34 27 23 20 -12 -4 -21 -3 -29 5 -24 6 4 9 13 5
21 -9 26 13 16 25 -10 16 -35 15 -40 -5 -24 -15 12 -16 12 -10 -4 4 -10 7 -23
7 -29 0 -6 9 -3 20 7 l20 18 -20 34 c-11 19 -17 39 -14 45 4 6 9 5 15 -3 4 -7
11 -10 16 -6 4 5 1 12 -6 16 -8 5 -10 15 -7 22 4 8 -1 4 -12 -8 -25 -28 -35
-29 -27 -3 8 25 3 25 -15 1z"/>
<path d="M1756 682 c-3 -5 1 -9 9 -9 8 0 12 4 9 9 -3 4 -7 8 -9 8 -2 0 -6 -4
-9 -8z"/>
<path d="M1913 665 c-8 -21 -3 -23 35 -18 30 5 31 7 15 19 -24 18 -42 17 -50
-1z"/>
<path d="M2376 665 c-9 -26 -7 -32 5 -12 6 10 9 21 6 23 -2 3 -7 -2 -11 -11z"/>
<path d="M338 663 c6 -2 12 -11 12 -20 0 -10 -7 -13 -22 -9 -13 4 -7 -2 12
-11 19 -10 38 -22 42 -27 12 -17 48 -17 48 0 0 8 -4 13 -9 10 -8 -6 -26 21
-23 35 1 4 -8 4 -20 1 -13 -3 -19 -1 -15 5 6 10 -15 24 -31 22 -4 0 -1 -3 6
-6z"/>
<path d="M1320 657 c0 -25 12 -56 24 -60 8 -3 10 6 8 28 -4 31 -32 60 -32 32z"/>
<path d="M2073 638 c-1 -38 -1 -38 38 -38 21 0 39 4 39 10 0 5 -7 7 -15 4 -11
-5 -13 -2 -9 10 3 9 1 16 -5 16 -6 0 -11 -5 -11 -11 0 -5 -4 -8 -10 -4 -5 3
-7 13 -4 23 5 13 4 14 -4 3 -8 -11 -11 -10 -14 5 -3 10 -5 2 -5 -18z"/>
<path d="M220 650 c0 -5 5 -10 11 -10 5 0 7 -6 3 -12 -5 -9 -2 -9 9 1 23 18
21 31 -3 31 -11 0 -20 -4 -20 -10z"/>
<path d="M740 646 c0 -9 7 -16 16 -16 9 0 14 5 12 12 -6 18 -28 21 -28 4z"/>
<path d="M2440 635 c0 -8 5 -15 10 -15 6 0 10 7 10 15 0 8 -4 15 -10 15 -5 0
-10 -7 -10 -15z"/>
<path d="M2636 633 c-6 -14 -5 -15 5 -6 7 7 10 15 7 18 -3 3 -9 -2 -12 -12z"/>
<path d="M1552 620 c0 -14 2 -19 5 -12 2 6 2 18 0 25 -3 6 -5 1 -5 -13z"/>
<path d="M2526 631 c-4 -7 -5 -15 -2 -18 9 -9 19 4 14 18 -4 11 -6 11 -12 0z"/>
<path d="M270 619 c0 -5 5 -7 10 -4 6 3 10 8 10 11 0 2 -4 4 -10 4 -5 0 -10
-5 -10 -11z"/>
<path d="M1038 602 c-14 -16 -34 -33 -46 -36 -22 -7 -32 -46 -12 -46 6 0 10 4
10 10 0 5 14 16 30 25 28 15 30 14 30 -4 0 -34 -10 -49 -31 -44 -11 3 -19 0
-19 -6 0 -7 -5 -9 -12 -5 -6 4 -8 3 -5 -4 4 -5 16 -8 27 -5 28 7 24 -8 -7 -31
-14 -11 -23 -15 -20 -9 4 6 -1 13 -11 15 -21 6 -77 -16 -78 -31 -1 -6 -2 -15
-3 -21 0 -5 -7 -10 -15 -10 -8 0 -16 -15 -20 -37 -4 -21 -9 -45 -12 -54 -2 -9
5 -26 16 -39 l20 -23 2 24 c0 13 0 43 -1 65 -1 35 3 44 25 59 19 12 32 15 48
8 37 -16 68 -1 82 40 13 37 36 179 30 185 -2 1 -15 -10 -28 -26z m-8 -156 c0
-3 -4 -8 -10 -11 -5 -3 -10 -1 -10 4 0 6 5 11 10 11 6 0 10 -2 10 -4z m-55
-15 c3 -5 0 -13 -6 -17 -7 -4 -9 -3 -5 4 3 5 0 13 -6 15 -9 4 -10 6 -1 6 6 1
14 -3 18 -8z"/>
<path d="M1948 623 c7 -3 16 -2 19 1 4 3 -2 6 -13 5 -11 0 -14 -3 -6 -6z"/>
<path d="M80 596 c-11 -21 -10 -28 9 -55 12 -17 29 -31 37 -31 13 0 15 -13 12
-75 -2 -46 1 -75 7 -75 6 0 4 -4 -3 -9 -8 -4 -12 -23 -10 -45 2 -29 6 -36 19
-33 9 2 21 -4 28 -15 6 -10 16 -16 21 -13 6 4 -3 20 -20 36 -16 17 -29 38 -29
47 1 16 2 16 6 1 3 -11 11 -15 24 -12 10 3 19 0 19 -6 0 -5 7 -8 15 -5 8 4 15
1 15 -6 0 -6 4 -9 9 -5 5 3 12 -4 16 -15 4 -11 11 -18 16 -15 5 4 9 -1 9 -9 0
-10 6 -13 15 -10 16 6 21 26 6 21 -5 -1 -9 3 -9 8 -1 6 7 9 16 8 9 -1 12 0 5
3 -7 3 -10 13 -7 22 5 15 4 15 -6 -1 -6 -9 -16 -14 -22 -11 -7 4 -8 2 -4 -4 4
-7 3 -12 -3 -12 -5 0 -13 9 -16 20 -4 12 -15 20 -28 20 -12 0 -33 10 -47 21
l-25 20 25 -6 c18 -5 21 -4 11 4 -19 13 -22 51 -4 44 8 -3 12 -12 9 -19 -3 -8
0 -11 9 -8 9 4 19 -4 26 -19 13 -28 39 -39 60 -26 11 7 11 9 1 9 -7 0 -18 4
-25 10 -61 49 -71 59 -65 66 4 4 14 1 23 -6 10 -8 15 -9 15 -1 0 6 7 11 16 11
14 0 14 -3 4 -15 -10 -12 -9 -15 5 -15 17 0 17 11 0 53 -6 15 -4 16 21 7 l29
-10 -24 20 c-27 23 -22 50 10 50 17 0 20 -4 16 -21 -3 -12 -3 -18 0 -15 7 7
33 -13 33 -25 0 -5 -8 -6 -17 -2 -23 8 -14 -1 16 -17 21 -11 23 -10 18 4 -4
10 -3 14 2 11 20 -12 21 15 1 35 -11 11 -20 17 -20 13 0 -5 -4 -1 -9 7 -6 8
-9 32 -9 53 0 26 3 35 9 26 5 -8 9 -9 9 -3 0 20 -24 32 -67 31 -34 0 -40 -3
-35 -16 5 -13 3 -14 -9 -4 -12 10 -15 8 -15 -8 0 -15 5 -19 19 -15 18 4 18 3
1 -22 -17 -26 -17 -27 2 -12 10 8 25 21 32 28 7 6 17 12 22 12 5 0 7 8 3 18
-5 14 -4 15 8 4 12 -11 11 -15 -3 -26 -10 -7 -18 -18 -18 -25 0 -6 -6 -11 -14
-11 -8 0 -24 -19 -35 -42 -15 -30 -16 -37 -5 -23 15 18 16 18 10 2 -3 -10 -6
-24 -6 -32 0 -13 -46 -15 -66 -3 -6 4 -17 32 -24 63 -9 39 -18 54 -28 53 -11
-2 -16 6 -16 25 0 15 4 26 9 25 6 -2 9 -8 7 -14 -1 -7 4 -14 12 -17 10 -4 12
0 8 16 -10 42 -42 49 -62 13z m240 -61 c0 -8 -4 -15 -10 -15 -5 0 -10 7 -10
15 0 8 5 15 10 15 6 0 10 -7 10 -15z"/>
<path d="M175 600 c3 -5 -1 -10 -9 -10 -9 0 -16 -4 -16 -10 0 -5 5 -9 11 -7 6
1 14 -4 16 -11 3 -8 -1 -10 -11 -6 -9 3 -16 1 -16 -5 0 -6 4 -11 9 -11 5 0 9
-12 9 -26 0 -29 21 -74 35 -74 6 0 6 5 0 13 -13 16 -15 115 -2 122 17 11 9 35
-12 35 -11 0 -17 -4 -14 -10z"/>
<path d="M753 598 c-6 -7 -13 -22 -17 -33 -6 -16 -9 -17 -17 -5 -8 12 -9 11
-7 -5 4 -22 38 -34 38 -13 0 8 12 13 30 13 31 0 43 -15 54 -67 6 -26 36 -41
36 -18 0 6 -4 10 -9 10 -5 0 -12 21 -16 46 -5 36 -12 49 -38 65 -38 22 -42 23
-54 7z"/>
<path d="M1923 596 c9 -7 17 -18 17 -25 0 -6 7 -11 15 -11 8 0 15 3 15 6 0 10
-24 30 -45 37 -19 7 -19 6 -2 -7z"/>
<path d="M2640 599 c0 -5 5 -7 10 -4 6 3 10 8 10 11 0 2 -4 4 -10 4 -5 0 -10
-5 -10 -11z"/>
<path d="M2395 590 c4 -6 11 -8 16 -5 14 9 11 15 -7 15 -8 0 -12 -5 -9 -10z"/>
<path d="M2443 589 c-23 -23 -14 -36 35 -52 26 -9 39 -16 30 -16 -10 -1 -18
-5 -18 -11 0 -14 11 -12 34 5 17 13 16 15 -22 30 -26 11 -42 24 -44 36 -2 16
-5 18 -15 8z"/>
<path d="M1550 566 c0 -14 5 -26 10 -26 6 0 10 9 10 19 0 11 -4 23 -10 26 -6
4 -10 -5 -10 -19z"/>
<path d="M2153 565 c-8 -9 -9 -16 -3 -20 6 -3 13 1 16 10 9 21 2 26 -13 10z"/>
<path d="M2525 571 c-49 -11 -8 -19 65 -13 53 5 60 7 35 13 -37 8 -62 8 -100
0z"/>
<path d="M350 550 c0 -5 5 -10 11 -10 5 0 7 5 4 10 -3 6 -8 10 -11 10 -2 0 -4
-4 -4 -10z"/>
<path d="M1985 550 c-3 -5 -1 -10 4 -10 6 0 11 5 11 10 0 6 -2 10 -4 10 -3 0
-8 -4 -11 -10z"/>
<path d="M2080 549 c0 -5 5 -7 10 -4 6 3 10 8 10 11 0 2 -4 4 -10 4 -5 0 -10
-5 -10 -11z"/>
<path d="M465 504 c3 -43 15 -76 15 -41 0 28 20 30 45 3 13 -14 21 -26 17 -26
-4 0 1 -6 10 -14 18 -13 43 -67 30 -65 -18 3 -32 -2 -32 -12 0 -5 5 -7 10 -4
6 3 10 1 10 -4 0 -6 9 -3 19 6 16 13 17 20 8 42 -15 35 -118 161 -131 161 -2
0 -2 -21 -1 -46z"/>
<path d="M936 534 c-4 -10 -2 -13 7 -9 6 4 4 0 -5 -8 -10 -8 -15 -17 -11 -21
4 -4 1 -11 -7 -16 -10 -7 -11 -10 -2 -10 6 0 21 9 32 20 16 16 18 25 10 40
-13 24 -16 25 -24 4z"/>
<path d="M390 530 c0 -5 10 -10 23 -10 18 0 19 2 7 10 -19 13 -30 13 -30 0z"/>
<path d="M1453 528 c-23 -30 -24 -41 -2 -21 12 12 20 25 17 28 -3 3 -10 0 -15
-7z"/>
<path d="M2618 533 c7 -3 16 -2 19 1 4 3 -2 6 -13 5 -11 0 -14 -3 -6 -6z"/>
<path d="M1531 474 c-14 -72 -14 -107 0 -99 6 4 8 14 4 23 -3 8 -1 40 6 70 6
29 9 56 6 58 -2 2 -9 -21 -16 -52z"/>
<path d="M760 504 c0 -8 9 -14 20 -14 11 0 20 4 20 9 0 5 -9 11 -20 14 -13 3
-20 0 -20 -9z"/>
<path d="M2050 516 c0 -2 7 -6 15 -10 8 -3 15 -1 15 4 0 6 -7 10 -15 10 -8 0
-15 -2 -15 -4z"/>
<path d="M2566 511 c-4 -5 3 -7 14 -4 23 6 26 13 6 13 -8 0 -17 -4 -20 -9z"/>
<path d="M420 500 c0 -5 5 -10 11 -10 5 0 7 5 4 10 -3 6 -8 10 -11 10 -2 0 -4
-4 -4 -10z"/>
<path d="M884 491 c0 -9 -4 -27 -8 -41 -7 -24 -7 -24 6 -5 23 31 28 53 15 58
-7 3 -13 -3 -13 -12z"/>
<path d="M400 479 c0 -11 4 -18 10 -14 5 3 7 12 3 20 -7 21 -13 19 -13 -6z"/>
<path d="M712 488 c6 -16 36 -34 44 -26 8 9 -20 38 -36 38 -6 0 -10 -5 -8 -12z"/>
<path d="M1091 484 c0 -11 3 -14 6 -6 3 7 2 16 -1 19 -3 4 -6 -2 -5 -13z"/>
<path d="M1316 493 c-12 -12 -6 -33 9 -33 8 0 15 6 15 14 0 17 -14 28 -24 19z"/>
<path d="M430 445 c-12 -20 -20 -39 -16 -42 3 -3 9 3 13 13 5 10 16 20 26 20
15 2 17 -3 13 -30 -5 -29 -5 -30 4 -5 8 19 7 33 -4 53 l-14 27 -22 -36z"/>
<path d="M2512 460 c0 -14 2 -19 5 -12 2 6 2 18 0 25 -3 6 -5 1 -5 -13z"/>
<path d="M1433 455 c2 -23 -10 -45 -24 -45 -5 0 -9 7 -9 15 0 8 -4 15 -10 15
-13 0 -13 -7 6 -60 22 -61 27 -183 9 -176 -9 3 -12 0 -9 -8 3 -8 -4 -16 -17
-19 -16 -4 -20 -11 -15 -24 5 -16 4 -16 -9 1 -8 11 -15 24 -15 29 0 5 -8 3
-17 -4 -15 -12 -16 -12 -10 4 5 14 3 16 -12 8 -14 -8 -22 -5 -37 12 -21 24
-29 81 -10 70 6 -3 5 0 -2 8 -11 12 -14 12 -21 0 -5 -7 -14 -10 -20 -7 -17 11
-14 2 19 -59 25 -46 28 -60 20 -78 -8 -16 -5 -14 10 6 l22 27 19 -22 c17 -21
18 -21 19 -4 0 18 1 18 18 3 11 -10 36 -17 60 -17 31 0 42 -4 42 -15 0 -12 16
-15 82 -15 80 0 81 0 63 20 -19 21 -30 27 -21 11 8 -12 -47 -22 -58 -10 -6 6
-3 9 8 9 9 0 14 5 11 10 -3 5 -1 10 4 10 6 0 11 4 11 10 0 14 -33 -1 -48 -22
-7 -10 -18 -18 -23 -18 -15 0 -39 26 -32 34 4 3 2 6 -3 6 -5 0 -10 9 -10 20 0
13 5 19 13 16 7 -3 13 2 13 10 0 8 -4 12 -10 9 -14 -8 -13 38 1 52 8 8 8 13 0
17 -19 12 -12 54 11 70 12 9 17 16 11 16 -6 0 -18 -7 -27 -15 -18 -18 -31 -2
-14 17 25 26 40 61 30 67 -5 3 -12 13 -15 21 -5 10 -6 9 -4 -5z"/>
<path d="M492 435 c3 -14 1 -25 -3 -25 -5 0 -9 -6 -9 -14 0 -7 -12 -21 -26
-31 -14 -9 -23 -19 -20 -23 4 -3 12 0 18 6 7 7 20 12 30 12 10 0 17 3 16 8 -1
4 3 17 10 30 14 24 8 62 -10 62 -6 0 -8 -11 -6 -25z"/>
<path d="M1350 450 c-13 -8 -13 -10 2 -10 9 0 20 5 23 10 8 13 -5 13 -25 0z"/>
<path d="M1637 454 c-7 -8 13 -54 25 -54 17 0 7 -32 -12 -37 -14 -4 -20 -13
-19 -32 0 -25 0 -25 9 -3 10 24 20 28 36 12 7 -7 10 7 10 45 -1 37 -5 55 -13
55 -7 0 -13 5 -13 10 0 11 -13 13 -23 4z"/>
<path d="M2631 444 c0 -11 3 -14 6 -6 3 7 2 16 -1 19 -3 4 -6 -2 -5 -13z"/>
<path d="M91 434 c0 -11 3 -14 6 -6 3 7 2 16 -1 19 -3 4 -6 -2 -5 -13z"/>
<path d="M756 438 c-9 -5 -21 -6 -26 -3 -14 9 -12 -9 2 -23 18 -18 31 -15 24
6 -5 14 -3 13 10 -3 8 -11 20 -19 26 -17 5 1 17 -3 25 -10 18 -14 35 6 31 37
-2 16 -11 20 -39 21 -20 1 -44 -3 -53 -8z m54 -12 c0 -3 -4 -8 -10 -11 -5 -3
-10 -1 -10 4 0 6 5 11 10 11 6 0 10 -2 10 -4z"/>
<path d="M2065 440 c-3 -5 -1 -10 4 -10 6 0 11 5 11 10 0 6 -2 10 -4 10 -3 0
-8 -4 -11 -10z"/>
<path d="M1476 423 c-3 -10 -9 -25 -12 -33 -3 -8 2 -6 11 5 17 19 17 19 11
-16 -6 -31 -3 -37 14 -42 32 -8 35 -8 35 6 0 6 -7 12 -15 12 -8 0 -17 15 -22
39 -10 48 -14 52 -22 29z"/>
<path d="M1791 383 c0 -34 4 -65 9 -68 6 -3 10 -18 10 -33 1 -35 18 -57 52
-65 14 -4 33 -10 42 -13 12 -4 16 0 16 15 0 12 4 21 8 21 13 0 33 50 26 62 -4
6 -13 -4 -20 -21 -15 -37 -61 -62 -74 -42 -4 8 -13 10 -19 7 -7 -5 -11 3 -11
21 0 16 -4 33 -9 39 -6 5 -14 38 -19 74 l-10 65 -1 -62z"/>
<path d="M1940 429 c0 -5 5 -7 10 -4 6 3 10 8 10 11 0 2 -4 4 -10 4 -5 0 -10
-5 -10 -11z"/>
<path d="M2380 426 c0 -9 5 -16 10 -16 6 0 10 4 10 9 0 6 -4 13 -10 16 -5 3
-10 -1 -10 -9z"/>
<path d="M290 415 c0 -8 7 -15 16 -15 14 0 14 3 4 15 -7 8 -14 15 -16 15 -2 0
-4 -7 -4 -15z"/>
<path d="M2220 419 c0 -6 -9 -8 -20 -4 -15 5 -18 3 -14 -9 4 -11 1 -16 -10
-16 -9 0 -16 -2 -16 -4 0 -2 -3 -12 -7 -22 -5 -15 -1 -14 28 6 55 39 72 60 49
60 -5 0 -10 -5 -10 -11z"/>
<path d="M432 398 c-14 -14 -16 -38 -3 -38 10 0 26 39 19 46 -2 2 -10 -2 -16
-8z"/>
<path d="M2000 400 c0 -5 -7 -10 -15 -10 -8 0 -15 -4 -15 -9 0 -5 13 -4 29 2
17 6 28 15 25 19 -7 11 -24 10 -24 -2z"/>
<path d="M360 386 c0 -7 9 -16 20 -19 24 -6 26 -39 5 -61 -9 -9 -11 -17 -5
-21 5 -3 10 -1 10 4 0 6 11 11 24 11 14 0 28 5 31 10 3 6 -3 10 -14 10 -15 0
-21 6 -21 23 0 12 -9 30 -20 40 -24 21 -30 21 -30 3z"/>
<path d="M1601 384 c0 -11 3 -14 6 -6 3 7 2 16 -1 19 -3 4 -6 -2 -5 -13z"/>
<path d="M2058 393 c7 -3 16 -2 19 1 4 3 -2 6 -13 5 -11 0 -14 -3 -6 -6z"/>
<path d="M2106 359 c13 -31 14 -46 6 -65 -10 -19 -9 -24 3 -24 8 0 15 9 15 20
0 11 5 20 10 20 6 0 10 -8 10 -17 0 -15 2 -15 9 -4 5 8 16 11 25 8 24 -9 54
24 62 67 6 33 5 38 -7 27 -8 -6 -23 -19 -34 -27 -20 -15 -19 -15 3 -9 21 6 22
5 10 -14 -7 -12 -21 -21 -31 -21 -26 0 -77 41 -77 62 0 10 -4 18 -10 18 -5 0
-3 -18 6 -41z"/>
<path d="M325 380 c-3 -5 1 -10 10 -10 9 0 13 5 10 10 -3 6 -8 10 -10 10 -2 0
-7 -4 -10 -10z"/>
<path d="M995 369 c-11 -12 -14 -19 -7 -15 7 4 12 2 12 -6 0 -8 5 -6 11 5 17
29 5 40 -16 16z"/>
<path d="M292 365 c-11 -12 -10 -15 3 -15 8 0 15 7 15 15 0 18 -2 18 -18 0z"/>
<path d="M1189 363 c5 -10 12 -26 15 -35 6 -20 26 -24 26 -5 -1 13 -34 57 -44
57 -3 0 -2 -8 3 -17z"/>
<path d="M1287 363 c-9 -2 -15 -8 -12 -13 6 -10 45 -1 45 11 0 9 -4 10 -33 2z"/>
<path d="M1540 366 c0 -2 7 -7 16 -10 8 -3 12 -2 9 4 -6 10 -25 14 -25 6z"/>
<path d="M1826 357 c3 -10 9 -15 12 -12 3 3 0 11 -7 18 -10 9 -11 8 -5 -6z"/>
<path d="M1868 363 c7 -3 16 -2 19 1 4 3 -2 6 -13 5 -11 0 -14 -3 -6 -6z"/>
<path d="M1921 354 c0 -11 3 -14 6 -6 3 7 2 16 -1 19 -3 4 -6 -2 -5 -13z"/>
<path d="M683 334 c-13 -21 -13 -27 5 -67 25 -56 48 -74 39 -30 -3 16 -7 33
-8 39 -1 5 -1 22 0 38 1 20 5 27 16 23 8 -4 17 -2 20 2 2 5 -9 11 -26 13 -24
4 -34 0 -46 -18z m17 -29 c0 -8 -2 -15 -4 -15 -2 0 -6 7 -10 15 -3 8 -1 15 4
15 6 0 10 -7 10 -15z"/>
<path d="M905 350 c-3 -5 -1 -10 4 -10 6 0 11 5 11 10 0 6 -2 10 -4 10 -3 0
-8 -4 -11 -10z"/>
<path d="M950 350 c0 -5 5 -10 11 -10 5 0 7 5 4 10 -3 6 -8 10 -11 10 -2 0 -4
-4 -4 -10z"/>
<path d="M1066 344 c-8 -21 -8 -21 14 -27 25 -6 37 11 14 20 -16 6 -16 7 2 14
18 7 18 8 -2 8 -12 1 -25 -6 -28 -15z"/>
<path d="M337 336 c-17 -13 -14 -46 5 -46 5 0 6 -5 2 -12 -4 -7 -3 -8 4 -4 9
5 9 12 0 26 -9 14 -9 22 1 34 16 19 12 20 -12 2z"/>
<path d="M370 340 c0 -5 5 -10 10 -10 6 0 10 5 10 10 0 6 -4 10 -10 10 -5 0
-10 -4 -10 -10z"/>
<path d="M610 348 c0 -3 9 -26 19 -51 11 -24 17 -55 14 -70 -6 -29 13 -38 24
-11 8 21 -13 87 -37 116 -11 12 -19 20 -20 16z"/>
<path d="M1375 341 c-4 -8 -2 -16 5 -21 7 -4 10 -14 7 -22 -3 -8 -1 -21 4 -29
11 -18 11 37 0 65 -6 15 -10 16 -16 7z"/>
<path d="M777 333 c-12 -12 -7 -22 8 -17 8 4 15 10 15 15 0 11 -14 12 -23 2z"/>
<path d="M977 333 c-3 -5 1 -17 9 -28 14 -18 14 -18 14 2 0 23 -15 39 -23 26z"/>
<path d="M1255 320 c-8 -13 -1 -24 14 -19 6 3 7 10 2 18 -6 10 -10 10 -16 1z"/>
<path d="M1580 319 c0 -5 5 -7 10 -4 6 3 10 8 10 11 0 2 -4 4 -10 4 -5 0 -10
-5 -10 -11z"/>
<path d="M805 304 c-11 -11 -25 -14 -46 -10 -28 5 -29 4 -23 -22 8 -33 14 -41
14 -19 0 15 17 22 43 18 4 0 7 4 7 9 0 6 7 10 15 10 8 0 15 7 15 15 0 19 -5
19 -25 -1z"/>
<path d="M940 310 c-8 -5 -12 -11 -9 -14 2 -3 11 -1 19 4 8 5 12 11 9 14 -2 3
-11 1 -19 -4z"/>
<path d="M1019 304 c-9 -11 -9 -18 -2 -22 6 -4 13 -16 16 -27 4 -12 5 -10 3 8
-4 31 -1 33 21 11 10 -10 12 -18 6 -22 -11 -7 -36 -52 -30 -52 2 0 16 11 31
25 32 29 33 59 4 79 -28 20 -32 20 -49 0z"/>
<path d="M548 293 c-7 -25 -45 -32 -65 -12 -9 9 -10 7 -6 -10 3 -11 12 -22 19
-22 8 -1 20 -2 27 -3 17 -2 39 31 35 52 -3 14 -5 13 -10 -5z"/>
<path d="M1181 294 c0 -11 3 -14 6 -6 3 7 2 16 -1 19 -3 4 -6 -2 -5 -13z"/>
<path d="M2344 257 c1 -23 6 -43 12 -44 14 -4 13 59 -1 74 -10 9 -12 3 -11
-30z"/>
<path d="M442 276 c7 -8 15 -12 17 -11 5 6 -10 25 -20 25 -5 0 -4 -6 3 -14z"/>
<path d="M570 279 c0 -5 5 -7 10 -4 6 3 10 8 10 11 0 2 -4 4 -10 4 -5 0 -10
-5 -10 -11z"/>
<path d="M950 271 c0 -10 7 -18 15 -18 8 0 15 4 15 9 0 4 1 11 3 15 1 3 -6 7
-15 9 -11 1 -18 -4 -18 -15z"/>
<path d="M410 259 c0 -12 5 -19 12 -17 18 6 20 25 3 31 -10 5 -15 0 -15 -14z"/>
<path d="M220 261 c0 -5 5 -11 12 -13 7 -3 9 -11 3 -24 -7 -17 -8 -17 -12 -1
-3 9 -9 17 -14 17 -6 0 -7 -4 -4 -10 3 -5 -1 -10 -10 -10 -9 0 -13 5 -10 10 3
6 -1 10 -10 10 -10 0 -13 -5 -9 -12 4 -7 3 -8 -5 -4 -6 4 -9 11 -6 16 3 4 -2
11 -11 14 -24 9 -26 8 -22 -21 2 -16 -3 -33 -12 -40 -13 -11 -12 -12 8 -13 12
0 22 4 22 9 0 15 32 22 46 10 8 -6 14 -8 14 -3 0 5 7 1 15 -10 10 -13 11 -24
5 -36 -6 -12 -5 -17 5 -17 7 0 11 7 8 16 -4 14 -4 14 6 1 16 -23 13 -30 -11
-26 -13 2 -22 10 -22 19 2 18 -23 31 -32 16 -3 -5 0 -16 6 -24 7 -9 8 -15 2
-15 -17 0 -33 27 -25 45 4 13 3 16 -5 11 -7 -4 -12 -13 -12 -20 0 -8 -7 -20
-16 -27 -15 -12 -16 -11 -10 9 5 14 3 22 -4 22 -14 0 -25 -29 -14 -39 5 -5
134 -11 287 -14 299 -5 297 -6 256 47 -14 18 -27 25 -40 21 -10 -3 -28 -8 -40
-11 -18 -5 -19 -3 -10 14 6 11 7 22 3 26 -3 4 -1 10 5 14 6 4 -17 8 -52 9 -53
2 -64 -1 -68 -16 -3 -14 -13 -17 -43 -15 -22 1 -33 0 -26 -3 6 -2 12 -11 12
-18 0 -8 5 -17 12 -21 7 -4 8 -3 4 4 -4 7 -4 17 0 23 5 8 8 8 14 0 8 -14 40
-3 40 14 0 17 33 25 52 11 18 -13 12 -37 -8 -29 -8 3 -14 0 -14 -7 0 -6 5 -8
10 -5 6 3 10 -2 10 -12 1 -11 6 -5 15 15 8 17 19 32 25 32 6 0 4 -12 -6 -31
-8 -17 -11 -28 -5 -25 6 4 11 2 11 -4 0 -6 5 -8 10 -5 6 3 10 1 10 -6 0 -14
-72 -3 -81 13 -4 6 -8 5 -11 -3 -4 -11 -10 -10 -32 5 -16 10 -26 13 -22 8 11
-17 -13 -25 -75 -23 -54 1 -62 4 -88 34 -31 34 -33 51 -3 24 20 -18 57 -24 47
-7 -3 6 -15 10 -25 10 -20 0 -36 17 -25 28 3 3 10 0 15 -8 8 -12 10 -11 10 6
0 12 -11 29 -25 38 -14 9 -25 12 -25 7z m364 -117 c9 -22 -3 -32 -14 -14 -12
19 -12 30 -1 30 5 0 12 -7 15 -16z m42 1 c9 -8 11 -15 5 -15 -6 0 -14 -1 -18
-2 -3 -2 -7 5 -9 15 -3 21 3 22 22 2z"/>
<path d="M1170 254 c0 -8 5 -12 10 -9 6 3 10 10 10 16 0 5 -4 9 -10 9 -5 0
-10 -7 -10 -16z"/>
<path d="M1960 258 c0 -7 9 -24 20 -38 l20 -25 -11 33 c-12 34 -29 52 -29 30z"/>
<path d="M580 250 c0 -5 5 -10 11 -10 5 0 7 5 4 10 -3 6 -8 10 -11 10 -2 0 -4
-4 -4 -10z"/>
<path d="M627 253 c-4 -3 -7 -11 -7 -17 0 -6 5 -5 12 2 6 6 9 14 7 17 -3 3 -9
2 -12 -2z"/>
<path d="M765 250 c-3 -5 -1 -10 4 -10 6 0 11 5 11 10 0 6 -2 10 -4 10 -3 0
-8 -4 -11 -10z"/>
<path d="M1000 243 c0 -10 5 -25 10 -33 8 -12 10 -9 10 12 0 15 -4 30 -10 33
-5 3 -10 -2 -10 -12z"/>
<path d="M340 244 c0 -10 31 -36 37 -31 3 3 -2 13 -10 22 -16 15 -27 19 -27 9z"/>
<path d="M888 243 c-13 -3 -17 -12 -14 -34 2 -16 7 -33 11 -37 4 -4 6 3 3 15
-7 26 9 49 37 56 20 5 20 5 0 5 -11 0 -28 -2 -37 -5z"/>
<path d="M1365 240 c-3 -5 -1 -10 4 -10 6 0 11 5 11 10 0 6 -2 10 -4 10 -3 0
-8 -4 -11 -10z"/>
<path d="M2070 236 c0 -9 8 -12 25 -8 14 2 25 8 25 13 0 5 -11 9 -25 9 -14 0
-25 -6 -25 -14z"/>
<path d="M2638 243 c-2 -5 -5 -23 -7 -42 -2 -23 1 -31 9 -26 6 4 9 14 6 22 -3
8 -1 11 4 8 6 -3 10 -2 10 4 0 5 -5 13 -12 17 -8 5 -6 10 8 15 16 6 16 8 2 8
-9 1 -18 -2 -20 -6z"/>
<path d="M311 220 c-1 -23 15 -45 23 -31 4 6 3 11 -3 11 -5 0 -12 8 -14 18 -3
12 -5 13 -6 2z"/>
<path d="M845 218 c-2 -7 -6 -30 -10 -50 -6 -41 -20 -49 -30 -19 -12 40 -74
35 -75 -6 0 -7 -5 -13 -11 -13 -5 0 -7 5 -3 12 4 7 3 8 -5 4 -6 -4 -9 -12 -6
-17 4 -5 2 -9 -4 -9 -22 0 -23 24 -2 42 14 10 21 24 17 33 -15 41 -58 -7 -49
-58 3 -20 10 -34 15 -31 5 3 15 0 23 -6 18 -15 85 -9 106 10 9 8 26 23 37 32
17 14 20 23 13 40 -4 13 -6 29 -4 36 3 6 2 12 -1 12 -4 0 -8 -6 -11 -12z
m-155 -42 c0 -3 -4 -8 -10 -11 -5 -3 -10 -1 -10 4 0 6 5 11 10 11 6 0 10 -2
10 -4z m107 -41 c-3 -14 -27 -24 -62 -23 -29 0 -29 0 -5 7 17 5 24 14 23 28
-2 19 0 20 22 10 13 -7 23 -16 22 -22z"/>
<path d="M743 210 c3 -10 14 -14 31 -12 20 2 26 -1 20 -9 -4 -8 -3 -9 4 -5 12
7 17 36 6 36 -3 0 -15 -5 -26 -11 -16 -8 -23 -8 -30 2 -8 11 -9 11 -5 -1z"/>
<path d="M912 207 c-8 -10 -6 -13 9 -13 20 0 25 11 10 20 -5 3 -13 0 -19 -7z"/>
<path d="M1135 200 c-3 -6 1 -7 9 -4 18 7 21 14 7 14 -6 0 -13 -4 -16 -10z"/>
<path d="M1188 177 c-21 -24 -25 -34 -17 -50 9 -16 7 -18 -13 -15 -29 4 -36
37 -12 55 17 12 16 13 -14 11 -17 -1 -32 -8 -32 -14 0 -7 -4 -14 -9 -16 -5 -1
-11 -12 -13 -23 -3 -18 3 -20 70 -23 59 -2 72 0 72 13 0 8 -3 14 -7 14 -21 -3
-33 2 -33 16 0 8 6 15 14 15 11 0 31 40 23 46 -1 1 -14 -12 -29 -29z m-77 -50
c-8 -8 -11 -7 -11 4 0 20 13 34 18 19 3 -7 -1 -17 -7 -23z"/>
<path d="M1486 197 c3 -10 9 -15 12 -12 3 3 0 11 -7 18 -10 9 -11 8 -5 -6z"/>
<path d="M2088 201 c8 -4 13 -11 13 -15 -2 -20 13 -66 21 -66 6 0 7 8 3 18
-16 39 -17 54 -4 63 10 6 5 9 -16 9 -20 0 -26 -3 -17 -9z"/>
<path d="M2197 203 c-11 -10 -8 -35 3 -28 6 4 8 10 5 15 -3 4 1 11 7 13 7 3 8
6 2 6 -6 1 -14 -2 -17 -6z"/>
<path d="M2570 206 c0 -2 7 -7 16 -10 8 -3 12 -2 9 4 -6 10 -25 14 -25 6z"/>
<path d="M570 189 c0 -5 5 -7 10 -4 6 3 10 8 10 11 0 2 -4 4 -10 4 -5 0 -10
-5 -10 -11z"/>
<path d="M949 183 c-14 -2 -41 -17 -60 -33 -19 -17 -26 -27 -16 -24 12 4 17 2
15 -7 -2 -11 13 -15 63 -17 64 -3 66 -2 64 20 -1 13 -3 29 -4 36 -2 25 -20 11
-18 -15 2 -20 -3 -28 -18 -30 -20 -3 -20 -3 0 6 20 10 20 10 0 10 -11 1 -16 5
-10 9 9 6 21 54 13 51 -2 -1 -15 -4 -29 -6z m4 -25 c-4 -7 -6 -21 -4 -31 2
-14 -3 -18 -16 -15 -28 5 -29 45 -1 51 13 2 24 5 26 6 2 0 0 -5 -5 -11z"/>
<path d="M285 152 c8 -8 55 -11 55 -3 0 4 -13 8 -30 8 -16 0 -28 -2 -25 -5z"/>
<path d="M2340 130 c0 -5 5 -10 11 -10 5 0 7 5 4 10 -3 6 -8 10 -11 10 -2 0
-4 -4 -4 -10z"/>
<path d="M2018 113 c7 -3 16 -2 19 1 4 3 -2 6 -13 5 -11 0 -14 -3 -6 -6z"/>
<path d="M2071 98 c10 -18 9 -20 -5 -15 -9 4 -16 2 -16 -3 0 -12 1 -12 58 1
57 14 71 24 31 23 -16 0 -32 -4 -36 -7 -12 -13 -25 -7 -19 8 3 9 0 15 -10 15
-12 0 -13 -4 -3 -22z"/>
<path d="M2260 105 c0 -12 13 -15 56 -15 36 0 53 4 49 10 -4 6 -16 8 -27 4
-14 -4 -18 -2 -14 5 4 6 2 11 -3 11 -6 0 -11 -4 -11 -10 0 -5 -5 -10 -11 -10
-5 0 -7 5 -4 10 3 6 -3 10 -14 10 -12 0 -21 -7 -21 -15z"/>
<path d="M1980 100 c-18 -11 -13 -16 23 -25 22 -6 27 -4 26 11 0 11 -3 14 -6
7 -6 -18 -21 -16 -25 2 -2 10 -7 12 -18 5z"/>
<path d="M1056 65 c10 -8 23 -15 28 -15 6 0 1 7 -10 15 -10 8 -23 15 -28 15
-6 0 -1 -7 10 -15z"/>
<path d="M460 66 c0 -2 7 -7 16 -10 8 -3 12 -2 9 4 -6 10 -25 14 -25 6z"/>
<path d="M1113 57 c0 -7 9 -14 20 -14 11 -1 18 -1 16 0 -2 2 -11 8 -20 15 -12
9 -16 9 -16 -1z"/>
<path d="M2641 54 c0 -11 3 -14 6 -6 3 7 2 16 -1 19 -3 4 -6 -2 -5 -13z"/>
</g>
</svg>
