<?xml version="1.0" standalone="no"?>
<!DOCTYPE svg PUBLIC "-//W3C//DTD SVG 20010904//EN"
 "http://www.w3.org/TR/2001/REC-SVG-20010904/DTD/svg10.dtd">
<svg version="1.0" xmlns="http://www.w3.org/2000/svg"
 width="275.000000pt" height="183.000000pt" viewBox="0 0 275.000000 183.000000"
 preserveAspectRatio="xMidYMid meet">
<metadata>
Created by potrace 1.10, written by Peter Selinger 2001-2011
</metadata>
<g transform="translate(0.000000,183.000000) scale(0.100000,-0.100000)"
fill="#f0fff0" stroke="none">
<path d="M2314 1803 c-1 -13 1 -21 5 -16 3 4 10 10 14 14 4 3 2 11 -5 17 -10
8 -13 5 -14 -15z"/>
<path d="M2355 1821 c11 -5 26 -6 33 -4 7 3 10 0 7 -9 -4 -9 2 -14 17 -15 13
0 17 1 11 4 -7 3 -13 11 -13 19 0 10 -11 14 -37 13 -29 0 -33 -2 -18 -8z"/>
<path d="M2455 1822 c3 -3 0 -11 -6 -19 -9 -10 -6 -13 12 -14 18 -1 15 -4 -11
-9 -23 -5 -27 -8 -12 -9 12 0 22 -6 22 -11 0 -23 36 -49 58 -43 26 6 29 18 6
27 -22 8 -26 8 -19 -4 3 -5 1 -10 -4 -10 -12 0 -14 46 -3 70 11 24 50 23 58
-2 7 -22 28 -48 38 -48 3 0 1 11 -4 24 -5 13 -6 27 -3 30 4 3 -1 6 -10 6 -9 0
-17 4 -17 10 0 5 -25 9 -55 8 -30 -1 -53 -4 -50 -6z"/>
<path d="M2610 1823 c0 -7 4 -23 10 -37 8 -22 6 -28 -10 -38 -25 -16 -25 -26
1 -49 11 -10 18 -23 14 -28 -3 -6 -1 -11 4 -11 6 0 11 -4 11 -10 0 -5 -7 -10
-16 -10 -14 0 -14 -3 -4 -15 11 -13 7 -15 -26 -16 -32 0 -35 -2 -18 -9 12 -5
43 -12 69 -16 38 -5 47 -4 43 7 -3 8 -15 13 -28 11 -21 -3 -22 -1 -17 27 7 31
-9 81 -25 81 -14 0 -9 30 7 36 19 8 19 43 0 68 -8 11 -15 15 -15 9z"/>
<path d="M2690 1825 c0 -9 38 -43 43 -39 11 12 -7 44 -24 44 -11 0 -19 -2 -19
-5z"/>
<path d="M1876 1785 c-34 -17 -60 -37 -58 -44 1 -7 -2 -10 -8 -6 -6 4 -17 1
-25 -5 -26 -21 -103 -165 -111 -206 -4 -21 -13 -52 -19 -69 -7 -16 -16 -50
-20 -74 -6 -34 -4 -42 6 -39 8 3 13 12 11 22 -2 9 2 16 8 16 5 0 10 5 10 11 0
5 -4 7 -10 4 -15 -9 -11 17 5 39 8 11 15 34 15 50 0 17 5 38 10 46 6 10 7 -4
4 -40 -3 -30 -1 -74 4 -97 7 -32 6 -47 -4 -60 -10 -13 -13 -14 -14 -4 0 8 -2
12 -5 9 -8 -7 5 -38 16 -38 5 0 9 7 9 15 0 8 5 15 11 15 16 0 2 -68 -22 -107
-13 -20 -16 -34 -9 -38 5 -3 10 -17 10 -31 0 -14 4 -22 10 -19 6 3 10 19 10
35 0 16 7 55 15 86 8 31 12 62 8 68 -4 6 -6 23 -5 39 1 15 -4 38 -13 50 -15
22 -21 97 -7 97 4 0 7 10 8 23 2 44 24 117 35 117 5 0 9 6 9 14 0 7 10 13 23
12 16 -1 21 -7 19 -21 -4 -24 -32 -56 -42 -50 -14 9 -31 -45 -20 -63 10 -15
10 -14 6 3 -3 11 -1 27 4 35 5 8 10 11 10 6 0 -6 14 3 30 19 17 16 30 35 30
44 0 8 3 12 6 9 3 -3 17 5 31 18 14 13 29 21 34 18 5 -3 9 0 9 5 0 6 -5 11
-11 11 -8 0 -8 4 0 14 20 24 131 59 168 53 44 -7 33 10 -12 19 -23 4 -41 1
-57 -10 -25 -18 -42 -21 -33 -6 4 6 -1 7 -12 3 -20 -8 -93 -80 -93 -93 0 -18
-35 -21 -47 -4 -16 23 -17 36 0 33 19 -4 88 42 80 54 -4 6 0 8 10 4 8 -3 21 1
27 9 7 8 27 15 44 15 17 1 45 5 61 9 23 5 17 7 -29 7 -48 0 -71 -6 -120 -32z
m-86 -89 c0 -3 -4 -8 -10 -11 -5 -3 -10 -1 -10 4 0 6 5 11 10 11 6 0 10 -2 10
-4z"/>
<path d="M2076 1812 c-3 -5 0 -9 7 -10 7 -1 28 -4 47 -7 23 -4 30 -3 20 3 -24
15 -68 23 -74 14z"/>
<path d="M2241 1794 c0 -11 3 -14 6 -6 3 7 2 16 -1 19 -3 4 -6 -2 -5 -13z"/>
<path d="M2260 1772 c0 -5 9 -12 20 -15 12 -3 20 -14 20 -27 0 -11 5 -18 10
-15 16 10 11 42 -7 49 -10 3 -24 9 -30 12 -7 3 -13 1 -13 -4z"/>
<path d="M2332 1760 c0 -14 2 -19 5 -12 2 6 2 18 0 25 -3 6 -5 1 -5 -13z"/>
<path d="M2125 1754 c-11 -8 -30 -12 -45 -9 -14 3 -31 1 -38 -4 -8 -5 3 -7 30
-6 51 2 88 13 88 26 0 13 -12 11 -35 -7z"/>
<path d="M2697 1764 c-11 -11 -9 -21 6 -27 6 -2 19 3 27 11 13 14 12 15 -2 9
-9 -3 -18 -1 -20 4 -2 6 -7 7 -11 3z"/>
<path d="M2008 1753 c6 -2 18 -2 25 0 6 3 1 5 -13 5 -14 0 -19 -2 -12 -5z"/>
<path d="M2218 1743 c7 -3 16 -2 19 1 4 3 -2 6 -13 5 -11 0 -14 -3 -6 -6z"/>
<path d="M2371 1734 c0 -11 3 -14 6 -6 3 7 2 16 -1 19 -3 4 -6 -2 -5 -13z"/>
<path d="M2555 1730 c-3 -5 -1 -10 4 -10 6 0 11 5 11 10 0 6 -2 10 -4 10 -3 0
-8 -4 -11 -10z"/>
<path d="M1720 1719 c0 -5 5 -7 10 -4 6 3 10 8 10 11 0 2 -4 4 -10 4 -5 0 -10
-5 -10 -11z"/>
<path d="M1914 1718 c-9 -14 12 -16 36 -3 l25 13 -29 -1 c-15 -1 -30 -5 -32
-9z"/>
<path d="M2000 1719 c0 -5 5 -7 10 -4 6 3 10 8 10 11 0 2 -4 4 -10 4 -5 0 -10
-5 -10 -11z"/>
<path d="M2327 1723 c-4 -3 -7 -11 -7 -17 0 -6 5 -5 12 2 6 6 9 14 7 17 -3 3
-9 2 -12 -2z"/>
<path d="M2103 1707 c27 -7 45 -15 41 -19 -4 -5 -2 -8 4 -8 26 0 10 28 -19 34
-55 11 -76 5 -26 -7z"/>
<path d="M2267 1690 c-3 -11 -1 -20 4 -20 5 0 9 9 9 20 0 11 -2 20 -4 20 -2 0
-6 -9 -9 -20z"/>
<path d="M2517 1703 c-12 -12 -7 -22 8 -17 8 4 15 10 15 15 0 11 -14 12 -23 2z"/>
<path d="M1810 1690 c0 -5 5 -10 10 -10 6 0 10 5 10 10 0 6 -4 10 -10 10 -5 0
-10 -4 -10 -10z"/>
<path d="M2361 1688 c-1 -10 -6 -18 -12 -18 -20 0 -3 -24 22 -30 14 -4 23 -13
23 -23 -1 -9 2 -15 6 -12 13 8 20 -22 20 -81 0 -36 4 -53 11 -49 5 4 8 19 4
33 -3 15 -6 46 -7 69 -1 31 -8 50 -28 70 -15 16 -30 35 -33 43 -4 12 -6 11 -6
-2z"/>
<path d="M2380 1690 c0 -4 7 -10 15 -14 8 -3 15 -12 15 -21 0 -8 7 -15 16 -15
10 0 12 4 7 13 -7 11 -9 16 -12 35 -1 10 -41 13 -41 2z"/>
<path d="M2556 1685 c4 -8 7 -15 9 -15 1 0 8 7 15 15 10 13 9 15 -8 15 -15 0
-20 -5 -16 -15z"/>
<path d="M1913 1675 c0 -8 4 -12 9 -9 5 3 6 10 3 15 -9 13 -12 11 -12 -6z"/>
<path d="M2035 1683 c-49 -11 -85 -25 -85 -34 0 -5 14 -2 31 7 17 8 57 16 88
17 41 0 49 2 31 8 -29 8 -37 8 -65 2z"/>
<path d="M2300 1682 c0 -4 4 -13 9 -20 7 -11 9 -11 14 1 3 9 -1 18 -9 21 -8 3
-14 2 -14 -2z"/>
<path d="M2715 1673 c-3 -9 0 -21 6 -27 9 -8 10 -7 6 6 -4 11 0 18 11 20 16 3
16 4 0 10 -10 4 -19 1 -23 -9z"/>
<path d="M2220 1669 c0 -4 7 -9 15 -13 9 -3 15 0 15 8 0 7 -7 13 -15 13 -8 0
-15 -4 -15 -8z"/>
<path d="M2440 1676 c0 -2 13 -6 29 -8 17 -2 28 -1 25 4 -5 8 -54 12 -54 4z"/>
<path d="M2530 1672 c0 -5 9 -17 21 -28 21 -19 21 -19 8 9 -12 26 -29 37 -29
19z"/>
<path d="M1880 1655 c0 -8 -6 -12 -14 -9 -8 3 -16 -4 -20 -20 -4 -17 -11 -23
-21 -20 -10 4 -18 -3 -25 -21 -15 -39 -11 -55 5 -20 8 17 14 26 15 20 0 -5 12
4 25 20 16 19 25 24 25 15 0 -8 7 -2 15 14 18 34 18 36 5 36 -5 0 -10 -7 -10
-15z"/>
<path d="M1765 1639 c-4 -6 -5 -12 -2 -15 2 -3 7 2 10 11 7 17 1 20 -8 4z"/>
<path d="M2452 1598 c-1 -36 1 -48 8 -38 16 26 24 1 11 -36 -15 -42 -26 -159
-12 -129 5 11 10 40 10 65 1 25 6 52 11 60 5 8 10 10 10 4 0 -7 9 -14 20 -17
15 -4 20 -14 20 -41 0 -20 -4 -36 -10 -36 -5 0 -10 13 -10 29 0 51 -17 43 -23
-11 -4 -29 -4 -54 -2 -57 3 -2 5 6 5 18 0 21 1 21 17 5 16 -15 17 -15 24 2 5
16 8 13 11 -11 3 -16 3 -1 0 35 -4 52 -9 69 -28 85 -30 26 -30 38 -1 58 12 9
17 16 10 16 -6 1 -18 -5 -25 -12 -11 -11 -16 -12 -25 -1 -7 7 -8 14 -3 16 10
3 2 48 -9 48 -4 0 -8 -24 -9 -52z"/>
<path d="M2188 1623 c7 -3 16 -2 19 1 4 3 -2 6 -13 5 -11 0 -14 -3 -6 -6z"/>
<path d="M1902 1604 c-7 -8 -10 -14 -7 -14 3 0 -4 -10 -15 -22 -12 -13 -16
-24 -10 -26 5 -2 10 -12 10 -21 0 -10 7 -18 15 -18 8 0 15 7 15 14 0 8 -4 11
-10 8 -5 -3 -10 3 -10 14 0 11 4 23 10 26 15 9 31 43 23 48 -5 3 -14 -1 -21
-9z"/>
<path d="M2736 1605 c4 -8 8 -15 10 -15 2 0 4 7 4 15 0 8 -4 15 -10 15 -5 0
-7 -7 -4 -15z"/>
<path d="M1958 1594 c-16 -8 -28 -21 -28 -29 0 -8 -4 -15 -10 -15 -5 0 -7 -7
-4 -15 4 -8 10 -12 15 -9 5 3 6 11 3 17 -5 9 -4 9 5 1 8 -8 8 -18 0 -43 -6
-17 -9 -35 -5 -38 3 -3 7 0 9 8 2 8 10 30 17 49 6 19 13 44 14 55 2 11 13 22
27 26 20 6 20 7 4 8 -11 0 -32 -7 -47 -15z m12 -23 c0 -9 -20 -37 -20 -29 0 3
-2 13 -5 21 -4 8 0 14 10 14 8 0 15 -3 15 -6z"/>
<path d="M2145 1600 c4 -6 11 -8 16 -5 14 9 11 15 -7 15 -8 0 -12 -5 -9 -10z"/>
<path d="M2260 1600 c0 -5 5 -10 11 -10 5 0 7 5 4 10 -3 6 -8 10 -11 10 -2 0
-4 -4 -4 -10z"/>
<path d="M1852 1588 c-7 -7 -12 -16 -12 -21 0 -5 7 -1 16 8 9 9 14 18 12 20
-2 3 -10 -1 -16 -7z"/>
<path d="M2035 1590 c-16 -7 -17 -9 -3 -9 9 -1 20 4 23 9 7 11 7 11 -20 0z"/>
<path d="M1488 1583 c7 -3 16 -2 19 1 4 3 -2 6 -13 5 -11 0 -14 -3 -6 -6z"/>
<path d="M2210 1586 c0 -2 7 -6 15 -10 8 -3 15 -1 15 4 0 6 -7 10 -15 10 -8 0
-15 -2 -15 -4z"/>
<path d="M2385 1580 c3 -5 8 -10 11 -10 2 0 4 5 4 10 0 6 -5 10 -11 10 -5 0
-7 -4 -4 -10z"/>
<path d="M2002 1544 c-16 -11 -21 -22 -17 -35 4 -10 2 -19 -2 -19 -9 0 -43
-63 -43 -78 0 -4 10 7 21 23 18 25 20 27 16 7 -3 -12 -1 -20 4 -16 5 3 9 17 9
32 0 25 16 43 60 64 8 5 0 5 -17 2 -38 -6 -44 8 -10 24 12 6 17 11 12 11 -6 1
-21 -6 -33 -15z"/>
<path d="M2200 1551 c0 -5 9 -7 20 -4 11 3 20 7 20 9 0 2 -9 4 -20 4 -11 0
-20 -4 -20 -9z"/>
<path d="M2355 1550 c-3 -5 -1 -10 4 -10 6 0 11 5 11 10 0 6 -2 10 -4 10 -3 0
-8 -4 -11 -10z"/>
<path d="M1773 1528 c1 -14 4 -25 6 -22 2 2 10 -4 17 -14 12 -16 13 -16 19 0
4 10 11 15 16 12 5 -3 6 2 3 10 -4 11 -11 13 -23 7 -12 -7 -19 -4 -28 12 -11
21 -11 21 -10 -5z"/>
<path d="M2590 1540 c0 -5 5 -10 10 -10 6 0 10 5 10 10 0 6 -4 10 -10 10 -5 0
-10 -4 -10 -10z"/>
<path d="M2618 1532 c-8 -9 -6 -17 6 -30 17 -20 22 -37 7 -27 -5 3 -12 1 -16
-5 -4 -6 -10 -8 -14 -6 -15 9 -4 -37 11 -48 8 -6 17 -24 20 -41 6 -27 5 -28
-8 -11 -7 10 -15 23 -17 29 -5 15 -27 -1 -27 -19 0 -8 6 -14 14 -14 8 0 21 -7
29 -15 13 -13 16 -13 21 1 4 11 14 15 31 12 13 -3 22 -2 20 3 -3 4 1 10 7 13
9 3 6 11 -10 25 -17 15 -21 26 -16 45 4 16 2 26 -5 26 -6 0 -11 -6 -11 -14 0
-8 -7 -16 -15 -20 -17 -6 -21 9 -5 19 6 4 10 14 9 23 -3 33 1 41 23 44 12 2
23 9 26 16 5 16 -66 12 -80 -6z m46 -120 c3 -9 9 -23 12 -29 11 -24 -15 -13
-35 15 -18 26 -18 28 -1 29 10 1 21 -6 24 -15z"/>
<path d="M2320 1525 c0 -5 5 -17 10 -25 5 -8 10 -10 10 -5 0 6 -5 17 -10 25
-5 8 -10 11 -10 5z"/>
<path d="M2705 1517 c-6 -7 -9 -22 -5 -34 l5 -22 25 26 c24 25 24 26 3 21 -16
-4 -20 -2 -16 8 6 17 2 17 -12 1z"/>
<path d="M1440 1499 c0 -9 7 -20 16 -23 12 -5 15 -14 10 -37 -3 -19 -2 -28 4
-24 6 4 13 -1 16 -9 7 -17 34 -22 34 -7 0 5 -8 17 -17 27 -16 15 -16 17 1 29
9 7 26 10 37 8 17 -5 20 -2 17 13 -3 14 -11 18 -31 17 -15 -1 -27 2 -27 6 0 5
-13 11 -30 13 -23 4 -30 1 -30 -13z"/>
<path d="M1857 1485 c-3 -22 -9 -54 -12 -71 -5 -21 -3 -34 6 -39 15 -10 39 21
38 49 0 17 -2 16 -11 -6 -5 -16 -14 -28 -19 -28 -12 0 -12 4 7 43 13 26 14 41
7 63 l-10 29 -6 -40z"/>
<path d="M2088 1513 c7 -3 16 -2 19 1 4 3 -2 6 -13 5 -11 0 -14 -3 -6 -6z"/>
<path d="M2011 1450 c-19 -32 -38 -58 -44 -57 -5 1 -12 -5 -14 -13 -4 -13 -3
-13 6 0 9 13 11 13 11 0 0 -16 43 44 71 98 29 55 6 34 -30 -28z"/>
<path d="M2366 1479 c-9 -46 -8 -52 9 -35 8 8 12 22 9 30 -3 9 -1 16 5 16 6 0
11 5 11 10 0 25 -28 7 -34 -21z"/>
<path d="M2573 1498 c-3 -6 -1 -8 5 -4 6 3 13 2 17 -4 8 -12 25 -13 25 -1 0
13 -39 21 -47 9z"/>
<path d="M1607 1493 c-4 -3 -7 -17 -7 -30 0 -13 -4 -22 -9 -18 -5 3 -12 1 -16
-5 -4 -6 4 -9 20 -8 23 2 25 6 20 33 -2 16 -2 24 1 17 6 -13 24 -7 24 9 0 10
-23 12 -33 2z"/>
<path d="M1752 1470 c0 -14 2 -19 5 -12 2 6 2 18 0 25 -3 6 -5 1 -5 -13z"/>
<path d="M1908 1464 c0 -16 -2 -41 -2 -56 -1 -14 2 -24 7 -21 4 2 5 14 1 25
-4 13 -2 18 4 14 7 -4 8 6 5 26 -7 43 -13 48 -15 12z"/>
<path d="M2057 1459 c-10 -18 -15 -34 -13 -37 3 -2 11 7 17 21 7 15 16 24 20
21 5 -3 9 2 9 10 0 25 -13 19 -33 -15z"/>
<path d="M2109 1462 c-19 -21 -32 -42 -25 -42 8 0 56 46 56 54 0 11 -15 5 -31
-12z"/>
<path d="M2246 1445 c-3 -8 -1 -15 3 -15 5 0 11 7 15 15 3 8 1 15 -3 15 -5 0
-11 -7 -15 -15z"/>
<path d="M2397 1441 c-2 -10 -1 -25 4 -32 6 -10 9 -4 9 19 0 36 -5 42 -13 13z"/>
<path d="M2290 1440 c0 -5 5 -10 10 -10 6 0 10 5 10 10 0 6 -4 10 -10 10 -5 0
-10 -4 -10 -10z"/>
<path d="M2690 1440 c0 -5 4 -10 9 -10 5 0 11 -13 15 -30 3 -18 12 -30 21 -30
21 0 19 17 -2 23 -17 4 -17 5 0 6 9 0 17 8 17 17 0 10 -5 14 -15 10 -9 -3 -18
1 -21 9 -7 17 -24 20 -24 5z"/>
<path d="M1805 1416 c-1 -12 -4 -31 -9 -43 -6 -18 -4 -23 11 -23 15 0 18 8 18
43 0 43 -20 64 -20 23z"/>
<path d="M1200 1414 c0 -8 -4 -13 -9 -9 -5 3 -12 1 -16 -5 -7 -11 8 -12 43 -2
22 7 22 7 2 20 -17 10 -20 10 -20 -4z"/>
<path d="M1280 1421 c0 -5 -8 -12 -17 -14 -15 -4 -15 -5 -2 -6 9 0 22 6 29 14
9 10 9 15 1 15 -6 0 -11 -4 -11 -9z"/>
<path d="M1304 1399 c-6 -11 -6 -11 24 -14 12 -1 22 1 22 5 0 12 -39 19 -46 9z"/>
<path d="M1995 1371 c-24 -39 -25 -43 -10 -69 l15 -27 -5 40 c-4 32 -3 36 5
20 9 -18 10 -18 6 5 -3 14 1 32 11 42 9 10 14 21 10 24 -3 3 -17 -13 -32 -35z"/>
<path d="M2050 1400 c0 -5 5 -10 10 -10 6 0 10 5 10 10 0 6 -4 10 -10 10 -5 0
-10 -4 -10 -10z"/>
<path d="M1111 1383 c-16 -18 -8 -28 13 -16 8 4 12 13 8 20 -5 8 -11 7 -21 -4z"/>
<path d="M1929 1372 c-3 -20 -2 -29 4 -23 5 5 7 19 5 32 -3 20 -5 19 -9 -9z"/>
<path d="M2231 1384 c0 -11 3 -14 6 -6 3 7 2 16 -1 19 -3 4 -6 -2 -5 -13z"/>
<path d="M2147 1370 c-3 -11 -1 -20 4 -20 5 0 9 9 9 20 0 11 -2 20 -4 20 -2 0
-6 -9 -9 -20z"/>
<path d="M1370 1370 c0 -4 6 -11 13 -14 6 -3 -1 -3 -18 0 -24 4 -27 3 -13 -5
9 -6 25 -10 35 -9 37 3 52 -2 47 -16 -6 -15 20 -46 39 -46 23 -1 56 -38 89
-100 18 -35 39 -66 47 -68 10 -3 7 6 -7 26 -12 17 -35 55 -51 84 -50 97 -101
150 -146 154 -19 2 -35 -1 -35 -6z"/>
<path d="M2031 1366 c-7 -8 -8 -17 -3 -20 6 -3 12 3 15 14 6 24 4 25 -12 6z"/>
<path d="M2421 1364 c0 -11 3 -14 6 -6 3 7 2 16 -1 19 -3 4 -6 -2 -5 -13z"/>
<path d="M2500 1368 c0 -4 6 -8 13 -8 8 0 7 -3 -3 -9 -8 -6 -17 -8 -20 -7 -3
2 -12 -5 -22 -15 -15 -16 -15 -17 4 -22 14 -4 18 -2 14 9 -3 8 1 14 8 14 9 0
12 -7 9 -20 -3 -11 -9 -20 -14 -20 -5 0 -6 -7 -3 -15 5 -11 2 -13 -10 -9 -13
5 -15 0 -11 -27 4 -27 3 -30 -4 -14 -8 16 -10 17 -10 3 -1 -9 -7 -19 -13 -21
-10 -4 -9 -8 2 -16 8 -6 10 -11 4 -11 -6 0 -11 -13 -11 -30 0 -43 14 -37 28
13 6 23 21 65 34 92 29 62 38 122 19 122 -8 0 -14 -4 -14 -9z"/>
<path d="M1583 1362 c-9 -6 -6 -11 7 -20 21 -13 26 -6 12 15 -4 7 -13 9 -19 5z"/>
<path d="M1874 1355 c-18 -14 -18 -14 4 -8 12 3 22 9 22 14 0 12 -3 11 -26 -6z"/>
<path d="M1030 1350 c-11 -8 -7 -9 15 -4 37 8 45 14 19 14 -10 0 -26 -5 -34
-10z"/>
<path d="M1948 1328 c-10 -29 -12 -30 -25 -13 -14 20 -16 12 -5 -17 10 -24 30
-9 41 30 12 41 3 42 -11 0z"/>
<path d="M2042 1327 c-18 -18 -32 -37 -32 -42 0 -4 -7 -17 -17 -27 -9 -10 -11
-18 -5 -18 6 0 13 6 15 13 4 10 6 10 6 0 1 -20 15 -15 30 10 10 17 11 19 0 10
-29 -28 -31 -11 -2 20 25 27 49 67 40 67 -2 0 -17 -15 -35 -33z"/>
<path d="M2564 1342 c-6 -19 -15 -38 -45 -96 l-20 -38 20 -20 c22 -20 28 -9
12 21 -10 18 0 44 15 41 5 -1 10 4 13 11 2 7 -1 9 -9 4 -16 -10 29 55 49 71
11 9 10 12 -8 17 -15 4 -24 0 -27 -11z"/>
<path d="M986 1335 c4 -8 10 -15 15 -15 4 0 6 7 3 15 -4 8 -10 15 -15 15 -4 0
-6 -7 -3 -15z"/>
<path d="M1200 1339 c0 -5 5 -7 10 -4 6 3 10 8 10 11 0 2 -4 4 -10 4 -5 0 -10
-5 -10 -11z"/>
<path d="M1507 1333 c3 -8 17 -20 32 -28 15 -7 36 -30 46 -49 11 -20 23 -36
28 -36 9 0 -1 42 -13 50 -7 6 -24 42 -22 51 0 3 -17 10 -38 15 -31 9 -37 8
-33 -3z"/>
<path d="M2738 1325 c-3 -14 -1 -25 3 -25 5 0 9 11 9 25 0 14 -2 25 -4 25 -2
0 -6 -11 -8 -25z"/>
<path d="M1887 1333 c-4 -3 -7 -13 -7 -22 0 -9 -4 -22 -9 -30 -8 -12 -12 -12
-25 -2 -11 9 -16 10 -16 2 0 -6 4 -11 9 -11 11 0 -35 -86 -61 -114 -10 -11
-18 -25 -19 -30 -1 -6 -5 0 -9 14 l-8 25 -1 -27 c-1 -32 13 -37 28 -10 8 13
11 14 11 2 0 -9 6 -6 15 10 l15 25 -6 -27 c-3 -16 -2 -28 3 -28 6 0 9 15 8 33
-2 22 9 50 37 94 41 64 62 124 35 96z"/>
<path d="M1763 1275 c0 -49 1 -54 7 -27 4 19 5 46 0 60 -5 20 -7 10 -7 -33z"/>
<path d="M1821 1314 c0 -11 3 -14 6 -6 3 7 2 16 -1 19 -3 4 -6 -2 -5 -13z"/>
<path d="M1852 1310 c0 -14 2 -19 5 -12 2 6 2 18 0 25 -3 6 -5 1 -5 -13z"/>
<path d="M2399 1292 c-3 -20 -2 -29 4 -23 5 5 7 19 5 32 -3 20 -5 19 -9 -9z"/>
<path d="M915 1297 c-4 -10 -5 -21 -1 -24 10 -10 18 4 13 24 -4 17 -4 17 -12
0z"/>
<path d="M960 1296 c0 -17 45 -40 64 -32 6 2 5 5 -3 5 -8 1 -25 11 -38 23 -20
18 -23 19 -23 4z"/>
<path d="M1031 1294 c0 -11 3 -14 6 -6 3 7 2 16 -1 19 -3 4 -6 -2 -5 -13z"/>
<path d="M1647 1296 c-4 -10 -5 -21 -2 -24 9 -9 17 6 13 25 -3 17 -4 17 -11
-1z"/>
<path d="M2330 1285 c-9 -10 -9 -15 -1 -15 6 0 11 -7 11 -15 0 -8 5 -15 10
-15 6 0 10 14 10 30 0 33 -11 38 -30 15z"/>
<path d="M2660 1291 c0 -5 5 -13 10 -16 6 -3 10 -2 10 4 0 5 -4 13 -10 16 -5
3 -10 2 -10 -4z"/>
<path d="M1662 1270 c-13 -21 -9 -40 8 -40 5 0 8 14 8 30 -1 17 -2 30 -2 30
-1 0 -7 -9 -14 -20z"/>
<path d="M1796 1265 c-9 -35 -1 -43 14 -15 8 14 8 26 2 32 -6 6 -12 0 -16 -17z"/>
<path d="M1410 1273 c8 -3 19 -11 23 -17 6 -7 7 -6 4 4 -2 8 -12 16 -23 17
-13 2 -15 1 -4 -4z"/>
<path d="M1923 1258 c-24 -27 -12 -30 20 -4 19 15 23 23 13 23 -9 0 -23 -9
-33 -19z"/>
<path d="M2178 1273 c-9 -2 -20 -12 -23 -22 -5 -18 -38 -57 -97 -118 -17 -18
-26 -33 -20 -33 5 0 30 22 55 50 l45 50 26 -27 c19 -18 26 -21 26 -10 0 8 -7
17 -15 21 -23 8 -18 44 10 71 24 25 24 26 -7 18z"/>
<path d="M802 1250 c0 -14 2 -19 5 -12 2 6 2 18 0 25 -3 6 -5 1 -5 -13z"/>
<path d="M940 1259 c0 -5 4 -9 9 -9 5 0 7 -9 4 -20 -6 -24 -23 -27 -23 -3 0
34 -12 3 -19 -51 -7 -52 -6 -56 11 -50 15 4 18 0 18 -33 0 -21 9 -74 20 -118
11 -44 20 -90 20 -102 0 -12 5 -25 11 -29 16 -10 3 100 -17 143 -8 18 -16 67
-17 108 -2 71 -10 95 -20 58 -3 -11 -5 -7 -6 10 -1 18 4 27 14 27 8 0 15 9 15
20 0 11 4 20 9 20 5 0 8 8 7 17 -3 17 -36 28 -36 12z"/>
<path d="M2060 1255 c-7 -9 -8 -15 -2 -15 5 0 12 7 16 15 3 8 4 15 2 15 -2 0
-9 -7 -16 -15z"/>
<path d="M2128 1263 c7 -3 16 -2 19 1 4 3 -2 6 -13 5 -11 0 -14 -3 -6 -6z"/>
<path d="M2236 1254 c-9 -24 -7 -27 9 -10 17 17 19 26 6 26 -5 0 -12 -7 -15
-16z"/>
<path d="M885 1251 c3 -5 1 -12 -5 -16 -5 -3 -10 -17 -10 -29 0 -14 -10 -30
-25 -40 -14 -9 -25 -21 -25 -28 0 -6 -7 -16 -16 -22 -14 -10 -14 -16 -1 -54
12 -35 12 -43 1 -53 -8 -6 -14 -17 -14 -23 0 -6 5 -4 11 4 8 12 10 9 6 -12 -2
-16 0 -28 4 -28 5 0 9 8 9 18 1 10 6 6 14 -13 8 -19 15 -25 20 -17 4 7 3 12
-3 12 -12 0 -24 55 -22 105 2 58 15 100 32 100 19 0 27 14 24 41 -1 13 2 24 6
24 5 0 9 9 9 20 0 11 -5 20 -11 20 -5 0 -8 -4 -4 -9z"/>
<path d="M1480 1253 c0 -5 6 -19 13 -33 7 -14 21 -47 32 -75 21 -58 43 -95 56
-95 16 0 9 26 -13 50 -13 14 -21 26 -19 28 6 5 -53 132 -61 132 -5 0 -8 -3 -8
-7z"/>
<path d="M1356 1235 c-3 -9 -6 -22 -5 -28 0 -7 5 -1 10 12 5 13 8 26 5 28 -2
2 -6 -3 -10 -12z"/>
<path d="M1450 1241 c0 -6 4 -13 10 -16 6 -3 7 1 4 9 -7 18 -14 21 -14 7z"/>
<path d="M2102 1238 c-7 -7 -12 -16 -12 -20 0 -15 15 -8 28 12 13 22 3 27 -16
8z"/>
<path d="M1872 1223 c-15 -27 -15 -43 -1 -43 5 0 7 5 3 11 -3 6 -1 15 6 19 7
4 10 14 8 21 -3 10 -8 7 -16 -8z"/>
<path d="M1940 1220 c-13 -11 -21 -23 -17 -26 3 -3 16 3 28 15 29 27 19 37
-11 11z"/>
<path d="M1995 1219 c-4 -6 -5 -12 -2 -15 2 -3 7 2 10 11 7 17 1 20 -8 4z"/>
<path d="M2321 1219 c-1 -18 -21 -29 -54 -29 -15 0 -18 -3 -10 -11 8 -8 17 -8
32 0 16 9 21 9 21 -1 0 -8 5 -6 11 5 6 10 8 25 6 35 -4 15 -5 15 -6 1z"/>
<path d="M1018 1213 c7 -3 16 -2 19 1 4 3 -2 6 -13 5 -11 0 -14 -3 -6 -6z"/>
<path d="M1614 1199 c-9 -15 -2 -18 20 -9 17 6 18 7 3 13 -9 3 -19 2 -23 -4z"/>
<path d="M1766 1195 c-3 -9 -6 -22 -5 -28 0 -7 5 -1 10 12 5 13 8 26 5 28 -2
2 -6 -3 -10 -12z"/>
<path d="M2020 1201 c0 -5 5 -13 10 -16 6 -3 10 -2 10 4 0 5 -4 13 -10 16 -5
3 -10 2 -10 -4z"/>
<path d="M2060 1201 c0 -5 5 -13 10 -16 6 -3 10 -2 10 4 0 5 -4 13 -10 16 -5
3 -10 2 -10 -4z"/>
<path d="M800 1179 c0 -5 5 -7 10 -4 6 3 10 8 10 11 0 2 -4 4 -10 4 -5 0 -10
-5 -10 -11z"/>
<path d="M1208 1183 c7 -3 16 -2 19 1 4 3 -2 6 -13 5 -11 0 -14 -3 -6 -6z"/>
<path d="M1358 1177 c7 -8 8 -18 4 -23 -4 -5 3 -1 15 9 14 12 23 15 28 8 3 -6
2 -11 -3 -11 -5 0 -12 -10 -15 -22 -5 -17 -9 -19 -21 -9 -12 10 -14 9 -11 -6
2 -10 4 -24 4 -30 1 -18 21 -16 21 2 0 8 5 15 10 15 6 0 10 -13 10 -30 0 -19
5 -30 14 -30 8 0 17 -7 20 -16 3 -8 10 -12 16 -9 5 3 -2 17 -18 30 l-27 25 35
-3 c27 -1 35 2 38 17 6 27 -18 66 -40 66 -11 0 -16 5 -13 10 4 6 3 10 -2 9 -4
-1 -10 0 -13 1 -3 1 -18 4 -34 6 -24 4 -27 3 -18 -9z m82 -33 c0 -3 -6 -12
-14 -19 -12 -12 -15 -12 -19 0 -3 7 -1 16 6 19 17 7 27 7 27 0z m17 -56 c-3
-7 -5 -2 -5 12 0 14 2 19 5 13 2 -7 2 -19 0 -25z"/>
<path d="M1457 1179 c7 -7 15 -10 18 -7 3 3 -2 9 -12 12 -14 6 -15 5 -6 -5z"/>
<path d="M1970 1180 c12 -7 7 -16 -26 -47 -74 -69 -122 -103 -146 -103 -18 0
-20 2 -8 10 12 8 11 10 -6 10 -34 0 -24 -26 11 -28 33 -3 93 37 161 106 18 17
35 32 38 32 12 0 6 -24 -10 -41 -18 -19 -13 -49 8 -49 8 0 9 3 2 10 -8 8 -5
23 9 51 15 31 17 43 8 52 -9 9 -11 7 -5 -8 7 -19 7 -19 -13 -2 -11 9 -24 17
-29 17 -5 0 -2 -4 6 -10z"/>
<path d="M2403 1171 c3 -13 2 -34 -3 -47 -7 -18 -6 -22 5 -18 10 4 13 17 10
41 -2 20 -7 39 -11 42 -4 3 -4 -5 -1 -18z"/>
<path d="M2487 1167 c-4 -16 -19 -46 -32 -68 -14 -21 -24 -42 -23 -46 2 -5 -1
-10 -7 -12 -5 -2 -18 -21 -28 -42 -10 -22 -24 -39 -32 -39 -8 0 -19 -9 -25
-20 -6 -11 -14 -19 -18 -17 -17 5 -87 -59 -90 -83 l-3 -25 14 25 c8 16 21 25
35 24 12 0 20 1 17 4 -8 8 25 33 35 27 5 -3 10 -2 10 3 0 15 41 53 51 46 5 -3
8 -2 7 3 -5 15 36 73 52 74 9 0 10 2 3 5 -7 3 -9 12 -6 20 5 13 8 13 15 2 7
-9 8 -8 4 5 -8 25 4 44 15 26 9 -14 14 14 9 55 -1 10 3 15 8 12 6 -3 13 1 16
10 3 8 2 12 -3 9 -5 -3 -11 3 -13 12 -3 13 -6 10 -11 -10z"/>
<path d="M1830 1170 c0 -5 5 -10 10 -10 6 0 10 5 10 10 0 6 -4 10 -10 10 -5 0
-10 -4 -10 -10z"/>
<path d="M1900 1144 c-19 -19 -30 -34 -24 -34 12 0 74 53 74 63 0 13 -16 4
-50 -29z"/>
<path d="M2042 1159 c-12 -19 -11 -19 8 -9 11 6 18 15 15 21 -8 12 -8 12 -23
-12z"/>
<path d="M2205 1171 c-3 -5 -1 -12 4 -15 5 -4 13 -1 17 5 4 8 9 7 15 -2 4 -7
11 -10 16 -6 8 9 -15 27 -34 27 -6 0 -14 -4 -18 -9z"/>
<path d="M2551 1164 c0 -11 3 -14 6 -6 3 7 2 16 -1 19 -3 4 -6 -2 -5 -13z"/>
<path d="M1625 1160 c3 -5 8 -10 11 -10 2 0 4 5 4 10 0 6 -5 10 -11 10 -5 0
-7 -4 -4 -10z"/>
<path d="M1855 1150 c-10 -11 -14 -20 -8 -20 5 0 18 9 28 20 10 11 14 20 8 20
-5 0 -18 -9 -28 -20z"/>
<path d="M2130 1162 c0 -12 19 -26 26 -19 2 2 -2 10 -11 17 -9 8 -15 8 -15 2z"/>
<path d="M2720 1160 c0 -5 7 -10 15 -10 8 0 15 5 15 10 0 6 -7 10 -15 10 -8 0
-15 -4 -15 -10z"/>
<path d="M857 1120 c-3 -11 -3 -20 -1 -20 2 0 8 9 14 20 6 11 7 20 2 20 -6 0
-12 -9 -15 -20z"/>
<path d="M1108 1123 c-3 -13 -2 -26 4 -29 14 -9 16 -2 8 26 -6 25 -6 25 -12 3z"/>
<path d="M1240 1128 c0 -7 7 -26 15 -42 8 -15 15 -35 15 -44 0 -11 3 -13 10
-6 7 7 4 25 -9 57 -20 46 -31 59 -31 35z"/>
<path d="M2095 1116 c-15 -14 -32 -27 -38 -29 -7 -2 -9 -8 -5 -12 5 -5 16 -1
25 7 10 9 24 14 31 12 7 -1 8 0 2 3 -7 3 -5 12 6 24 25 27 10 23 -21 -5z"/>
<path d="M2223 1133 c2 -5 -11 -21 -29 -36 -34 -29 -48 -23 -18 7 18 18 11 21
-16 6 -11 -6 -17 -17 -14 -24 3 -8 -7 -26 -23 -41 -15 -15 -21 -24 -13 -19 8
5 24 10 35 10 41 3 45 4 45 15 0 8 -4 9 -13 0 -14 -11 -27 -5 -27 11 0 5 4 7
9 3 6 -3 26 9 45 26 36 31 45 49 25 49 -5 0 -8 -3 -6 -7z"/>
<path d="M2240 1099 c-25 -22 -37 -37 -27 -33 24 9 21 -4 -5 -27 -13 -10 -18
-18 -11 -19 17 0 55 51 49 67 -3 7 1 13 8 13 14 0 42 28 35 35 -3 2 -25 -14
-49 -36z"/>
<path d="M2641 1124 c0 -11 3 -14 6 -6 3 7 2 16 -1 19 -3 4 -6 -2 -5 -13z"/>
<path d="M1006 1122 c-3 -5 3 -12 14 -15 13 -3 18 -11 14 -20 -3 -8 0 -18 7
-23 7 -4 10 -3 5 4 -3 6 2 15 11 21 13 7 14 10 4 11 -8 0 -22 7 -32 16 -10 9
-20 11 -23 6z"/>
<path d="M1710 1120 c0 -5 5 -10 11 -10 5 0 7 5 4 10 -3 6 -8 10 -11 10 -2 0
-4 -4 -4 -10z"/>
<path d="M1835 1110 c3 -5 -4 -10 -17 -11 -23 -1 -23 -1 2 -8 14 -5 28 -6 32
-4 10 5 -2 33 -14 33 -5 0 -6 -4 -3 -10z"/>
<path d="M911 1074 c0 -23 8 -79 20 -125 13 -53 19 -103 17 -136 -4 -42 -2
-49 7 -36 9 11 14 13 19 5 4 -7 2 -12 -3 -12 -6 0 -11 -9 -11 -20 0 -11 6 -20
14 -20 25 0 29 20 10 48 -10 15 -19 47 -21 72 -6 75 -8 85 -16 98 -5 7 -14 47
-22 90 -10 62 -13 69 -14 36z"/>
<path d="M1660 1103 c0 -4 5 -15 10 -23 8 -13 10 -13 10 2 0 9 -4 20 -10 23
-5 3 -10 3 -10 -2z"/>
<path d="M2360 1095 c0 -8 2 -15 4 -15 2 0 6 7 10 15 3 8 1 15 -4 15 -6 0 -10
-7 -10 -15z"/>
<path d="M1165 1090 c3 -5 8 -10 11 -10 2 0 4 5 4 10 0 6 -5 10 -11 10 -5 0
-7 -4 -4 -10z"/>
<path d="M1620 1093 c0 -6 5 -15 10 -18 6 -3 10 -15 10 -26 0 -10 5 -19 10
-19 6 0 10 6 10 13 -1 16 -39 66 -40 50z"/>
<path d="M1706 1089 c-10 -27 -14 -99 -6 -104 4 -2 10 21 13 53 4 57 2 77 -7
51z"/>
<path d="M1761 1092 c-1 -7 -5 -10 -11 -7 -6 4 -10 -7 -10 -27 l1 -33 15 28
c8 16 13 34 10 40 -3 9 -5 8 -5 -1z"/>
<path d="M2391 1091 c-8 -5 -10 -14 -6 -21 5 -8 4 -11 -3 -6 -6 3 -15 -8 -22
-29 -6 -19 -16 -35 -21 -35 -4 0 -16 -14 -25 -31 l-16 -31 26 18 c14 11 28 27
31 37 4 9 10 15 15 12 4 -3 6 5 3 17 -4 19 -3 20 6 8 9 -13 11 -13 11 3 0 9 5
17 10 17 6 0 10 7 10 15 0 7 8 19 18 24 16 10 15 10 -3 11 -11 0 -26 -4 -34
-9z"/>
<path d="M2324 1053 c-10 -21 -22 -39 -26 -41 -11 -5 -10 -32 1 -32 5 0 13 9
16 20 4 11 10 18 15 15 11 -7 30 49 21 64 -5 7 -15 -2 -27 -26z"/>
<path d="M867 1073 c-10 -10 -8 -71 2 -77 5 -4 9 14 9 39 -1 48 -1 48 -11 38z"/>
<path d="M1073 1073 c5 -8 3 -13 -3 -13 -6 0 -22 -11 -34 -25 -31 -33 -24 -69
10 -62 13 2 21 1 19 -4 -3 -4 -1 -10 5 -14 5 -3 10 -1 10 5 0 6 5 8 10 5 6 -4
9 -1 8 6 -5 21 23 22 29 0 7 -27 23 -27 23 -1 0 12 -7 20 -17 20 -10 0 -14 4
-8 8 6 4 11 12 11 17 1 6 5 20 9 33 6 22 -10 33 -17 10 -3 -7 -14 -5 -33 8
-16 10 -26 13 -22 7z m22 -33 c3 -5 0 -10 -9 -10 -8 0 -23 -3 -33 -6 -16 -6
-16 -5 2 9 24 19 32 21 40 7z m21 -37 c-10 -10 -19 5 -10 18 6 11 8 11 12 0 2
-7 1 -15 -2 -18z m-26 8 c0 -14 -26 -20 -41 -9 -11 8 -10 9 4 4 9 -3 17 -1 17
4 0 6 5 10 10 10 6 0 10 -4 10 -9z"/>
<path d="M1513 1061 c1 -14 9 -26 17 -28 10 -3 11 -2 4 4 -7 4 -14 17 -17 28
-5 16 -5 15 -4 -4z"/>
<path d="M1600 1064 c0 -13 18 -39 24 -34 2 3 -2 14 -10 24 -8 11 -14 16 -14
10z"/>
<path d="M1810 1060 c0 -5 4 -10 9 -10 6 0 13 5 16 10 3 6 -1 10 -9 10 -9 0
-16 -4 -16 -10z"/>
<path d="M1892 1050 c-16 -13 -19 -21 -10 -26 6 -4 14 -2 16 4 2 7 8 10 12 7
5 -3 12 0 16 6 5 8 3 9 -6 4 -10 -6 -12 -4 -7 8 8 21 7 21 -21 -3z"/>
<path d="M1950 1060 c0 -5 5 -10 10 -10 6 0 10 5 10 10 0 6 -4 10 -10 10 -5 0
-10 -4 -10 -10z"/>
<path d="M2000 1055 c-20 -24 -6 -28 15 -5 10 11 13 20 8 20 -6 0 -16 -7 -23
-15z"/>
<path d="M2712 1040 c0 -14 2 -19 5 -12 2 6 2 18 0 25 -3 6 -5 1 -5 -13z"/>
<path d="M770 1040 c0 -5 4 -10 9 -10 6 0 13 5 16 10 3 6 -1 10 -9 10 -9 0
-16 -4 -16 -10z"/>
<path d="M2064 1038 c10 -6 22 -6 26 -2 5 5 -3 10 -18 11 -22 1 -24 0 -8 -9z"/>
<path d="M1150 1033 c0 -10 19 -40 21 -33 0 3 2 13 4 23 2 9 -3 17 -11 17 -8
0 -14 -3 -14 -7z"/>
<path d="M1937 1025 c-8 -8 -18 -11 -22 -7 -5 4 -6 0 -2 -10 4 -12 -3 -18 -30
-23 -20 -3 -43 -13 -51 -21 -30 -31 4 -26 65 10 12 7 32 25 43 39 23 29 21 36
-3 12z"/>
<path d="M2003 1013 c-27 -42 -52 -67 -60 -60 -3 4 4 18 16 31 13 14 21 30 19
37 -2 7 -14 -4 -27 -24 -14 -23 -31 -37 -44 -38 -17 -1 -16 -3 8 -10 41 -12
62 -3 82 34 9 18 23 37 32 44 10 8 12 12 4 13 -7 0 -20 -12 -30 -27z"/>
<path d="M1295 1020 c3 -5 8 -10 11 -10 2 0 4 5 4 10 0 6 -5 10 -11 10 -5 0
-7 -4 -4 -10z"/>
<path d="M1501 1013 c7 -10 15 -20 16 -22 2 -2 3 3 3 11 0 9 -7 19 -16 22 -15
6 -15 4 -3 -11z"/>
<path d="M1580 1005 c0 -14 2 -25 4 -25 2 0 6 11 8 25 3 14 1 25 -3 25 -5 0
-9 -11 -9 -25z"/>
<path d="M757 983 c-14 -26 -13 -33 7 -81 11 -29 31 -64 44 -77 27 -28 102
-69 102 -55 0 6 -4 10 -10 10 -5 0 -10 21 -11 48 0 34 -3 41 -8 27 -5 -11 -7
-23 -4 -27 2 -5 1 -13 -2 -18 -11 -19 -64 29 -90 82 -23 45 -24 55 -14 80 16
38 4 47 -14 11z"/>
<path d="M1605 982 c-3 -18 -11 -32 -16 -32 -5 0 -4 -6 3 -14 7 -7 19 -11 25
-9 14 5 15 -2 15 -54 0 -19 5 -33 11 -33 7 0 23 -3 37 -5 21 -5 22 -4 5 4 -18
8 -19 9 -2 16 9 4 17 12 17 18 0 7 -4 7 -12 -1 -7 -7 -18 -12 -26 -12 -10 0
-10 3 2 16 18 18 20 30 6 39 -6 4 -21 27 -34 53 l-23 46 -8 -32z m59 -93 c-3
-5 -10 -7 -15 -3 -5 3 -7 10 -3 15 3 5 10 7 15 3 5 -3 7 -10 3 -15z"/>
<path d="M1664 981 c1 -17 4 -31 9 -31 10 0 9 32 -2 48 -5 9 -8 3 -7 -17z"/>
<path d="M1803 1001 c-72 -9 -86 -25 -50 -57 15 -13 40 -24 55 -24 15 0 39 -6
53 -14 15 -7 39 -13 54 -13 l28 0 -24 13 c-13 7 -35 14 -49 14 -26 0 -110 35
-110 45 0 3 11 3 25 -1 21 -5 24 -3 18 12 -5 14 -3 16 11 11 10 -4 27 0 39 8
12 8 17 14 12 14 -6 -1 -34 -5 -62 -8z"/>
<path d="M2160 984 c-14 -35 -13 -37 10 -14 22 22 26 40 10 40 -6 0 -15 -12
-20 -26z"/>
<path d="M2233 995 c-3 -9 -3 -18 -1 -21 3 -3 8 4 11 16 6 23 -1 27 -10 5z"/>
<path d="M1281 984 c0 -11 3 -14 6 -6 3 7 2 16 -1 19 -3 4 -6 -2 -5 -13z"/>
<path d="M1310 988 c1 -7 7 -24 14 -38 10 -16 11 -30 5 -42 -12 -23 8 -35 27
-16 13 12 11 20 -12 61 -26 48 -34 56 -34 35z"/>
<path d="M2670 990 c0 -5 7 -10 16 -10 8 0 12 5 9 10 -3 6 -10 10 -16 10 -5 0
-9 -4 -9 -10z"/>
<path d="M892 970 c0 -14 2 -19 5 -12 2 6 2 18 0 25 -3 6 -5 1 -5 -13z"/>
<path d="M1460 979 c0 -5 5 -7 10 -4 6 3 10 8 10 11 0 2 -4 4 -10 4 -5 0 -10
-5 -10 -11z"/>
<path d="M2720 971 c0 -11 -5 -23 -11 -27 -8 -4 -7 -9 2 -14 15 -10 39 -2 39
12 0 6 -6 8 -13 5 -10 -4 -13 2 -9 19 2 13 2 24 -2 24 -3 0 -6 -9 -6 -19z"/>
<path d="M871 964 c0 -11 3 -14 6 -6 3 7 2 16 -1 19 -3 4 -6 -2 -5 -13z"/>
<path d="M1178 973 c7 -3 16 -2 19 1 4 3 -2 6 -13 5 -11 0 -14 -3 -6 -6z"/>
<path d="M2055 968 c7 -18 -14 -36 -62 -54 l-38 -13 33 -1 c17 0 32 5 32 10 0
6 6 10 13 10 7 0 20 9 29 19 15 17 15 21 2 32 -12 9 -13 9 -9 -3z"/>
<path d="M2207 963 c-4 -3 -7 -17 -7 -29 0 -12 -11 -31 -25 -42 -18 -14 -22
-22 -13 -26 17 -8 -31 -1 -57 9 -14 5 -16 4 -7 -3 8 -5 11 -20 8 -38 l-6 -29
13 28 13 27 11 -27 c10 -26 11 -27 12 -5 1 16 6 22 18 20 10 -2 18 3 18 10 0
8 7 19 15 25 8 7 15 29 16 50 1 40 1 40 -9 30z"/>
<path d="M1285 950 c-3 -6 1 -7 9 -4 18 7 21 14 7 14 -6 0 -13 -4 -16 -10z"/>
<path d="M1480 950 c0 -5 7 -10 15 -10 8 0 17 -14 21 -35 3 -19 10 -37 14 -40
4 -3 4 14 -2 37 -8 39 -21 57 -40 58 -5 0 -8 -4 -8 -10z"/>
<path d="M1709 933 c4 -15 12 -28 19 -31 7 -2 6 8 -4 27 -19 38 -25 40 -15 4z"/>
<path d="M2229 939 c-7 -13 -7 -19 -1 -15 6 4 15 -2 21 -11 6 -11 11 -13 11
-5 0 7 4 11 9 8 10 -6 25 24 16 32 -3 3 -5 -1 -5 -9 -1 -10 -3 -9 -11 4 -13
23 -26 22 -40 -4z m28 -4 c0 -8 -4 -12 -9 -9 -4 3 -8 9 -8 15 0 5 4 9 8 9 5 0
9 -7 9 -15z"/>
<path d="M500 939 c0 -5 5 -7 10 -4 6 3 10 8 10 11 0 2 -4 4 -10 4 -5 0 -10
-5 -10 -11z"/>
<path d="M620 935 c0 -8 5 -15 11 -15 8 0 8 -4 -1 -15 -12 -15 -6 -35 11 -35
13 0 48 41 49 57 0 6 -8 9 -20 6 -11 -3 -20 0 -20 6 0 6 -7 11 -15 11 -8 0
-15 -7 -15 -15z"/>
<path d="M787 929 c4 -13 8 -18 11 -10 2 7 -1 18 -6 23 -8 8 -9 4 -5 -13z"/>
<path d="M1535 940 c4 -6 11 -8 16 -5 14 9 11 15 -7 15 -8 0 -12 -5 -9 -10z"/>
<path d="M1980 940 c-8 -5 -26 -10 -40 -10 -18 0 -21 -3 -11 -9 15 -9 67 4 77
20 7 12 -7 11 -26 -1z"/>
<path d="M2566 934 c-3 -9 -6 -16 -6 -17 0 -1 27 -3 59 -4 39 -1 61 2 64 10 3
9 -10 11 -44 10 -27 -1 -49 2 -49 7 0 16 -17 11 -24 -6z"/>
<path d="M1121 924 c0 -11 3 -14 6 -6 3 7 2 16 -1 19 -3 4 -6 -2 -5 -13z"/>
<path d="M1041 927 c-1 -4 7 -20 16 -34 15 -22 15 -26 3 -21 -8 3 -24 2 -35
-3 -18 -7 -18 -8 -2 -8 14 -1 17 -6 11 -23 -6 -19 -3 -18 23 8 29 29 33 64 8
64 -7 0 -16 6 -18 13 -3 6 -6 8 -6 4z"/>
<path d="M1090 921 c0 -5 5 -13 10 -16 6 -3 10 -2 10 4 0 5 -4 13 -10 16 -5 3
-10 2 -10 -4z"/>
<path d="M2156 913 c-6 -14 -5 -15 5 -6 7 7 10 15 7 18 -3 3 -9 -2 -12 -12z"/>
<path d="M2400 919 c0 -5 5 -7 10 -4 6 3 10 8 10 11 0 2 -4 4 -10 4 -5 0 -10
-5 -10 -11z"/>
<path d="M870 905 c0 -8 2 -15 4 -15 2 0 6 7 10 15 3 8 1 15 -4 15 -6 0 -10
-7 -10 -15z"/>
<path d="M2371 913 c0 -4 4 -17 9 -28 8 -19 9 -19 9 2 1 12 -3 25 -9 28 -5 3
-10 3 -9 -2z"/>
<path d="M1273 903 c-15 -5 -18 -33 -4 -33 5 0 11 9 14 20 3 11 4 20 4 19 -1
0 -8 -3 -14 -6z"/>
<path d="M2069 905 c-1 -3 -2 -9 -3 -14 0 -5 -4 -13 -8 -17 -5 -4 -8 -11 -8
-16 0 -5 6 -3 13 4 8 7 14 21 14 31 0 16 -5 24 -8 12z"/>
<path d="M501 884 c0 -11 3 -14 6 -6 3 7 2 16 -1 19 -3 4 -6 -2 -5 -13z"/>
<path d="M800 883 c0 -15 19 -37 26 -31 3 4 -1 14 -10 23 -9 9 -16 13 -16 8z"/>
<path d="M840 879 c0 -5 5 -7 10 -4 6 3 10 8 10 11 0 2 -4 4 -10 4 -5 0 -10
-5 -10 -11z"/>
<path d="M1558 878 c-7 -18 16 -93 27 -91 5 1 11 7 13 15 2 9 0 8 -7 -2 -9
-13 -11 -12 -11 5 0 11 -3 31 -6 45 -4 20 -3 22 5 10 12 -17 14 -10 5 14 -7
19 -20 21 -26 4z"/>
<path d="M1720 880 c-12 -8 -10 -10 8 -10 13 0 20 4 17 10 -7 12 -6 12 -25 0z"/>
<path d="M1191 864 c0 -11 3 -14 6 -6 3 7 2 16 -1 19 -3 4 -6 -2 -5 -13z"/>
<path d="M1383 869 c-5 -5 -25 -12 -43 -14 -47 -6 -80 -31 -80 -60 0 -17 -6
-25 -16 -25 -13 0 -11 -6 10 -25 14 -13 26 -29 26 -36 0 -6 6 -9 14 -6 8 3 18
-5 25 -19 6 -14 19 -24 31 -24 26 0 26 16 0 23 -11 3 -20 10 -20 16 0 15 37
14 43 -1 2 -7 8 -9 13 -5 12 11 -16 27 -49 27 -15 0 -30 7 -33 15 -4 8 -12 15
-19 15 -8 0 -12 11 -11 30 3 36 14 49 26 31 5 -9 14 -11 26 -6 18 8 18 8 1 12
-9 3 -15 9 -11 14 3 5 9 7 13 5 4 -3 33 -1 65 3 57 8 57 8 54 -18 -2 -17 -11
-27 -28 -32 -22 -6 -22 -7 -4 -8 14 -1 21 -7 20 -18 -2 -30 -30 -82 -46 -86
-12 -3 -10 -6 5 -12 11 -5 23 -13 27 -19 5 -7 8 -6 8 3 0 11 3 11 14 2 20 -17
56 3 56 31 0 17 -2 18 -15 8 -9 -7 -18 -10 -21 -7 -9 9 6 27 30 37 17 7 17 9
4 9 -10 1 -18 6 -18 12 0 24 -30 -22 -31 -48 0 -24 -2 -25 -8 -8 -8 20 -8 20
-13 0 -5 -18 -6 -18 -7 3 0 12 4 22 9 22 6 0 10 6 10 14 0 14 24 29 50 31 8 0
13 7 11 15 -7 23 -5 63 3 83 6 12 4 17 -7 17 -10 0 -14 -7 -10 -22 4 -21 3
-21 -17 5 -23 28 -66 37 -87 16z m57 -9 c0 -5 -7 -10 -16 -10 -8 0 -12 5 -9
10 3 6 10 10 16 10 5 0 9 -4 9 -10z m23 -74 c3 -8 0 -17 -8 -19 -11 -5 -13 6
-6 31 2 6 9 0 14 -12z"/>
<path d="M1890 876 c0 -2 9 -6 20 -9 11 -3 20 -1 20 4 0 5 -9 9 -20 9 -11 0
-20 -2 -20 -4z"/>
<path d="M2018 873 c7 -3 16 -2 19 1 4 3 -2 6 -13 5 -11 0 -14 -3 -6 -6z"/>
<path d="M2330 870 c8 -5 20 -10 25 -10 6 0 3 5 -5 10 -8 5 -19 10 -25 10 -5
0 -3 -5 5 -10z"/>
<path d="M2716 865 c-21 -9 -25 -14 -15 -20 8 -5 14 -4 17 3 2 7 8 10 13 6 16
-9 10 -24 -11 -24 -10 0 -31 -5 -45 -12 -31 -14 -46 -3 -20 16 16 12 14 13
-21 19 -45 8 -66 -6 -35 -22 12 -7 21 -8 22 -4 1 4 4 -2 7 -13 7 -21 9 -21 61
-7 65 16 63 15 59 45 -3 23 -5 24 -32 13z"/>
<path d="M547 854 c3 -8 12 -13 21 -12 11 2 18 -7 22 -27 l6 -30 5 26 c7 32
-8 54 -38 56 -15 1 -20 -3 -16 -13z"/>
<path d="M850 855 c-8 -9 -8 -15 -2 -15 12 0 26 19 19 26 -2 2 -10 -2 -17 -11z"/>
<path d="M1113 825 c-8 -34 -7 -45 3 -49 8 -3 13 10 16 45 4 61 -5 63 -19 4z"/>
<path d="M1941 866 c2 -2 22 -6 44 -9 27 -4 35 -3 25 3 -14 9 -79 15 -69 6z"/>
<path d="M2561 854 c0 -11 3 -14 6 -6 3 7 2 16 -1 19 -3 4 -6 -2 -5 -13z"/>
<path d="M621 793 c0 -38 3 -62 6 -55 2 6 9 10 14 6 5 -3 9 4 9 15 0 12 4 21
9 21 5 0 16 3 25 6 11 4 16 1 16 -10 0 -18 47 -52 58 -41 4 4 1 10 -5 12 -7 3
-13 9 -13 14 0 12 -43 55 -52 52 -5 -2 -8 1 -8 7 0 5 -10 9 -21 7 -12 -1 -24
4 -26 11 -3 7 1 10 11 6 9 -3 16 -1 16 5 0 6 -9 11 -20 11 -18 0 -20 -6 -19
-67z"/>
<path d="M1745 850 c3 -5 8 -10 11 -10 2 0 4 5 4 10 0 6 -5 10 -11 10 -5 0 -7
-4 -4 -10z"/>
<path d="M705 839 c-4 -6 -5 -13 -2 -16 7 -7 27 6 27 18 0 12 -17 12 -25 -2z"/>
<path d="M480 808 c0 -18 -3 -51 -7 -73 -3 -22 -3 -37 0 -34 4 3 8 14 10 25 1
10 6 24 10 31 10 15 6 83 -5 83 -4 0 -8 -15 -8 -32z"/>
<path d="M1212 820 c0 -14 2 -19 5 -12 2 6 2 18 0 25 -3 6 -5 1 -5 -13z"/>
<path d="M2000 830 c0 -5 9 -10 20 -10 11 0 20 5 20 10 0 6 -9 10 -20 10 -11
0 -20 -4 -20 -10z"/>
<path d="M2182 818 c-11 -13 -25 -35 -31 -50 -9 -24 -7 -27 20 -38 16 -7 32
-22 35 -34 7 -29 71 -56 133 -56 90 0 210 -80 256 -171 10 -19 24 -41 32 -50
7 -9 13 -20 12 -25 -4 -17 13 -64 24 -64 6 0 8 -2 5 -6 -3 -3 3 -27 13 -55 33
-86 17 -219 -30 -256 -14 -11 -14 -12 -1 -12 18 0 52 24 45 31 -3 3 -1 17 5
32 8 23 12 25 23 14 8 -7 16 -20 20 -28 3 -8 6 5 6 30 1 33 -2 41 -9 30 -17
-25 -30 7 -18 44 5 17 9 37 9 44 -1 6 -1 20 -2 30 0 9 -3 28 -5 41 -4 20 -7
22 -15 10 -14 -22 -12 14 3 45 9 21 8 29 -4 43 -9 10 -13 24 -11 31 3 7 -4 12
-17 12 -13 0 -24 8 -27 20 -3 11 -9 18 -13 15 -4 -3 -11 2 -14 11 -4 10 -2 13
7 8 14 -9 -26 37 -61 69 -12 12 -20 27 -17 35 2 7 1 11 -4 7 -5 -3 -23 6 -39
20 -16 14 -36 25 -43 25 -12 0 -12 2 0 9 11 7 11 9 0 14 -8 3 22 6 65 6 58 1
84 -3 96 -14 16 -14 17 -14 13 8 -5 24 -7 24 -99 24 -52 0 -94 -4 -94 -9 0 -5
-28 -6 -62 -3 -35 3 -72 5 -83 6 -16 0 -17 2 -5 10 12 8 11 10 -5 8 -28 -2
-66 12 -60 22 3 4 -3 12 -12 18 -16 9 -16 12 -3 21 12 9 10 10 -8 5 -14 -4
-28 -1 -37 9 -13 13 -13 15 7 22 13 4 24 2 26 -4 2 -6 17 -3 37 9 19 12 38 18
43 15 4 -2 9 4 9 15 2 22 -10 25 -26 5 -14 -16 -69 -27 -77 -14 -3 4 2 11 10
14 9 3 16 10 16 15 0 16 -16 10 -38 -13z m493 -428 c-3 -6 1 -17 9 -26 18 -18
21 -44 5 -44 -5 0 -17 16 -25 35 -18 43 -18 45 2 45 8 0 12 -5 9 -10z"/>
<path d="M727 810 c-4 -17 -2 -20 14 -15 13 4 19 2 19 -9 0 -8 12 -22 28 -30
25 -14 25 -15 5 -16 -16 0 -21 -4 -16 -16 5 -13 2 -15 -16 -9 -12 4 -28 2 -36
-5 -8 -6 -19 -9 -24 -6 -5 4 -12 2 -16 -4 -9 -15 -61 -12 -74 4 -7 8 -9 27 -6
43 5 25 4 26 -4 6 -9 -19 -18 -23 -56 -23 -49 0 -55 -6 -27 -26 14 -11 15 -13
2 -17 -73 -24 -78 -25 -89 -14 -8 8 -11 8 -11 0 0 -7 -9 -15 -20 -18 -36 -11
-21 -22 30 -21 27 1 50 3 50 6 0 3 14 7 32 8 34 3 58 18 58 36 0 7 -4 6 -9 -2
-7 -11 -9 -11 -14 2 -3 8 -2 18 3 21 11 7 50 -12 50 -24 0 -16 26 -19 71 -11
24 5 61 11 81 15 25 4 39 12 43 25 4 11 15 20 25 20 25 0 35 -17 13 -23 -10
-2 -4 -3 12 0 17 2 32 9 34 15 2 6 10 0 17 -13 l13 -24 1 27 c0 22 -8 31 -37
46 -21 10 -45 17 -54 15 -8 -2 -27 10 -42 27 -32 35 -43 37 -50 10z"/>
<path d="M988 814 c15 -27 62 -70 62 -56 0 7 -5 12 -11 12 -5 0 -7 6 -3 13 4
6 4 9 -1 5 -5 -5 -13 2 -19 14 -6 12 -17 23 -24 26 -11 3 -12 0 -4 -14z"/>
<path d="M2060 815 c-24 -14 -24 -14 -3 -15 12 0 25 5 28 11 11 17 2 18 -25 4z"/>
<path d="M1627 813 c9 -3 10 -10 3 -23 -7 -13 -7 -21 0 -25 5 -3 10 -4 10 0 0
3 8 1 18 -4 14 -7 19 -6 19 4 0 7 -6 11 -13 8 -14 -5 -14 28 1 39 6 4 -3 7
-20 7 -16 0 -24 -3 -18 -6z"/>
<path d="M2120 806 c0 -8 -6 -16 -14 -19 -16 -6 -28 -47 -14 -47 6 0 5 -6 -2
-15 -18 -22 -4 -31 16 -11 16 16 33 106 20 106 -3 0 -6 -6 -6 -14z m0 -41 c0
-8 -4 -15 -10 -15 -5 0 -10 7 -10 15 0 8 5 15 10 15 6 0 10 -7 10 -15z"/>
<path d="M315 800 c2 -4 -4 -10 -14 -13 -10 -2 -24 -19 -32 -36 -9 -22 -23
-34 -41 -38 -15 -3 -34 -15 -42 -28 -13 -20 -26 -23 -69 -16 -5 0 -5 11 -2 22
5 15 3 20 -6 17 -17 -5 -25 -58 -10 -58 6 0 11 -13 11 -30 0 -37 17 -39 30 -5
13 34 36 41 69 22 32 -19 81 -12 99 15 7 10 20 18 28 18 8 0 14 7 14 16 0 12
7 15 29 12 23 -3 27 -1 23 14 -2 10 -10 18 -17 18 -19 0 -66 -26 -59 -33 3 -3
-4 -3 -16 0 -16 4 -23 0 -27 -16 -6 -24 -43 -26 -51 -3 -2 8 2 12 12 10 10 -2
24 9 34 27 9 16 22 34 27 40 12 12 45 13 63 2 8 -6 12 -2 12 12 0 12 -1 21 -3
21 -1 0 -17 4 -35 9 -18 6 -30 6 -27 1z"/>
<path d="M1905 800 c-3 -5 -1 -10 4 -10 6 0 11 5 11 10 0 6 -2 10 -4 10 -3 0
-8 -4 -11 -10z"/>
<path d="M2000 799 c0 -5 5 -7 10 -4 6 3 10 8 10 11 0 2 -4 4 -10 4 -5 0 -10
-5 -10 -11z"/>
<path d="M1060 775 c6 -8 9 -18 7 -22 -3 -5 8 -15 24 -22 16 -7 29 -19 29 -26
0 -7 4 -15 9 -17 5 -1 26 -23 46 -48 21 -25 39 -44 42 -42 9 7 63 -34 63 -49
0 -26 38 -67 74 -80 22 -8 32 -17 29 -26 -3 -7 2 -13 11 -13 9 0 16 4 16 9 0
5 8 12 18 14 13 4 12 5 -5 6 -37 2 -79 21 -65 30 7 4 10 15 6 24 -3 9 -10 15
-14 12 -4 -3 -10 2 -13 10 -4 9 -1 12 9 8 10 -4 17 2 21 15 9 36 31 34 45 -4
10 -28 14 -31 19 -17 3 10 0 24 -8 31 -14 15 -17 32 -5 33 4 0 15 2 25 4 9 2
17 -1 17 -6 0 -5 4 -9 8 -9 4 0 8 9 8 20 0 22 -24 22 -72 -3 -16 -8 -43 -18
-61 -21 -30 -7 -31 -9 -22 -34 5 -15 17 -32 25 -39 11 -8 12 -13 4 -18 -18
-11 -50 25 -50 58 0 17 -3 28 -6 24 -13 -13 -124 69 -124 91 0 5 -20 28 -44
50 -24 22 -41 43 -38 47 4 3 0 10 -8 15 -23 15 -34 12 -20 -5z"/>
<path d="M2050 786 c0 -2 7 -6 15 -10 8 -3 15 -1 15 4 0 6 -7 10 -15 10 -8 0
-15 -2 -15 -4z"/>
<path d="M2575 780 c-19 -8 -19 -9 2 -9 12 -1 25 4 28 9 7 12 -2 12 -30 0z"/>
<path d="M1290 770 c0 -5 9 -10 20 -10 11 0 20 -7 20 -15 0 -20 17 -19 38 1
15 15 14 16 -6 10 -17 -6 -21 -4 -16 8 5 12 -1 16 -25 16 -17 0 -31 -4 -31
-10z"/>
<path d="M1576 762 c-7 -6 53 -36 67 -34 4 1 7 -5 7 -13 0 -14 -3 -14 -24 1
-14 8 -35 14 -48 11 -20 -4 -20 -4 5 -6 15 0 27 -6 27 -12 0 -6 -8 -8 -17 -5
-10 3 -24 2 -31 -3 -18 -11 31 -43 53 -34 13 5 14 7 3 14 -18 12 108 11 206
-1 290 -37 295 -37 293 -19 -1 14 -12 17 -62 17 -88 -1 -259 18 -283 31 -11 6
-23 7 -26 2 -16 -25 -104 7 -89 33 3 6 3 8 -2 4 -4 -4 -14 -3 -21 2 -15 13
-50 20 -58 12z"/>
<path d="M2280 762 c0 -12 74 -25 105 -18 11 3 37 5 58 5 20 1 37 6 37 12 0 8
-17 10 -57 5 -70 -9 -80 -9 -115 0 -17 4 -28 2 -28 -4z"/>
<path d="M1140 750 c0 -5 5 -10 10 -10 6 0 10 5 10 10 0 6 -4 10 -10 10 -5 0
-10 -4 -10 -10z"/>
<path d="M2545 750 c3 -5 8 -10 11 -10 2 0 4 5 4 10 0 6 -5 10 -11 10 -5 0 -7
-4 -4 -10z"/>
<path d="M70 743 c-8 -2 -22 -7 -30 -10 -8 -4 -21 -5 -28 -4 -6 1 -12 -5 -12
-14 0 -9 5 -13 11 -9 6 3 15 0 20 -7 8 -12 11 -11 20 4 5 9 21 17 35 17 15 0
24 5 22 12 -5 14 -18 18 -38 11z"/>
<path d="M936 734 c-10 -25 -7 -74 4 -74 6 0 10 20 10 45 0 47 -4 55 -14 29z"/>
<path d="M974 714 c-15 -13 -16 -15 -2 -10 11 3 19 -2 23 -15 4 -10 10 -19 15
-19 5 0 4 14 -1 30 -13 35 -10 34 -35 14z"/>
<path d="M1070 707 c0 -7 9 -18 20 -25 11 -7 20 -10 20 -7 0 3 -9 14 -20 25
-12 12 -20 15 -20 7z"/>
<path d="M1190 705 c-7 -9 -11 -17 -9 -20 3 -2 10 5 17 15 14 24 10 26 -8 5z"/>
<path d="M2628 713 c7 -3 16 -2 19 1 4 3 -2 6 -13 5 -11 0 -14 -3 -6 -6z"/>
<path d="M1990 690 c8 -5 22 -9 30 -9 10 0 8 3 -5 9 -27 12 -43 12 -25 0z"/>
<path d="M2145 690 c3 -5 11 -10 17 -10 6 0 17 -8 24 -17 7 -10 14 -13 14 -6
0 6 -10 19 -22 27 -25 18 -42 21 -33 6z"/>
<path d="M2715 679 c-4 -11 -4 -23 -1 -26 3 -4 6 0 6 7 0 7 8 19 18 26 16 12
16 13 0 14 -9 0 -20 -9 -23 -21z"/>
<path d="M44 663 c-10 -16 -17 -34 -16 -40 2 -7 -4 -13 -13 -13 -8 0 -15 -8
-15 -17 0 -15 2 -15 9 -4 5 8 16 11 25 8 16 -6 20 2 17 34 -1 9 5 22 14 29 8
7 15 16 15 21 0 18 -18 8 -36 -18z"/>
<path d="M907 663 c3 -18 -31 -35 -44 -22 -12 12 -63 1 -63 -13 0 -6 19 -8 44
-7 32 3 42 1 39 -8 -3 -7 0 -13 5 -13 6 0 13 8 15 18 3 9 5 -1 6 -24 1 -34 -3
-43 -23 -52 -13 -6 -32 -24 -42 -40 -12 -21 -27 -32 -53 -36 -56 -9 -143 -7
-136 3 3 5 1 12 -5 16 -6 4 -8 11 -4 16 3 5 0 8 -6 7 -7 -2 -19 11 -29 27 -36
63 -44 72 -63 67 -10 -2 -17 -9 -16 -14 2 -5 6 -8 8 -6 8 5 38 -26 33 -34 -2
-5 1 -8 6 -8 6 0 11 -4 11 -10 0 -5 16 -32 35 -59 34 -47 37 -49 68 -40 18 5
51 10 75 12 40 3 42 2 42 -25 0 -16 -4 -27 -8 -24 -10 6 -4 -109 8 -147 6 -17
6 -25 0 -22 -6 4 -10 -1 -10 -10 0 -9 5 -13 10 -10 21 13 9 -19 -15 -41 -28
-26 -33 -65 -10 -88 8 -8 15 -19 15 -24 0 -6 7 -12 15 -16 8 -3 15 -12 15 -21
0 -10 10 -15 30 -15 17 0 30 5 30 10 0 6 -9 10 -20 10 -11 0 -20 5 -20 11 0 6
-12 26 -26 45 -15 19 -24 40 -20 49 3 9 2 13 -4 10 -6 -3 -10 -1 -10 4 0 6 14
11 30 11 17 0 30 -5 30 -12 0 -6 2 -9 5 -6 3 3 -2 25 -10 49 -21 59 -30 194
-16 244 10 37 72 115 91 115 5 0 15 6 22 13 21 20 108 58 108 47 0 -6 7 -10
15 -10 8 0 15 3 15 6 0 10 -28 34 -39 34 -6 0 -11 6 -11 13 0 8 -4 7 -11 -3
-7 -10 -12 -11 -15 -4 -3 7 -14 10 -25 7 -15 -4 -19 -13 -17 -32 2 -14 -1 -26
-7 -26 -5 0 -16 -4 -22 -8 -9 -5 -13 -3 -13 7 0 9 7 16 15 16 8 0 15 9 15 20
0 12 -5 17 -13 14 -7 -2 -17 6 -23 18 -6 13 -9 17 -7 11z"/>
<path d="M1210 655 c0 -14 4 -25 9 -25 4 0 6 11 3 25 -2 14 -6 25 -8 25 -2 0
-4 -11 -4 -25z"/>
<path d="M1240 671 c0 -6 4 -13 10 -16 6 -3 7 1 4 9 -7 18 -14 21 -14 7z"/>
<path d="M1515 656 c-15 -16 -19 -30 -14 -47 16 -56 10 -99 -17 -124 -15 -14
-22 -25 -15 -25 39 0 83 119 60 162 -9 17 -8 24 5 33 9 7 16 15 16 19 0 13
-16 5 -35 -18z m2 -58 c-3 -7 -5 -2 -5 12 0 14 2 19 5 13 2 -7 2 -19 0 -25z"/>
<path d="M1757 669 c7 -7 15 -10 18 -7 3 3 -2 9 -12 12 -14 6 -15 5 -6 -5z"/>
<path d="M2338 673 c12 -2 32 -2 45 0 12 2 2 4 -23 4 -25 0 -35 -2 -22 -4z"/>
<path d="M2135 660 c-3 -5 1 -10 9 -10 9 0 16 5 16 10 0 6 -4 10 -9 10 -6 0
-13 -4 -16 -10z"/>
<path d="M2670 666 c0 -2 7 -6 15 -10 8 -3 15 -1 15 4 0 6 -7 10 -15 10 -8 0
-15 -2 -15 -4z"/>
<path d="M1079 642 c14 -26 70 -66 79 -57 4 4 -4 15 -18 26 -14 10 -29 23 -35
27 -29 23 -37 25 -26 4z"/>
<path d="M1130 651 c0 -6 4 -13 10 -16 6 -3 7 1 4 9 -7 18 -14 21 -14 7z"/>
<path d="M1610 651 c0 -9 30 -24 36 -18 2 1 -6 8 -16 15 -11 7 -20 8 -20 3z"/>
<path d="M1848 653 c7 -3 16 -2 19 1 4 3 -2 6 -13 5 -11 0 -14 -3 -6 -6z"/>
<path d="M598 643 c7 -3 16 -2 19 1 4 3 -2 6 -13 5 -11 0 -14 -3 -6 -6z"/>
<path d="M1338 625 c-4 -21 -3 -21 29 -12 41 13 44 36 4 35 -22 -1 -30 -7 -33
-23z"/>
<path d="M1668 625 c2 -14 6 -25 8 -25 2 0 4 11 4 25 0 14 -4 25 -9 25 -4 0
-6 -11 -3 -25z"/>
<path d="M689 622 c-12 -8 -31 -11 -53 -7 -38 8 -61 -11 -24 -19 61 -13 102
-17 96 -10 -12 12 12 34 38 34 12 0 25 4 28 8 8 14 -65 8 -85 -6z"/>
<path d="M1717 629 c7 -7 15 -10 18 -7 3 3 -2 9 -12 12 -14 6 -15 5 -6 -5z"/>
<path d="M2065 629 c23 -9 101 -12 92 -3 -3 3 -29 7 -59 9 -34 1 -46 -1 -33
-6z"/>
<path d="M1308 623 c7 -3 16 -2 19 1 4 3 -2 6 -13 5 -11 0 -14 -3 -6 -6z"/>
<path d="M1752 605 c0 -16 2 -22 5 -12 2 9 2 23 0 30 -3 6 -5 -1 -5 -18z"/>
<path d="M1831 614 c0 -11 3 -14 6 -6 3 7 2 16 -1 19 -3 4 -6 -2 -5 -13z"/>
<path d="M2274 584 c10 -37 12 -39 29 -22 12 12 10 16 -11 32 l-25 19 7 -29z"/>
<path d="M2530 600 c0 -5 4 -10 9 -10 6 0 13 5 16 10 3 6 -1 10 -9 10 -9 0
-16 -4 -16 -10z"/>
<path d="M1587 579 c4 -13 8 -18 11 -10 2 7 -1 18 -6 23 -8 8 -9 4 -5 -13z"/>
<path d="M2124 583 c1 -12 -5 -17 -16 -15 -10 2 -18 -2 -18 -8 0 -5 11 -10 24
-10 17 0 25 7 28 25 3 16 1 25 -7 25 -7 0 -12 -8 -11 -17z"/>
<path d="M2180 589 c0 -5 5 -7 10 -4 6 3 10 8 10 11 0 2 -4 4 -10 4 -5 0 -10
-5 -10 -11z"/>
<path d="M1169 568 c-11 -21 -11 -22 5 -8 16 13 20 12 32 -5 8 -10 14 -15 14
-11 0 4 7 1 15 -8 8 -8 15 -19 15 -25 0 -6 4 -11 10 -11 5 0 7 -7 4 -15 -5
-11 1 -15 21 -15 l27 0 -32 40 c-17 22 -28 40 -24 40 5 0 -2 7 -14 16 -12 8
-27 12 -32 9 -6 -3 -10 -1 -10 4 0 19 -19 12 -31 -11z"/>
<path d="M298 575 c-3 -3 -25 -7 -50 -9 -25 -2 -51 -7 -57 -10 -6 -4 -52 -10
-101 -13 -61 -4 -90 -10 -90 -18 0 -14 63 -11 137 5 22 6 70 14 105 19 34 6
76 13 91 16 37 7 65 -2 70 -23 4 -13 5 -12 6 4 0 12 -6 25 -15 28 -19 7 -89 8
-96 1z"/>
<path d="M460 574 c0 -10 28 -33 33 -27 3 3 0 12 -8 19 -14 15 -25 18 -25 8z"/>
<path d="M877 566 c-4 -10 -1 -13 9 -9 7 3 14 9 14 14 0 14 -17 10 -23 -5z"/>
<path d="M1110 570 c-8 -5 -11 -12 -7 -16 4 -4 13 -2 19 4 15 15 7 24 -12 12z"/>
<path d="M1560 569 c0 -14 28 -41 33 -32 2 5 -4 16 -15 26 -10 9 -18 12 -18 6z"/>
<path d="M2365 570 c3 -5 15 -15 26 -21 19 -10 20 -9 9 10 -6 12 -18 21 -26
21 -8 0 -12 -4 -9 -10z"/>
<path d="M748 563 c6 -2 18 -2 25 0 6 3 1 5 -13 5 -14 0 -19 -2 -12 -5z"/>
<path d="M1005 560 c-22 -9 -82 -60 -71 -60 9 0 60 32 67 44 4 5 13 6 21 3 9
-3 15 1 15 9 0 16 -4 16 -32 4z"/>
<path d="M1760 565 c0 -8 49 -53 54 -48 6 6 -35 53 -46 53 -4 0 -8 -2 -8 -5z"/>
<path d="M2241 554 c0 -11 3 -14 6 -6 3 7 2 16 -1 19 -3 4 -6 -2 -5 -13z"/>
<path d="M2700 560 c0 -3 -9 -11 -20 -17 -15 -10 -22 -10 -32 0 -21 20 -45 17
-44 -6 1 -19 26 -39 26 -20 0 4 14 9 32 9 18 1 34 6 36 13 2 6 15 11 28 11 13
0 24 3 24 8 0 4 -11 7 -25 7 -14 0 -25 -2 -25 -5z"/>
<path d="M1389 518 l4 -43 8 35 c7 34 4 50 -9 50 -4 0 -6 -19 -3 -42z"/>
<path d="M1467 539 c4 -13 8 -18 11 -10 2 7 -1 18 -6 23 -8 8 -9 4 -5 -13z"/>
<path d="M512 525 c0 -16 2 -22 5 -12 2 9 2 23 0 30 -3 6 -5 -1 -5 -18z"/>
<path d="M1667 530 c3 -11 7 -20 9 -20 2 0 4 9 4 20 0 11 -4 20 -9 20 -5 0 -7
-9 -4 -20z"/>
<path d="M2184 538 c0 -7 -3 -14 -8 -15 -5 -1 -14 -12 -20 -24 -6 -13 -22 -26
-36 -30 -21 -5 -22 -7 -8 -13 12 -6 26 2 47 23 17 17 36 31 42 31 7 0 9 3 6 7
-4 3 -2 12 4 20 9 10 7 13 -9 13 -11 0 -19 -6 -18 -12z"/>
<path d="M2448 538 c-4 -10 -4 -18 1 -18 4 0 13 -10 19 -22 l11 -23 0 23 c1
12 -3 22 -8 22 -5 0 -11 8 -13 18 -3 16 -4 16 -10 0z"/>
<path d="M1561 530 c0 -8 4 -22 9 -30 12 -18 12 -2 0 25 -6 13 -9 15 -9 5z"/>
<path d="M2741 524 c0 -11 3 -14 6 -6 3 7 2 16 -1 19 -3 4 -6 -2 -5 -13z"/>
<path d="M820 515 c-7 -9 -10 -18 -7 -21 3 -3 10 4 17 15 13 25 8 27 -10 6z"/>
<path d="M1200 521 c0 -4 11 -23 25 -42 14 -19 33 -46 42 -61 10 -16 26 -28
35 -28 9 0 18 -6 21 -12 2 -7 8 -10 12 -6 11 11 -4 28 -25 28 -13 0 -25 12
-34 35 -8 19 -20 35 -26 35 -6 0 -9 4 -6 8 3 5 -4 19 -15 30 -21 24 -29 27
-29 13z"/>
<path d="M1538 500 c-3 -19 0 -30 7 -30 7 0 10 11 7 30 -2 17 -5 30 -7 30 -2
0 -5 -13 -7 -30z"/>
<path d="M1830 525 c0 -21 18 -37 36 -33 18 5 18 5 -1 13 -11 5 -23 13 -27 19
-5 7 -8 7 -8 1z"/>
<path d="M325 508 c-27 -5 -100 -18 -161 -28 -61 -11 -123 -20 -137 -20 -15 0
-27 -4 -27 -10 0 -11 72 -9 81 3 3 4 32 9 65 11 70 5 177 21 219 34 44 13 17
20 -40 10z"/>
<path d="M1010 510 c-8 -5 -12 -12 -9 -15 8 -8 39 5 39 16 0 11 -11 11 -30 -1z"/>
<path d="M2660 500 c0 -5 5 -10 11 -10 5 0 8 -4 5 -9 -3 -5 1 -12 10 -15 32
-12 36 -5 10 19 -30 27 -36 30 -36 15z"/>
<path d="M530 486 c0 -3 14 -25 30 -50 21 -30 42 -49 68 -58 42 -14 92 -18 92
-7 0 4 10 10 23 12 12 2 1 2 -25 0 -73 -7 -104 4 -130 45 -13 20 -22 41 -20
45 1 5 -2 6 -8 2 -5 -3 -10 -1 -10 4 0 6 -4 11 -10 11 -5 0 -10 -2 -10 -4z"/>
<path d="M900 480 c-8 -5 -10 -10 -5 -10 6 0 17 5 25 10 8 5 11 10 5 10 -5 0
-17 -5 -25 -10z"/>
<path d="M1780 484 c0 -4 11 -17 25 -30 14 -13 25 -28 25 -34 0 -5 5 -10 10
-10 16 0 12 15 -10 35 -16 14 -18 21 -8 28 9 6 8 7 -4 3 -10 -3 -18 -1 -18 4
0 6 -4 10 -10 10 -5 0 -10 -3 -10 -6z"/>
<path d="M2510 480 c-9 -6 -10 -10 -3 -10 6 0 15 5 18 10 8 12 4 12 -15 0z"/>
<path d="M378 473 c7 -3 16 -2 19 1 4 3 -2 6 -13 5 -11 0 -14 -3 -6 -6z"/>
<path d="M2552 450 c0 -19 2 -27 5 -17 2 9 2 25 0 35 -3 9 -5 1 -5 -18z"/>
<path d="M983 455 c0 -8 4 -15 9 -15 4 0 8 7 8 15 0 8 -4 15 -8 15 -5 0 -9 -7
-9 -15z"/>
<path d="M1863 450 c14 -11 29 -20 33 -20 4 0 -3 9 -16 20 -13 11 -27 20 -33
20 -5 0 2 -9 16 -20z"/>
<path d="M2238 463 c6 -2 18 -2 25 0 6 3 1 5 -13 5 -14 0 -19 -2 -12 -5z"/>
<path d="M2415 460 c3 -5 10 -10 16 -10 5 0 9 5 9 10 0 6 -7 10 -16 10 -8 0
-12 -4 -9 -10z"/>
<path d="M1485 440 c-3 -5 -1 -10 4 -10 6 0 11 5 11 10 0 6 -2 10 -4 10 -3 0
-8 -4 -11 -10z"/>
<path d="M2231 434 c0 -11 3 -14 6 -6 3 7 2 16 -1 19 -3 4 -6 -2 -5 -13z"/>
<path d="M1430 429 c-13 -9 -12 -10 2 -5 11 3 19 -2 23 -15 4 -10 11 -19 16
-19 14 0 11 16 -9 33 -13 12 -21 13 -32 6z"/>
<path d="M2690 436 c0 -2 7 -6 15 -10 8 -3 15 -1 15 4 0 6 -7 10 -15 10 -8 0
-15 -2 -15 -4z"/>
<path d="M140 420 c0 -5 5 -10 10 -10 6 0 10 5 10 10 0 6 -4 10 -10 10 -5 0
-10 -4 -10 -10z"/>
<path d="M952 410 c0 -14 2 -19 5 -12 2 6 2 18 0 25 -3 6 -5 1 -5 -13z"/>
<path d="M1795 410 c10 -11 20 -20 23 -20 3 0 -3 9 -13 20 -10 11 -20 20 -23
20 -3 0 3 -9 13 -20z"/>
<path d="M871 404 c0 -11 3 -14 6 -6 3 7 2 16 -1 19 -3 4 -6 -2 -5 -13z"/>
<path d="M981 404 c0 -11 3 -14 6 -6 3 7 2 16 -1 19 -3 4 -6 -2 -5 -13z"/>
<path d="M2741 414 c-1 -6 -11 -16 -23 -23 -23 -11 -23 -11 2 -5 31 8 33 10
27 26 -3 7 -6 8 -6 2z"/>
<path d="M1420 406 c0 -2 7 -7 16 -10 8 -3 12 -2 9 4 -6 10 -25 14 -25 6z"/>
<path d="M1756 402 c-2 -4 -1 -14 3 -21 6 -9 11 -10 15 -2 4 6 2 11 -4 11 -6
0 -8 5 -5 10 3 6 4 10 1 10 -3 0 -7 -4 -10 -8z"/>
<path d="M1868 403 c6 -2 10 -8 7 -13 -6 -10 34 -25 43 -16 8 8 -29 35 -48 35
-10 0 -11 -2 -2 -6z"/>
<path d="M2065 400 c-3 -5 -1 -10 4 -10 6 0 11 5 11 10 0 6 -2 10 -4 10 -3 0
-8 -4 -11 -10z"/>
<path d="M2555 390 c-3 -6 1 -7 9 -4 18 7 21 14 7 14 -6 0 -13 -4 -16 -10z"/>
<path d="M1031 374 c0 -11 3 -14 6 -6 3 7 2 16 -1 19 -3 4 -6 -2 -5 -13z"/>
<path d="M1680 381 c0 -10 19 -25 25 -20 1 2 -3 10 -11 17 -8 7 -14 8 -14 3z"/>
<path d="M1831 371 c-9 -16 -8 -19 6 -17 20 3 28 21 14 30 -5 4 -15 -2 -20
-13z"/>
<path d="M2190 379 c0 -5 5 -7 10 -4 6 3 10 8 10 11 0 2 -4 4 -10 4 -5 0 -10
-5 -10 -11z"/>
<path d="M2571 364 c0 -11 3 -14 6 -6 3 7 2 16 -1 19 -3 4 -6 -2 -5 -13z"/>
<path d="M1510 355 c7 -9 15 -13 17 -11 7 7 -7 26 -19 26 -6 0 -6 -6 2 -15z"/>
<path d="M1730 359 c0 -5 5 -7 10 -4 6 3 10 8 10 11 0 2 -4 4 -10 4 -5 0 -10
-5 -10 -11z"/>
<path d="M1776 362 c-6 -11 61 -72 79 -72 5 0 -2 8 -16 17 -14 9 -33 27 -41
41 -9 14 -18 20 -22 14z"/>
<path d="M2160 356 c0 -9 5 -16 10 -16 6 0 10 4 10 9 0 6 -4 13 -10 16 -5 3
-10 -1 -10 -9z"/>
<path d="M2001 344 c0 -11 3 -14 6 -6 3 7 2 16 -1 19 -3 4 -6 -2 -5 -13z"/>
<path d="M961 338 c0 -9 -4 -25 -7 -35 -5 -17 -5 -17 6 0 6 10 9 25 7 35 -4
15 -5 15 -6 0z"/>
<path d="M1410 340 c0 -5 9 -10 21 -10 11 0 17 5 14 10 -3 6 -13 10 -21 10 -8
0 -14 -4 -14 -10z"/>
<path d="M1899 336 c-1 -9 -2 -20 -3 -26 -1 -5 3 -11 8 -12 13 -4 18 40 6 47
-6 3 -11 -1 -11 -9z"/>
<path d="M1680 326 c0 -9 4 -16 8 -16 13 0 47 -68 39 -76 -4 -4 -7 -2 -7 4 0
6 -7 9 -15 6 -19 -8 -89 29 -119 61 -26 28 -41 33 -33 10 5 -11 1 -12 -19 -5
-14 6 -37 9 -52 9 -27 -2 -27 -2 -2 -6 26 -4 60 -17 95 -36 90 -50 112 -56
186 -57 44 0 80 5 87 12 9 9 13 7 18 -5 3 -9 10 -14 16 -11 5 3 4 11 -2 19
-15 18 -4 36 15 28 17 -6 20 13 4 23 -7 4 -16 -1 -21 -10 -9 -17 -33 -22 -41
-8 -2 4 -2 1 0 -6 5 -21 -8 -36 -18 -21 -8 12 -10 12 -18 0 -14 -21 -35 -8
-80 49 -23 29 -41 45 -41 36z"/>
<path d="M1870 330 c0 -5 5 -10 11 -10 5 0 7 5 4 10 -3 6 -8 10 -11 10 -2 0
-4 -4 -4 -10z"/>
<path d="M2136 314 c-11 -8 -16 -14 -10 -14 13 0 39 18 34 24 -3 2 -14 -2 -24
-10z"/>
<path d="M1740 313 c5 -2 8 -8 5 -13 -3 -4 2 -13 10 -20 10 -9 15 -9 15 -1 0
6 -4 11 -10 11 -5 0 -9 5 -7 11 1 6 -4 13 -11 15 -7 1 -8 0 -2 -3z"/>
<path d="M1032 290 c0 -14 2 -19 5 -12 2 6 2 18 0 25 -3 6 -5 1 -5 -13z"/>
<path d="M1632 303 c-10 -4 -9 -8 5 -19 23 -17 39 -18 24 -1 -6 8 -8 17 -4 20
7 8 -6 8 -25 0z"/>
<path d="M1985 300 c3 -5 8 -10 11 -10 2 0 4 5 4 10 0 6 -5 10 -11 10 -5 0 -7
-4 -4 -10z"/>
<path d="M2728 303 c7 -3 16 -2 19 1 4 3 -2 6 -13 5 -11 0 -14 -3 -6 -6z"/>
<path d="M1950 269 c0 -5 5 -7 10 -4 6 3 10 8 10 11 0 2 -4 4 -10 4 -5 0 -10
-5 -10 -11z"/>
<path d="M1280 240 c0 -6 7 -10 15 -10 8 0 15 2 15 4 0 2 -7 6 -15 10 -8 3
-15 1 -15 -4z"/>
<path d="M1906 242 c-3 -5 1 -9 9 -9 8 0 12 4 9 9 -3 4 -7 8 -9 8 -2 0 -6 -4
-9 -8z"/>
<path d="M2270 240 c0 -5 5 -10 10 -10 6 0 10 5 10 10 0 6 -4 10 -10 10 -5 0
-10 -4 -10 -10z"/>
<path d="M1098 233 c7 -3 16 -2 19 1 4 3 -2 6 -13 5 -11 0 -14 -3 -6 -6z"/>
<path d="M930 216 c0 -9 5 -16 10 -16 6 0 10 4 10 9 0 6 -4 13 -10 16 -5 3
-10 -1 -10 -9z"/>
<path d="M1388 223 c7 -3 16 -2 19 1 4 3 -2 6 -13 5 -11 0 -14 -3 -6 -6z"/>
<path d="M2400 219 c0 -5 5 -7 10 -4 6 3 10 8 10 11 0 2 -4 4 -10 4 -5 0 -10
-5 -10 -11z"/>
<path d="M2480 220 c0 -5 7 -7 15 -4 8 4 15 8 15 10 0 2 -7 4 -15 4 -8 0 -15
-4 -15 -10z"/>
<path d="M2627 210 c3 -11 7 -20 9 -20 2 0 4 9 4 20 0 11 -4 20 -9 20 -5 0 -7
-9 -4 -20z"/>
<path d="M2130 200 c0 -5 7 -10 15 -10 8 0 15 5 15 10 0 6 -7 10 -15 10 -8 0
-15 -4 -15 -10z"/>
<path d="M1198 193 c6 -2 18 -2 25 0 6 3 1 5 -13 5 -14 0 -19 -2 -12 -5z"/>
<path d="M1830 179 c0 -11 4 -18 10 -14 5 3 7 12 3 20 -7 21 -13 19 -13 -6z"/>
<path d="M2671 184 c0 -11 3 -14 6 -6 3 7 2 16 -1 19 -3 4 -6 -2 -5 -13z"/>
<path d="M988 184 c-11 -10 3 -34 19 -34 8 0 13 7 11 17 -3 18 -20 27 -30 17z"/>
<path d="M1245 180 c3 -5 13 -10 21 -10 8 0 14 5 14 10 0 6 -9 10 -21 10 -11
0 -17 -4 -14 -10z"/>
<path d="M908 162 c-5 -18 -2 -22 15 -22 13 0 17 3 11 8 -6 4 -13 14 -16 22
-3 10 -6 8 -10 -8z"/>
<path d="M1425 170 c-3 -5 -1 -10 4 -10 6 0 11 5 11 10 0 6 -2 10 -4 10 -3 0
-8 -4 -11 -10z"/>
<path d="M2302 165 c-11 -12 -10 -15 3 -15 8 0 15 7 15 15 0 18 -2 18 -18 0z"/>
<path d="M1208 163 c7 -3 16 -2 19 1 4 3 -2 6 -13 5 -11 0 -14 -3 -6 -6z"/>
<path d="M1775 160 c4 -6 11 -8 16 -5 14 9 11 15 -7 15 -8 0 -12 -5 -9 -10z"/>
<path d="M1348 153 c7 -3 16 -2 19 1 4 3 -2 6 -13 5 -11 0 -14 -3 -6 -6z"/>
<path d="M1690 150 c-8 -5 -10 -10 -5 -10 6 0 17 5 25 10 8 5 11 10 5 10 -5 0
-17 -5 -25 -10z"/>
<path d="M1850 150 c-9 -6 -10 -10 -3 -10 6 0 15 5 18 10 8 12 4 12 -15 0z"/>
<path d="M1888 153 c7 -3 16 -2 19 1 4 3 -2 6 -13 5 -11 0 -14 -3 -6 -6z"/>
<path d="M2438 153 c7 -3 16 -2 19 1 4 3 -2 6 -13 5 -11 0 -14 -3 -6 -6z"/>
<path d="M658 143 c12 -2 32 -2 45 0 12 2 2 4 -23 4 -25 0 -35 -2 -22 -4z"/>
<path d="M2383 143 c9 -2 23 -2 30 0 6 3 -1 5 -18 5 -16 0 -22 -2 -12 -5z"/>
<path d="M2644 123 c-1 -13 1 -21 5 -16 3 4 10 10 14 14 4 3 2 11 -5 17 -10 8
-13 5 -14 -15z"/>
<path d="M1440 130 c0 -5 14 -10 32 -10 36 0 35 4 -4 14 -17 4 -28 2 -28 -4z"/>
<path d="M1638 133 c6 -2 18 -2 25 0 6 3 1 5 -13 5 -14 0 -19 -2 -12 -5z"/>
<path d="M1520 120 c0 -5 15 -10 33 -9 27 0 29 2 12 9 -28 12 -45 12 -45 0z"/>
<path d="M1640 119 c-33 -5 -24 -6 38 -4 79 2 82 1 76 -19 -6 -21 -6 -21 9 -1
9 11 13 22 11 24 -7 8 -87 8 -134 0z"/>
<path d="M2071 104 c0 -11 3 -14 6 -6 3 7 2 16 -1 19 -3 4 -6 -2 -5 -13z"/>
<path d="M870 99 c0 -5 5 -7 10 -4 6 3 10 8 10 11 0 2 -4 4 -10 4 -5 0 -10 -5
-10 -11z"/>
<path d="M897 80 c-3 -12 0 -20 8 -20 8 0 11 8 8 20 -3 11 -7 20 -8 20 -1 0
-5 -9 -8 -20z"/>
<path d="M974 87 c2 -19 45 -59 56 -52 6 4 10 1 10 -6 0 -7 3 -9 6 -6 6 6 -58
77 -69 77 -3 0 -4 -6 -3 -13z"/>
<path d="M1563 83 c9 -2 23 -2 30 0 6 3 -1 5 -18 5 -16 0 -22 -2 -12 -5z"/>
<path d="M1718 73 c7 -3 16 -2 19 1 4 3 -2 6 -13 5 -11 0 -14 -3 -6 -6z"/>
<path d="M1912 56 c7 -8 15 -12 17 -11 5 6 -10 25 -20 25 -5 0 -4 -6 3 -14z"/>
<path d="M2008 63 c7 -3 16 -2 19 1 4 3 -2 6 -13 5 -11 0 -14 -3 -6 -6z"/>
<path d="M950 32 c0 -13 27 -35 39 -30 5 1 -2 11 -15 21 -13 10 -24 14 -24 9z"/>
<path d="M2714 20 c0 -11 6 -15 18 -12 10 2 18 8 18 12 0 4 -8 10 -18 12 -12
3 -18 -1 -18 -12z"/>
<path d="M1905 20 c3 -5 8 -10 11 -10 2 0 4 5 4 10 0 6 -5 10 -11 10 -5 0 -7
-4 -4 -10z"/>
<path d="M920 10 c0 -5 5 -10 11 -10 5 0 7 5 4 10 -3 6 -8 10 -11 10 -2 0 -4
-4 -4 -10z"/>
</g>
</svg>
